<svg width="14" height="14" viewBox="0 0 14 14" fill="none" xmlns="http://www.w3.org/2000/svg">
<path d="M4.91332 6.33745C5.0452 6.33745 5.17411 6.29835 5.28376 6.22508C5.39341 6.15181 5.47888 6.04768 5.52934 5.92584C5.57981 5.804 5.59302 5.66993 5.56729 5.54059C5.54156 5.41125 5.47806 5.29244 5.3848 5.19919C5.29155 5.10594 5.17274 5.04243 5.0434 5.0167C4.91406 4.99097 4.77999 5.00418 4.65815 5.05465C4.53631 5.10511 4.43218 5.19058 4.35891 5.30023C4.28564 5.40988 4.24654 5.53879 4.24654 5.67067C4.24654 5.84751 4.31679 6.01711 4.44183 6.14216C4.56688 6.2672 4.73648 6.33745 4.91332 6.33745ZM6.91366 0.336426C5.59489 0.336426 4.30574 0.727486 3.20923 1.46015C2.11271 2.19282 1.25808 3.23419 0.753409 4.45257C0.248739 5.67096 0.116694 7.01163 0.373973 8.30506C0.631252 9.59848 1.2663 10.7866 2.19881 11.7191C3.13132 12.6516 4.31941 13.2866 5.61284 13.5439C6.90627 13.8012 8.24694 13.6692 9.46532 13.1645C10.6837 12.6598 11.7251 11.8052 12.4577 10.7087C13.1904 9.61215 13.5815 8.323 13.5815 7.00423C13.5815 6.1286 13.409 5.26155 13.0739 4.45257C12.7388 3.6436 12.2477 2.90854 11.6285 2.28938C11.0094 1.67022 10.2743 1.17907 9.46532 0.843982C8.65635 0.508894 7.78929 0.336426 6.91366 0.336426ZM6.91366 12.3385C5.85865 12.3385 4.82732 12.0256 3.95011 11.4395C3.0729 10.8534 2.3892 10.0203 1.98546 9.04556C1.58172 8.07085 1.47609 6.99832 1.68191 5.96357C1.88773 4.92883 2.39577 3.97836 3.14178 3.23235C3.88779 2.48634 4.83826 1.97831 5.873 1.77248C6.90774 1.56666 7.98028 1.6723 8.95499 2.07603C9.9297 2.47977 10.7628 3.16347 11.3489 4.04068C11.9351 4.9179 12.2479 5.94922 12.2479 7.00423C12.2479 8.41896 11.6859 9.77575 10.6855 10.7761C9.68518 11.7765 8.32839 12.3385 6.91366 12.3385ZM8.914 7.67101H4.91332C4.73648 7.67101 4.56688 7.74126 4.44183 7.86631C4.31679 7.99135 4.24654 8.16095 4.24654 8.33779C4.24654 9.04516 4.52754 9.72355 5.02772 10.2237C5.5279 10.7239 6.2063 11.0049 6.91366 11.0049C7.62103 11.0049 8.29942 10.7239 8.7996 10.2237C9.29979 9.72355 9.58078 9.04516 9.58078 8.33779C9.58078 8.16095 9.51054 7.99135 9.38549 7.86631C9.26044 7.74126 9.09085 7.67101 8.914 7.67101ZM6.91366 9.67136C6.6798 9.67112 6.45012 9.60938 6.24766 9.49235C6.04519 9.37532 5.87706 9.2071 5.76013 9.00457H8.06719C7.95026 9.2071 7.78213 9.37532 7.57967 9.49235C7.3772 9.60938 7.14752 9.67112 6.91366 9.67136ZM8.914 5.00389C8.78213 5.00389 8.65321 5.043 8.54356 5.11626C8.43391 5.18953 8.34845 5.29367 8.29798 5.41551C8.24751 5.53734 8.23431 5.67141 8.26004 5.80075C8.28576 5.9301 8.34927 6.04891 8.44252 6.14216C8.53577 6.23541 8.65458 6.29891 8.78392 6.32464C8.91326 6.35037 9.04733 6.33716 9.16917 6.2867C9.29101 6.23623 9.39515 6.15077 9.46841 6.04112C9.54168 5.93146 9.58078 5.80255 9.58078 5.67067C9.58078 5.49383 9.51054 5.32423 9.38549 5.19919C9.26044 5.07414 9.09085 5.00389 8.914 5.00389Z" fill="#5B636B"/>
</svg>
