<svg width="12" height="16" viewBox="0 0 12 16" fill="none" xmlns="http://www.w3.org/2000/svg">
<path d="M10.5759 14.0036H9.90908V12.8921C9.90694 12.5104 9.83927 12.132 9.70905 11.7732C9.70193 11.7542 9.69392 11.7355 9.68504 11.7172C9.57718 11.4227 9.42811 11.145 9.2423 10.8924L8.30881 9.64751C8.04984 9.30063 7.90955 8.87952 7.90874 8.44664V7.77319C7.91037 7.24334 8.12071 6.73547 8.49417 6.35961L8.93225 5.92087C9.44165 5.40889 9.7689 4.74385 9.86374 4.02788C9.86374 4.01921 9.86907 4.01121 9.86907 4.00121L9.86707 3.99254C9.89027 3.85068 9.9043 3.70747 9.90908 3.5638V2.00153H10.5759C10.7527 2.00153 10.9223 1.93128 11.0473 1.80624C11.1724 1.68119 11.2426 1.51159 11.2426 1.33475C11.2426 1.15791 11.1724 0.98831 11.0473 0.863264C10.9223 0.738219 10.7527 0.667969 10.5759 0.667969H1.24093C1.06409 0.667969 0.894494 0.738219 0.769449 0.863264C0.644403 0.98831 0.574153 1.15791 0.574153 1.33475C0.574153 1.51159 0.644403 1.68119 0.769449 1.80624C0.894494 1.93128 1.06409 2.00153 1.24093 2.00153H1.90771V3.5638C1.91249 3.70747 1.92652 3.85068 1.94972 3.99254L1.94772 4.00187C1.94772 4.01121 1.95239 4.01921 1.95306 4.02854C2.04785 4.7442 2.37486 5.40897 2.88388 5.92087L3.32196 6.35894C3.69582 6.73486 3.90642 7.24301 3.90806 7.77319V8.44664C3.90701 8.87928 3.76673 9.3001 3.50799 9.64684L2.57449 10.8924C2.38849 11.145 2.2392 11.4227 2.13109 11.7172C2.12221 11.7355 2.1142 11.7542 2.10708 11.7732C1.97689 12.132 1.90923 12.5104 1.90705 12.8921V14.0036H1.24027C1.06343 14.0036 0.893827 14.0738 0.768782 14.1989C0.643736 14.3239 0.573486 14.4935 0.573486 14.6704C0.573486 14.8472 0.643736 15.0168 0.768782 15.1419C0.893827 15.2669 1.06343 15.3372 1.24027 15.3372H10.5752C10.752 15.3372 10.9216 15.2669 11.0467 15.1419C11.1717 15.0168 11.242 14.8472 11.242 14.6704C11.242 14.4935 11.1717 14.3239 11.0467 14.1989C10.9216 14.0738 10.752 14.0036 10.5752 14.0036H10.5759ZM3.24128 3.33509V2.00153H8.57552V3.33509H3.24128ZM3.82671 4.97804C3.73272 4.88363 3.6485 4.77998 3.57533 4.66865H8.24079C8.16762 4.77998 8.0834 4.88363 7.98942 4.97804L7.55134 5.41612C7.03118 5.93317 6.69764 6.60846 6.60318 7.33578H5.21361C5.11916 6.60846 4.78562 5.93317 4.26545 5.41612L3.82671 4.97804ZM4.57484 10.447C4.96058 9.92999 5.18928 9.31285 5.23361 8.66934H6.58251C6.62689 9.31295 6.85584 9.93014 7.24196 10.447L7.90874 11.3365H3.90806L4.57484 10.447ZM8.57552 14.0036H3.24128V12.8921C3.24308 12.8178 3.24909 12.7436 3.25928 12.67H8.55685C8.56726 12.7436 8.57349 12.8178 8.57552 12.8921V14.0036Z" fill="#5B636B"/>
</svg>
