<svg width="14" height="14" viewBox="0 0 14 14" fill="none" xmlns="http://www.w3.org/2000/svg">
<path d="M13.5815 6.34554C13.5834 5.87557 13.461 5.41345 13.2268 5.00597C12.9926 4.59849 12.6549 4.26013 12.2479 4.02515C12.258 3.90979 12.258 3.79378 12.2479 3.67842C12.2479 3.1479 12.0372 2.6391 11.662 2.26397C11.2869 1.88883 10.7781 1.67808 10.2476 1.67808H10.1276C10.0165 1.37023 9.83166 1.09433 9.58917 0.874572C9.34668 0.65481 9.05398 0.497899 8.73672 0.417599C8.41947 0.337298 8.08736 0.336061 7.76952 0.413996C7.45168 0.491931 7.15781 0.646657 6.91369 0.864606C6.66957 0.646657 6.3757 0.491931 6.05786 0.413996C5.74002 0.336061 5.40791 0.337298 5.09066 0.417599C4.7734 0.497899 4.4807 0.65481 4.23821 0.874572C3.99571 1.09433 3.81084 1.37023 3.69981 1.67808H3.57979C3.04926 1.67808 2.54047 1.88883 2.16533 2.26397C1.79019 2.6391 1.57944 3.1479 1.57944 3.67842C1.56941 3.79378 1.56941 3.90979 1.57944 4.02515C1.20102 4.23905 0.880612 4.5422 0.646112 4.90821C0.411612 5.27423 0.270126 5.69201 0.233973 6.1252C0.197819 6.55839 0.268093 6.99385 0.438676 7.39367C0.60926 7.79349 0.874983 8.14556 1.21272 8.41923C0.994192 8.82681 0.885403 9.28421 0.897025 9.74653C0.908647 10.2088 1.04028 10.6602 1.27901 11.0563C1.51774 11.4524 1.85535 11.7796 2.25871 12.0058C2.66208 12.232 3.11733 12.3494 3.57979 12.3466H3.69981C3.81084 12.6544 3.99571 12.9303 4.23821 13.1501C4.4807 13.3698 4.7734 13.5268 5.09066 13.6071C5.40791 13.6874 5.74002 13.6886 6.05786 13.6107C6.3757 13.5327 6.66957 13.378 6.91369 13.16C7.15781 13.378 7.45168 13.5327 7.76952 13.6107C8.08736 13.6886 8.41947 13.6874 8.73672 13.6071C9.05398 13.5268 9.34668 13.3698 9.58917 13.1501C9.83166 12.9303 10.0165 12.6544 10.1276 12.3466H10.2476C10.7072 12.3437 11.1583 12.222 11.5571 11.9935C11.9559 11.7649 12.2888 11.4371 12.5236 11.042C12.7584 10.6468 12.8871 10.1977 12.8972 9.7382C12.9073 9.27867 12.7985 8.82432 12.5813 8.41923C12.8923 8.17023 13.1436 7.85471 13.3167 7.49587C13.4898 7.13702 13.5802 6.74395 13.5815 6.34554ZM6.24691 4.71193C6.10168 4.62887 5.95007 4.55752 5.7935 4.49856C5.6255 4.44197 5.4419 4.45444 5.28309 4.53322C5.12428 4.612 5.00328 4.75063 4.94669 4.91863C4.8901 5.08663 4.90256 5.27023 4.98134 5.42904C5.06012 5.58785 5.19876 5.70886 5.36676 5.76545C5.62343 5.85824 5.84545 6.02755 6.00284 6.25052C6.16024 6.4735 6.24543 6.7394 6.24691 7.01233V8.04584C6.10168 7.96277 5.95007 7.89142 5.7935 7.83247C5.6255 7.77588 5.4419 7.78834 5.28309 7.86712C5.12428 7.9459 5.00328 8.08454 4.94669 8.25254C4.8901 8.42054 4.90256 8.60414 4.98134 8.76294C5.06012 8.92175 5.19876 9.04276 5.36676 9.09935C5.62343 9.19214 5.84545 9.36145 6.00284 9.58443C6.16024 9.8074 6.24543 10.0733 6.24691 10.3462V11.6798C6.24691 11.8566 6.17666 12.0262 6.05161 12.1513C5.92657 12.2763 5.75697 12.3466 5.58013 12.3466C5.45113 12.3457 5.32514 12.3075 5.21744 12.2365C5.10974 12.1655 5.02496 12.0647 4.97336 11.9465C5.08516 11.8809 5.19212 11.8074 5.29341 11.7265C5.36084 11.6704 5.41656 11.6017 5.45741 11.5241C5.49825 11.4465 5.52342 11.3616 5.53147 11.2743C5.53952 11.187 5.53029 11.099 5.50432 11.0153C5.47835 10.9315 5.43613 10.8537 5.38009 10.7863C5.32405 10.7189 5.25528 10.6632 5.17771 10.6223C5.10013 10.5815 5.01527 10.5563 4.92797 10.5483C4.84066 10.5402 4.75263 10.5494 4.66889 10.5754C4.58516 10.6014 4.50736 10.6436 4.43993 10.6996C4.19918 10.9023 3.8945 11.0133 3.57979 11.013C3.2261 11.013 2.88691 10.8725 2.63682 10.6224C2.38672 10.3723 2.24623 10.0331 2.24623 9.67945C2.24942 9.42847 2.32337 9.18348 2.45959 8.97266C2.60924 8.9995 2.76098 9.01289 2.91301 9.01267C3.08985 9.01267 3.25944 8.94242 3.38449 8.81737C3.50954 8.69233 3.57979 8.52273 3.57979 8.34589C3.57979 8.16905 3.50954 7.99945 3.38449 7.8744C3.25944 7.74936 3.08985 7.67911 2.91301 7.67911C2.7555 7.68001 2.5993 7.65058 2.45293 7.59242C2.21312 7.50593 2.00312 7.35252 1.84782 7.15035C1.69252 6.94819 1.59841 6.70574 1.57666 6.45174C1.55491 6.19774 1.60642 5.94282 1.72509 5.7172C1.84376 5.49157 2.02461 5.30468 2.24623 5.17868C2.34097 5.26585 2.44366 5.34398 2.55294 5.41205C2.7068 5.50047 2.88947 5.52415 3.06078 5.47789C3.2321 5.43162 3.37801 5.31919 3.46643 5.16534C3.55485 5.01149 3.57854 4.82882 3.53227 4.6575C3.486 4.48619 3.37358 4.34027 3.21972 4.25185C3.12586 4.20007 3.04758 4.12409 2.99302 4.03182C2.93137 3.92476 2.90349 3.80159 2.91301 3.67842C2.91301 3.50158 2.98326 3.33198 3.1083 3.20694C3.23335 3.08189 3.40294 3.01164 3.57979 3.01164C3.62624 3.00516 3.67336 3.00516 3.71981 3.01164C3.75511 3.11877 3.79743 3.22346 3.8465 3.32503C3.89006 3.40143 3.94831 3.46846 4.01788 3.52226C4.08746 3.57606 4.16699 3.61556 4.2519 3.6385C4.33681 3.66143 4.42541 3.66733 4.51261 3.65588C4.59981 3.64442 4.68389 3.61582 4.75999 3.57174C4.90782 3.48279 5.01542 3.34001 5.06018 3.1734C5.10494 3.00678 5.08338 2.8293 5.00003 2.67825C4.94408 2.57597 4.9143 2.46144 4.91335 2.34486C4.91335 2.16802 4.9836 1.99842 5.10864 1.87337C5.23369 1.74833 5.40329 1.67808 5.58013 1.67808C5.75697 1.67808 5.92657 1.74833 6.05161 1.87337C6.17666 1.99842 6.24691 2.16802 6.24691 2.34486V4.71193ZM11.3745 7.59242C11.2281 7.65058 11.0719 7.68001 10.9144 7.67911C10.7375 7.67911 10.5679 7.74936 10.4429 7.8744C10.3178 7.99945 10.2476 8.16905 10.2476 8.34589C10.2476 8.52273 10.3178 8.69233 10.4429 8.81737C10.5679 8.94242 10.7375 9.01267 10.9144 9.01267C11.0664 9.01289 11.2181 8.9995 11.3678 8.97266C11.504 9.18348 11.578 9.42847 11.5812 9.67945C11.5812 10.0331 11.4407 10.3723 11.1906 10.6224C10.9405 10.8725 10.6013 11.013 10.2476 11.013C9.93288 11.0133 9.6282 10.9023 9.38744 10.6996C9.25128 10.5864 9.07573 10.532 8.89941 10.5483C8.7231 10.5645 8.56046 10.6501 8.44728 10.7863C8.33411 10.9225 8.27966 11.098 8.29591 11.2743C8.31217 11.4507 8.3978 11.6133 8.53397 11.7265C8.63526 11.8074 8.74222 11.8809 8.85402 11.9465C8.80242 12.0647 8.71763 12.1655 8.60993 12.2365C8.50224 12.3075 8.37625 12.3457 8.24725 12.3466C8.07041 12.3466 7.90081 12.2763 7.77577 12.1513C7.65072 12.0262 7.58047 11.8566 7.58047 11.6798V10.3462C7.58195 10.0733 7.66714 9.8074 7.82453 9.58443C7.98193 9.36145 8.20395 9.19214 8.46062 9.09935C8.62862 9.04276 8.76726 8.92175 8.84604 8.76294C8.92482 8.60414 8.93728 8.42054 8.88069 8.25254C8.8241 8.08454 8.70309 7.9459 8.54429 7.86712C8.38548 7.78834 8.20188 7.77588 8.03388 7.83247C7.87731 7.89142 7.7257 7.96277 7.58047 8.04584V7.01233C7.58195 6.7394 7.66714 6.4735 7.82453 6.25052C7.98193 6.02755 8.20395 5.85824 8.46062 5.76545C8.5438 5.73743 8.62066 5.6933 8.68679 5.63557C8.75292 5.57785 8.80703 5.50767 8.84604 5.42904C8.88504 5.35041 8.90818 5.26486 8.91413 5.17728C8.92007 5.08971 8.90871 5.00182 8.88069 4.91863C8.85267 4.83545 8.80854 4.7586 8.75082 4.69247C8.6931 4.62634 8.62292 4.57223 8.54429 4.53322C8.46565 4.49421 8.38011 4.47107 8.29253 4.46513C8.20495 4.45918 8.11707 4.47054 8.03388 4.49856C7.87731 4.55752 7.7257 4.62887 7.58047 4.71193V2.34486C7.58047 2.16802 7.65072 1.99842 7.77577 1.87337C7.90081 1.74833 8.07041 1.67808 8.24725 1.67808C8.42409 1.67808 8.59369 1.74833 8.71873 1.87337C8.84378 1.99842 8.91403 2.16802 8.91403 2.34486C8.91307 2.46144 8.8833 2.57597 8.82735 2.67825C8.78299 2.75395 8.754 2.83767 8.74206 2.9246C8.73011 3.01153 8.73545 3.09996 8.75774 3.18482C8.78005 3.26969 8.81888 3.34932 8.87201 3.41914C8.92515 3.48897 8.99154 3.54762 9.06739 3.59174C9.14349 3.63583 9.22756 3.66442 9.31476 3.67588C9.40197 3.68734 9.49057 3.68143 9.57548 3.6585C9.66039 3.63557 9.73992 3.59607 9.8095 3.54227C9.87907 3.48847 9.93732 3.42144 9.98088 3.34503C10.0308 3.23697 10.0731 3.12557 10.1076 3.01164C10.154 3.00516 10.2011 3.00516 10.2476 3.01164C10.4244 3.01164 10.594 3.08189 10.7191 3.20694C10.8441 3.33198 10.9144 3.50158 10.9144 3.67842C10.9134 3.80913 10.8739 3.93666 10.801 4.04515C10.7465 4.13168 10.6707 4.20283 10.581 4.25185C10.4271 4.34027 10.3147 4.48619 10.2684 4.6575C10.2222 4.82882 10.2459 5.01149 10.3343 5.16534C10.4227 5.31919 10.5686 5.43162 10.7399 5.47789C10.9112 5.52415 11.0939 5.50047 11.2478 5.41205C11.3675 5.34731 11.4793 5.269 11.5812 5.17868C11.8035 5.30246 11.9858 5.48728 12.1066 5.71133C12.2273 5.93537 12.2814 6.18928 12.2624 6.44308C12.2435 6.69687 12.1523 6.93995 11.9997 7.14361C11.8471 7.34727 11.6394 7.503 11.4011 7.59242H11.3745Z" fill="#5B636B"/>
</svg>
