<svg width="14" height="14" viewBox="0 0 14 14" fill="none" xmlns="http://www.w3.org/2000/svg">
<path d="M6.91374 0.341797C5.7987 0.342937 4.70176 0.623688 3.72327 1.15836C2.74479 1.69303 1.91601 2.46455 1.31278 3.40232C0.464344 4.73292 0.115338 6.32131 0.327827 7.88501C0.540316 9.44872 1.30053 10.8864 2.47326 11.9423C3.646 12.9983 5.15525 13.604 6.7326 13.6519C8.30995 13.6998 9.85316 13.1867 11.0878 12.2038C12.1623 11.3389 12.9422 10.162 13.3199 8.83536C13.6976 7.50869 13.6545 6.09753 13.1967 4.79634C12.7388 3.49516 11.8887 2.368 10.7634 1.57019C9.63813 0.772388 8.29313 0.343208 6.91374 0.341797ZM8.2473 1.84872C9.16868 2.08722 10.0095 2.5679 10.6825 3.24088C11.3554 3.91387 11.8361 4.75466 12.0746 5.67604C10.9598 5.70744 9.87157 6.02425 8.91408 6.5962C8.43328 6.05077 7.89696 5.5569 7.31381 5.12262C7.90133 4.12975 8.22285 3.00214 8.2473 1.84872ZM6.91374 1.67536C6.91154 2.63221 6.64876 3.57039 6.15361 4.38916C6.05359 4.33581 5.96024 4.2758 5.86023 4.22913C5.00165 3.77611 4.08361 3.44615 3.13309 3.24896C3.62854 2.75056 4.21759 2.35496 4.8664 2.08491C5.5152 1.81486 6.21098 1.67568 6.91374 1.67536ZM2.24627 4.44917C3.29206 4.59445 4.3049 4.91928 5.24012 5.40933L5.3268 5.46267C4.83466 5.95436 4.25033 6.34409 3.60729 6.60954C2.96426 6.87499 2.27516 7.01095 1.57949 7.00961C1.5832 6.11367 1.81251 5.23311 2.24627 4.44917ZM5.58018 12.1705C4.6588 11.932 3.81801 11.4513 3.14502 10.7783C2.47203 10.1053 1.99136 9.26455 1.75286 8.34317C2.64344 8.32339 3.52082 8.12357 4.33213 7.75573C5.14344 7.38788 5.87191 6.85964 6.47366 6.2028C6.95569 6.55912 7.40227 6.96105 7.80723 7.40301C7.13202 8.00504 6.58639 8.73816 6.20352 9.55777C5.82066 10.3774 5.60857 11.2663 5.58018 12.1705ZM6.91374 12.3439C6.91518 11.6113 7.06748 10.8869 7.36116 10.2158C7.65483 9.54473 8.08359 8.94131 8.6207 8.44318C8.6607 8.49653 8.70071 8.5432 8.73405 8.59654C9.29281 9.45218 9.70728 10.3937 9.96093 11.3837C9.0685 12.0103 8.00417 12.3457 6.91374 12.3439ZM11.0544 10.3435C10.7649 9.46136 10.3614 8.62078 9.85424 7.84308L9.71422 7.67639C10.4895 7.24508 11.3608 7.01578 12.248 7.00961C12.2414 8.22439 11.8203 9.40054 11.0544 10.3435Z" fill="#5B636B"/>
</svg>
