<svg width="14" height="14" viewBox="0 0 14 14" fill="none" xmlns="http://www.w3.org/2000/svg">
<path d="M6.91368 0.339111C5.20431 0.343987 3.56209 1.00516 2.32621 2.18609V1.00589C2.32621 0.829049 2.25596 0.659451 2.13092 0.534406C2.00587 0.409361 1.83627 0.339111 1.65943 0.339111C1.48259 0.339111 1.31299 0.409361 1.18794 0.534406C1.0629 0.659451 0.992647 0.829049 0.992647 1.00589V4.00639C0.992647 4.18323 1.0629 4.35283 1.18794 4.47787C1.31299 4.60292 1.48259 4.67317 1.65943 4.67317H4.65996C4.8368 4.67317 5.0064 4.60292 5.13144 4.47787C5.25649 4.35283 5.32674 4.18323 5.32674 4.00639C5.32674 3.82955 5.25649 3.65995 5.13144 3.53491C5.0064 3.40986 4.8368 3.33961 4.65996 3.33961H3.05968C3.91701 2.4437 5.0597 1.87447 6.29127 1.72979C7.52283 1.58511 8.76633 1.87402 9.80796 2.54684C10.8496 3.21967 11.6243 4.23437 11.9988 5.41649C12.3733 6.5986 12.3243 7.87427 11.8602 9.02416C11.396 10.174 10.5458 11.1263 9.45557 11.7172C8.36538 12.3081 7.10338 12.5008 5.88654 12.262C4.66971 12.0232 3.57408 11.368 2.78802 10.4089C2.00197 9.44986 1.57461 8.24691 1.57942 7.00689C1.57942 6.83005 1.50917 6.66045 1.38412 6.53541C1.25907 6.41036 1.08948 6.34011 0.912633 6.34011C0.735791 6.34011 0.566192 6.41036 0.441146 6.53541C0.3161 6.66045 0.24585 6.83005 0.24585 7.00689C0.24585 8.32565 0.636911 9.6148 1.36958 10.7113C2.10225 11.8078 3.14363 12.6624 4.36201 13.1671C5.5804 13.6718 6.92108 13.8038 8.21451 13.5465C9.50795 13.2893 10.696 12.6542 11.6286 11.7217C12.5611 10.7892 13.1961 9.60113 13.4534 8.30771C13.7107 7.01429 13.5786 5.67362 13.074 4.45524C12.5693 3.23686 11.7147 2.1955 10.6181 1.46283C9.52162 0.73017 8.23246 0.339111 6.91368 0.339111ZM6.91368 4.33978C6.73684 4.33978 6.56724 4.41003 6.4422 4.53507C6.31715 4.66012 6.2469 4.82972 6.2469 5.00656V7.00689C6.2469 7.18373 6.31715 7.35333 6.4422 7.47837C6.56724 7.60342 6.73684 7.67367 6.91368 7.67367H8.24725C8.42409 7.67367 8.59369 7.60342 8.71874 7.47837C8.84379 7.35333 8.91403 7.18373 8.91403 7.00689C8.91403 6.83005 8.84379 6.66045 8.71874 6.53541C8.59369 6.41036 8.42409 6.34011 8.24725 6.34011H7.58047V5.00656C7.58047 4.82972 7.51022 4.66012 7.38517 4.53507C7.26013 4.41003 7.09053 4.33978 6.91368 4.33978Z" fill="#5B636B"/>
</svg>
