<svg width="20" height="35" viewBox="0 0 20 35" fill="none" xmlns="http://www.w3.org/2000/svg">
<path d="M13.2777 35C12.9444 35 12.6611 34.8833 12.4277 34.65C12.1944 34.4167 12.0777 34.1333 12.0777 33.8V7.9L4.47773 13.75C4.27773 13.9167 4.0444 14 3.77773 14C3.37773 14 3.0444 13.8167 2.77773 13.45L0.677734 10.75C0.511068 10.4833 0.427734 10.2333 0.427734 10C0.427734 9.6 0.611068 9.26667 0.977734 9L12.1777 0.349999C12.4777 0.116665 12.8944 -2.38419e-06 13.4277 -2.38419e-06H17.8277C18.1944 -2.38419e-06 18.4777 0.116665 18.6777 0.349999C18.9111 0.549998 19.0277 0.833331 19.0277 1.2V33.8C19.0277 34.1333 18.9111 34.4167 18.6777 34.65C18.4777 34.8833 18.1944 35 17.8277 35H13.2777Z" fill="url(#paint0_linear_59_9)"/>
<defs>
<linearGradient id="paint0_linear_59_9" x1="7.1" y1="-12" x2="15.1258" y2="-11.8546" gradientUnits="userSpaceOnUse">
<stop stop-color="#F2B236"/>
<stop offset="1" stop-color="#FF9C1A"/>
</linearGradient>
</defs>
</svg>
