<svg width="27" height="36" viewBox="0 0 27 36" fill="none" xmlns="http://www.w3.org/2000/svg">
<path d="M1.47148 36C1.13815 36 0.854818 35.8833 0.621484 35.65C0.388151 35.4167 0.271484 35.1333 0.271484 34.8V32.25C0.271484 31.35 0.688151 30.5667 1.52148 29.9L9.42149 22.05C12.8548 19.35 15.2382 17.25 16.5715 15.75C17.9382 14.2167 18.6215 12.7167 18.6215 11.25C18.6215 9.68333 18.1882 8.45 17.3215 7.55C16.4882 6.65 15.2215 6.2 13.5215 6.2C11.8548 6.2 10.5382 6.7 9.57148 7.7C8.60482 8.66667 8.00482 9.93333 7.77148 11.5C7.67148 11.9 7.48815 12.2 7.22149 12.4C6.95482 12.5667 6.65482 12.65 6.32148 12.65H1.87148C1.57148 12.65 1.32148 12.55 1.12148 12.35C0.921484 12.15 0.821484 11.9167 0.821484 11.65C0.888151 9.68333 1.42148 7.85 2.42148 6.15C3.42148 4.41666 4.87148 3.03333 6.77148 2C8.67148 0.933333 10.9048 0.399999 13.4715 0.399999C16.1382 0.399999 18.3882 0.866666 20.2215 1.8C22.0882 2.7 23.4882 3.95 24.4215 5.55C25.3548 7.15 25.8215 8.96667 25.8215 11C25.8215 13.2333 25.1882 15.25 23.9215 17.05C22.6882 18.85 20.7882 20.7833 18.2215 22.85L11.1215 30.05H25.3715C25.7382 30.05 26.0215 30.1667 26.2215 30.4C26.4548 30.6 26.5715 30.8833 26.5715 31.25V34.8C26.5715 35.1333 26.4548 35.4167 26.2215 35.65C26.0215 35.8833 25.7382 36 25.3715 36H1.47148Z" fill="url(#paint0_linear_59_14)"/>
<defs>
<linearGradient id="paint0_linear_59_14" x1="8.4625" y1="-11" x2="18.8268" y2="-10.7575" gradientUnits="userSpaceOnUse">
<stop stop-color="#F2B236"/>
<stop offset="1" stop-color="#FF9C1A"/>
</linearGradient>
</defs>
</svg>
