<svg width="28" height="36" viewBox="0 0 28 36" fill="none" xmlns="http://www.w3.org/2000/svg">
<path d="M13.8029 35.5C10.8696 35.5 8.3696 35.0333 6.30293 34.1C4.2696 33.1667 2.73626 32 1.70293 30.6C0.70293 29.1667 0.169596 27.7 0.10293 26.2C0.10293 25.9 0.20293 25.6667 0.40293 25.5C0.636263 25.3 0.90293 25.2 1.20293 25.2H5.70293C6.43626 25.2 6.9196 25.5333 7.15293 26.2C7.88626 28.6 10.1196 29.8 13.8529 29.8C15.8863 29.8 17.4863 29.3333 18.6529 28.4C19.8196 27.4333 20.4029 26.0667 20.4029 24.3C20.4029 20.9667 18.3196 19.3 14.1529 19.3H9.00293C8.63626 19.3 8.33626 19.1833 8.10293 18.95C7.8696 18.7167 7.75293 18.4333 7.75293 18.1V16C7.75293 15.4667 7.98626 14.9667 8.45293 14.5L17.4029 5.75H3.10293C2.7696 5.75 2.48626 5.63333 2.25293 5.4C2.0196 5.16667 1.90293 4.88333 1.90293 4.55V1.25C1.90293 0.883331 2.00293 0.583331 2.20293 0.349999C2.43626 0.116665 2.73626 -2.38419e-06 3.10293 -2.38419e-06H24.5529C24.9196 -2.38419e-06 25.2196 0.116665 25.4529 0.349999C25.6863 0.583331 25.8029 0.883331 25.8029 1.25V4.25C25.8029 4.75 25.5863 5.21667 25.1529 5.65L16.5029 14.55L17.1029 14.6C20.3029 14.8667 22.8363 15.8333 24.7029 17.5C26.6029 19.1667 27.5529 21.55 27.5529 24.65C27.5529 26.85 26.9529 28.7667 25.7529 30.4C24.5863 32.0333 22.9529 33.3 20.8529 34.2C18.7863 35.0667 16.4363 35.5 13.8029 35.5Z" fill="url(#paint0_linear_59_15)"/>
<defs>
<linearGradient id="paint0_linear_59_15" x1="8.8" y1="-12" x2="19.4983" y2="-11.7416" gradientUnits="userSpaceOnUse">
<stop stop-color="#F2B236"/>
<stop offset="1" stop-color="#FF9C1A"/>
</linearGradient>
</defs>
</svg>
