<svg width="41" height="28" viewBox="0 0 41 28" fill="none" xmlns="http://www.w3.org/2000/svg">
<path d="M9.08 26.36C7.4 26.36 5.936 26.048 4.688 25.424C3.464 24.776 2.516 23.948 1.844 22.94C1.196 21.932 0.848 20.852 0.8 19.7V19.628C0.8 19.436 0.86 19.292 0.98 19.196C1.124 19.076 1.304 19.016 1.52 19.016H2.204C2.444 19.016 2.636 19.076 2.78 19.196C2.924 19.292 3.032 19.508 3.104 19.844C3.464 21.308 4.196 22.4 5.3 23.12C6.404 23.84 7.664 24.2 9.08 24.2C10.928 24.2 12.452 23.648 13.652 22.544C14.876 21.44 15.488 19.904 15.488 17.936C15.488 16.736 15.2 15.692 14.624 14.804C14.072 13.916 13.304 13.232 12.32 12.752C11.336 12.272 10.256 12.032 9.08 12.032C8.12 12.032 7.34 12.164 6.74 12.428C6.164 12.668 5.576 13.004 4.976 13.436C4.616 13.7 4.316 13.892 4.076 14.012C3.86 14.132 3.62 14.192 3.356 14.192H2.708C2.492 14.192 2.3 14.12 2.132 13.976C1.964 13.808 1.892 13.616 1.916 13.4L2.996 1.628C3.02 1.364 3.092 1.16 3.212 1.016C3.356 0.871999 3.548 0.799998 3.788 0.799998H15.524C15.764 0.799998 15.956 0.871999 16.1 1.016C16.244 1.16 16.316 1.352 16.316 1.592V2.168C16.316 2.408 16.244 2.6 16.1 2.744C15.956 2.888 15.764 2.96 15.524 2.96H5.192L4.436 11.096C5.708 10.28 7.256 9.872 9.08 9.872C10.712 9.872 12.176 10.184 13.472 10.808C14.792 11.432 15.836 12.356 16.604 13.58C17.372 14.78 17.756 16.232 17.756 17.936C17.756 19.736 17.372 21.272 16.604 22.544C15.836 23.816 14.792 24.776 13.472 25.424C12.176 26.048 10.712 26.36 9.08 26.36ZM20.5886 27.764C20.4766 27.764 20.3786 27.722 20.2946 27.638C20.2106 27.554 20.1686 27.456 20.1686 27.344C20.1686 27.288 20.1896 27.204 20.2316 27.092L27.4556 9.809C27.4836 9.739 27.5326 9.669 27.6026 9.599C27.6866 9.529 27.7916 9.494 27.9176 9.494H28.2746C28.3866 9.494 28.4846 9.536 28.5686 9.62C28.6526 9.704 28.6946 9.802 28.6946 9.914C28.6946 9.97 28.6736 10.054 28.6316 10.166L21.4076 27.449C21.3796 27.519 21.3236 27.589 21.2396 27.659C21.1696 27.729 21.0716 27.764 20.9456 27.764H20.5886ZM35.1202 26.21C34.1402 26.21 33.2862 26.028 32.5582 25.664C31.8442 25.286 31.2912 24.803 30.8992 24.215C30.5212 23.627 30.3182 22.997 30.2902 22.325V22.283C30.2902 22.171 30.3252 22.087 30.3952 22.031C30.4792 21.961 30.5842 21.926 30.7102 21.926H31.1092C31.2492 21.926 31.3612 21.961 31.4452 22.031C31.5292 22.087 31.5922 22.213 31.6342 22.409C31.8442 23.263 32.2712 23.9 32.9152 24.32C33.5592 24.74 34.2942 24.95 35.1202 24.95C36.1982 24.95 37.0872 24.628 37.7872 23.984C38.5012 23.34 38.8582 22.444 38.8582 21.296C38.8582 20.596 38.6902 19.987 38.3542 19.469C38.0322 18.951 37.5842 18.552 37.0102 18.272C36.4362 17.992 35.8062 17.852 35.1202 17.852C34.5602 17.852 34.1052 17.929 33.7552 18.083C33.4192 18.223 33.0762 18.419 32.7262 18.671C32.5162 18.825 32.3412 18.937 32.2012 19.007C32.0752 19.077 31.9352 19.112 31.7812 19.112H31.4032C31.2772 19.112 31.1652 19.07 31.0672 18.986C30.9692 18.888 30.9272 18.776 30.9412 18.65L31.5712 11.783C31.5852 11.629 31.6272 11.51 31.6972 11.426C31.7812 11.342 31.8932 11.3 32.0332 11.3H38.8792C39.0192 11.3 39.1312 11.342 39.2152 11.426C39.2992 11.51 39.3412 11.622 39.3412 11.762V12.098C39.3412 12.238 39.2992 12.35 39.2152 12.434C39.1312 12.518 39.0192 12.56 38.8792 12.56H32.8522L32.4112 17.306C33.1532 16.83 34.0562 16.592 35.1202 16.592C36.0722 16.592 36.9262 16.774 37.6822 17.138C38.4522 17.502 39.0612 18.041 39.5092 18.755C39.9572 19.455 40.1812 20.302 40.1812 21.296C40.1812 22.346 39.9572 23.242 39.5092 23.984C39.0612 24.726 38.4522 25.286 37.6822 25.664C36.9262 26.028 36.0722 26.21 35.1202 26.21Z" fill="#F2B236"/>
</svg>
