<svg width="208" height="46" viewBox="0 0 208 46" fill="none" xmlns="http://www.w3.org/2000/svg">
<g filter="url(#filter0_d_134_713)">
<rect x="4" y="0.857422" width="37.1428" height="37.1428" rx="12" fill="#90C1BF"/>
<path d="M22.5718 12.5716C21.2156 12.5716 19.8899 12.9738 18.7622 13.7273C17.6346 14.4807 16.7557 15.5517 16.2367 16.8047C15.7177 18.0576 15.5819 19.4364 15.8465 20.7665C16.111 22.0967 16.7641 23.3185 17.7231 24.2775C18.6821 25.2365 19.9039 25.8896 21.2341 26.1541C22.5642 26.4187 23.943 26.2829 25.1959 25.7639C26.4489 25.2449 27.5199 24.366 28.2733 23.2384C29.0268 22.1107 29.429 20.785 29.429 19.4288C29.4269 17.6108 28.7038 15.8678 27.4183 14.5823C26.1328 13.2968 24.3898 12.5737 22.5718 12.5716ZM22.5718 24.0002C21.6677 24.0002 20.7839 23.7321 20.0321 23.2298C19.2803 22.7275 18.6944 22.0135 18.3484 21.1782C18.0024 20.3429 17.9119 19.4237 18.0882 18.5369C18.2646 17.6502 18.7 16.8356 19.3393 16.1963C19.9787 15.557 20.7932 15.1216 21.68 14.9452C22.5668 14.7688 23.4859 14.8593 24.3212 15.2053C25.1566 15.5513 25.8705 16.1373 26.3728 16.889C26.8751 17.6408 27.1433 18.5246 27.1433 19.4288C27.1419 20.6408 26.6598 21.8027 25.8028 22.6597C24.9458 23.5168 23.7838 23.9988 22.5718 24.0002ZM28.8575 5.14307H16.2861C14.1651 5.14549 12.1317 5.98912 10.6319 7.48888C9.13218 8.98865 8.28855 11.0221 8.28613 13.1431V25.7145C8.28855 27.8355 9.13218 29.8689 10.6319 31.3686C12.1317 32.8684 14.1651 33.712 16.2861 33.7145H28.8575C30.9785 33.712 33.0119 32.8684 34.5117 31.3686C36.0115 29.8689 36.8551 27.8355 36.8575 25.7145V13.1431C36.8551 11.0221 36.0115 8.98865 34.5117 7.48888C33.0119 5.98912 30.9785 5.14549 28.8575 5.14307ZM34.5718 25.7145C34.5701 27.2295 33.9675 28.6819 32.8963 29.7532C31.825 30.8245 30.3725 31.4271 28.8575 31.4288H16.2861C14.7711 31.4271 13.3187 30.8245 12.2474 29.7532C11.1761 28.6819 10.5735 27.2295 10.5718 25.7145V13.1431C10.5735 11.6281 11.1761 10.1756 12.2474 9.10433C13.3187 8.03306 14.7711 7.43048 16.2861 7.42878H28.8575C30.3725 7.43048 31.825 8.03306 32.8963 9.10433C33.9675 10.1756 34.5701 11.6281 34.5718 13.1431V25.7145ZM31.7147 12.0002C31.7147 12.3393 31.6141 12.6707 31.4258 12.9526C31.2374 13.2345 30.9697 13.4542 30.6564 13.584C30.3432 13.7137 29.9985 13.7477 29.666 13.6815C29.3334 13.6154 29.028 13.4521 28.7882 13.2124C28.5485 12.9726 28.3852 12.6672 28.3191 12.3346C28.2529 12.0021 28.2869 11.6574 28.4166 11.3442C28.5464 11.0309 28.7661 10.7632 29.048 10.5748C29.3299 10.3865 29.6613 10.2859 30.0004 10.2859C30.4551 10.2859 30.8911 10.4665 31.2126 10.788C31.5341 11.1095 31.7147 11.5455 31.7147 12.0002Z" fill="white"/>
</g>
<g filter="url(#filter1_d_134_713)">
<rect x="112.571" y="0.857422" width="37.1428" height="37.1428" rx="12" fill="#90C1BF"/>
</g>
<g clip-path="url(#clip0_134_713)">
<path d="M130.427 5.86195C128.135 5.88962 123.205 6.26641 120.448 8.79587C118.397 10.828 117.681 13.8325 117.597 17.5476C117.527 21.2494 117.443 28.2012 124.144 30.0941V32.9771C124.144 32.9771 124.102 34.1307 124.865 34.3673C125.804 34.6646 126.339 33.7771 127.232 32.8235L128.897 30.9405C133.482 31.3217 136.993 30.4432 137.398 30.3128C138.328 30.0155 143.568 29.3458 144.425 22.3932C145.303 15.2128 143.997 10.6887 141.639 8.6423H141.625C140.913 7.98694 138.053 5.90302 131.664 5.8798C131.664 5.8798 131.19 5.84766 130.427 5.86105V5.86195ZM130.506 7.88069C131.157 7.87623 131.552 7.90391 131.552 7.90391C136.96 7.91819 139.542 9.54587 140.151 10.0941C142.136 11.7959 143.16 15.8744 142.41 21.8691C141.699 27.6816 137.449 28.0494 136.662 28.3003C136.327 28.4075 133.235 29.17 129.338 28.9191C129.338 28.9191 126.436 32.4208 125.529 33.3226C125.385 33.4807 125.218 33.5271 125.11 33.5039C124.957 33.4664 124.91 33.2762 124.919 33.0155L124.947 28.2307C119.264 26.6592 119.599 20.7298 119.66 17.6325C119.729 14.5352 120.31 12.0012 122.041 10.2852C124.37 8.17891 128.556 7.89498 130.504 7.88069H130.506ZM130.935 10.9771C130.888 10.9766 130.841 10.9854 130.798 11.003C130.755 11.0205 130.715 11.0465 130.682 11.0794C130.649 11.1122 130.622 11.1514 130.604 11.1945C130.586 11.2376 130.577 11.2839 130.577 11.3307C130.577 11.5307 130.739 11.6887 130.935 11.6887C131.82 11.6719 132.7 11.8305 133.523 12.1554C134.347 12.4802 135.098 12.965 135.734 13.5816C137.031 14.8414 137.663 16.5343 137.687 18.7476C137.687 18.9432 137.845 19.1057 138.045 19.1057V19.0914C138.14 19.0916 138.23 19.0546 138.297 18.9884C138.364 18.9221 138.402 18.8321 138.403 18.7378C138.447 17.696 138.278 16.6562 137.907 15.6817C137.536 14.7072 136.97 13.8183 136.245 13.0691C134.832 11.6878 133.041 10.9762 130.935 10.9762V10.9771ZM126.228 11.7959C125.976 11.7589 125.718 11.8097 125.498 11.9396H125.479C124.969 12.2388 124.509 12.617 124.117 13.0602C123.791 13.4369 123.614 13.8182 123.568 14.1852C123.54 14.4039 123.559 14.6227 123.624 14.8316L123.647 14.8459C124.014 15.9244 124.493 16.9619 125.079 17.9387C125.834 19.311 126.762 20.5801 127.842 21.7146L127.874 21.761L127.925 21.7985L127.957 21.836L127.994 21.8682C129.133 22.9508 130.405 23.8837 131.78 24.6441C133.352 25.4994 134.305 25.9039 134.877 26.0717V26.0807C135.045 26.1316 135.198 26.1548 135.352 26.1548C135.839 26.119 136.301 25.921 136.663 25.5923C137.104 25.2 137.478 24.7383 137.77 24.2253V24.2164C138.044 23.7003 137.952 23.2119 137.556 22.8816C136.764 22.1892 135.907 21.5742 134.998 21.045C134.389 20.7146 133.77 20.9146 133.519 21.2494L132.985 21.9235C132.71 22.2584 132.212 22.2119 132.212 22.2119L132.198 22.2209C128.483 21.2718 127.492 17.5101 127.492 17.5101C127.492 17.5101 127.445 16.9985 127.789 16.7378L128.459 16.1985C128.779 15.9378 129.002 15.32 128.659 14.7102C128.133 13.7996 127.519 12.9428 126.827 12.1521C126.675 11.9657 126.462 11.8389 126.227 11.7941L126.228 11.7959ZM131.552 12.8566C131.078 12.8566 131.078 13.5727 131.557 13.5727C132.146 13.5822 132.728 13.7079 133.269 13.9424C133.81 14.177 134.3 14.5158 134.71 14.9396C135.083 15.3521 135.371 15.8355 135.555 16.3611C135.738 16.8867 135.815 17.4438 135.779 17.9994C135.781 18.0935 135.819 18.1831 135.886 18.2492C135.953 18.3153 136.043 18.3526 136.137 18.353L136.152 18.3718C136.246 18.3711 136.337 18.3331 136.404 18.2661C136.471 18.1991 136.509 18.1085 136.51 18.0137C136.542 16.595 136.101 15.4048 135.235 14.4512C134.366 13.4977 133.152 12.9628 131.603 12.8566H131.552ZM132.139 14.7816C131.651 14.7673 131.632 15.4976 132.116 15.5119C133.293 15.5726 133.864 16.1673 133.939 17.3905C133.941 17.4834 133.979 17.5719 134.045 17.6371C134.111 17.7024 134.2 17.7392 134.293 17.7396H134.307C134.355 17.7376 134.401 17.726 134.445 17.7057C134.488 17.6853 134.527 17.6566 134.559 17.6211C134.591 17.5856 134.615 17.5441 134.631 17.499C134.647 17.4539 134.654 17.4061 134.651 17.3584C134.567 15.7637 133.697 14.8655 132.153 14.7825H132.139V14.7816Z" fill="white"/>
</g>
<g filter="url(#filter2_d_134_713)">
<rect x="166.857" y="0.857422" width="37.1428" height="37.1428" rx="12" fill="#90C1BF"/>
</g>
<path d="M195.739 8.86332L171.696 18.0759C170.055 18.7308 170.064 19.6403 171.395 20.0459L177.567 21.9593L191.85 13.0054C192.525 12.5971 193.142 12.8168 192.635 13.2641L181.063 23.6409H181.061L181.063 23.6422L180.638 29.9645C181.261 29.9645 181.537 29.6802 181.887 29.3447L184.885 26.4477L191.121 31.025C192.271 31.6542 193.097 31.3308 193.383 29.9672L197.477 10.7956C197.896 9.12608 196.836 8.37016 195.739 8.86332Z" fill="white"/>
<g filter="url(#filter3_d_134_713)">
<rect x="58.2856" y="0.857422" width="37.1428" height="37.1428" rx="12" fill="#90C1BF"/>
</g>
<path fill-rule="evenodd" clip-rule="evenodd" d="M86.4742 9.2957C85.2222 7.97546 83.7326 6.92861 82.0917 6.2158C80.4507 5.50298 78.6911 5.13838 76.9147 5.14311C69.4659 5.14311 63.4021 11.4942 63.399 19.301C63.399 21.7961 64.0208 24.2312 65.2025 26.3792L63.2861 33.7145L70.4504 31.7446C72.4322 32.8748 74.6524 33.4674 76.9087 33.4684H76.9147C84.3621 33.4684 90.4259 27.1173 90.4289 19.3105C90.434 17.4502 90.0872 15.6074 89.4083 13.8884C88.7295 12.1694 87.7323 10.6085 86.4742 9.2957ZM76.9147 31.0791H76.9102C74.8982 31.0793 72.9233 30.5122 71.1926 29.4373L70.7831 29.1818L66.5318 30.3504L67.6654 26.0086L67.3989 25.5638C66.2741 23.6877 65.6786 21.5166 65.6813 19.301C65.6843 12.8127 70.7229 7.53405 76.9192 7.53405C78.3949 7.53061 79.8566 7.83383 81.2197 8.42615C82.5828 9.01848 83.8202 9.88814 84.8603 10.9848C85.906 12.0763 86.7349 13.374 87.299 14.8031C87.863 16.2321 88.1512 17.7641 88.1467 19.3105C88.1437 25.7988 83.105 31.0791 76.9147 31.0791ZM83.0764 22.2645C82.7377 22.0863 81.0787 21.2315 80.7686 21.1132C80.46 20.9949 80.2357 20.9365 80.0099 21.2898C79.7841 21.6431 79.1367 22.4395 78.9395 22.6761C78.7423 22.9127 78.5451 22.9411 78.2079 22.7644C77.8707 22.5878 76.7822 22.214 75.4921 21.0091C74.488 20.0707 73.8105 18.9131 73.6133 18.5582C73.4161 18.2034 73.5923 18.0125 73.7624 17.8359C73.9144 17.6782 74.0996 17.4227 74.2682 17.2161C74.4368 17.0095 74.4925 16.8628 74.6054 16.6262C74.7183 16.3897 74.6626 16.183 74.5768 16.0064C74.4925 15.8282 73.8166 14.087 73.5351 13.3789C73.2626 12.6929 72.9841 12.7843 72.7763 12.7749C72.5612 12.7656 72.3458 12.7614 72.1305 12.7622C71.9593 12.7668 71.7908 12.8084 71.6356 12.8844C71.4804 12.9604 71.3419 13.0691 71.2287 13.2038C70.9186 13.5587 70.047 14.4135 70.047 16.1547C70.047 17.8958 71.2573 19.5786 71.426 19.8152C71.5946 20.0518 73.8075 23.624 77.1947 25.1569C78.0016 25.5213 78.6309 25.7389 79.1202 25.9029C79.9286 26.1726 80.6647 26.1332 81.2473 26.0433C81.8962 25.9424 83.245 25.1885 83.5265 24.3621C83.8081 23.5356 83.8081 22.8275 83.7238 22.6793C83.6394 22.531 83.4121 22.4411 83.0764 22.2645Z" fill="white"/>
<defs>
<filter id="filter0_d_134_713" x="0" y="0.857422" width="45.1426" height="45.1428" filterUnits="userSpaceOnUse" color-interpolation-filters="sRGB">
<feFlood flood-opacity="0" result="BackgroundImageFix"/>
<feColorMatrix in="SourceAlpha" type="matrix" values="0 0 0 0 0 0 0 0 0 0 0 0 0 0 0 0 0 0 127 0" result="hardAlpha"/>
<feOffset dy="4"/>
<feGaussianBlur stdDeviation="2"/>
<feColorMatrix type="matrix" values="0 0 0 0 0 0 0 0 0 0 0 0 0 0 0 0 0 0 0.17 0"/>
<feBlend mode="normal" in2="BackgroundImageFix" result="effect1_dropShadow_134_713"/>
<feBlend mode="normal" in="SourceGraphic" in2="effect1_dropShadow_134_713" result="shape"/>
</filter>
<filter id="filter1_d_134_713" x="108.571" y="0.857422" width="45.1426" height="45.1428" filterUnits="userSpaceOnUse" color-interpolation-filters="sRGB">
<feFlood flood-opacity="0" result="BackgroundImageFix"/>
<feColorMatrix in="SourceAlpha" type="matrix" values="0 0 0 0 0 0 0 0 0 0 0 0 0 0 0 0 0 0 127 0" result="hardAlpha"/>
<feOffset dy="4"/>
<feGaussianBlur stdDeviation="2"/>
<feColorMatrix type="matrix" values="0 0 0 0 0 0 0 0 0 0 0 0 0 0 0 0 0 0 0.17 0"/>
<feBlend mode="normal" in2="BackgroundImageFix" result="effect1_dropShadow_134_713"/>
<feBlend mode="normal" in="SourceGraphic" in2="effect1_dropShadow_134_713" result="shape"/>
</filter>
<filter id="filter2_d_134_713" x="162.857" y="0.857422" width="45.1426" height="45.1428" filterUnits="userSpaceOnUse" color-interpolation-filters="sRGB">
<feFlood flood-opacity="0" result="BackgroundImageFix"/>
<feColorMatrix in="SourceAlpha" type="matrix" values="0 0 0 0 0 0 0 0 0 0 0 0 0 0 0 0 0 0 127 0" result="hardAlpha"/>
<feOffset dy="4"/>
<feGaussianBlur stdDeviation="2"/>
<feColorMatrix type="matrix" values="0 0 0 0 0 0 0 0 0 0 0 0 0 0 0 0 0 0 0.17 0"/>
<feBlend mode="normal" in2="BackgroundImageFix" result="effect1_dropShadow_134_713"/>
<feBlend mode="normal" in="SourceGraphic" in2="effect1_dropShadow_134_713" result="shape"/>
</filter>
<filter id="filter3_d_134_713" x="54.2856" y="0.857422" width="45.1426" height="45.1428" filterUnits="userSpaceOnUse" color-interpolation-filters="sRGB">
<feFlood flood-opacity="0" result="BackgroundImageFix"/>
<feColorMatrix in="SourceAlpha" type="matrix" values="0 0 0 0 0 0 0 0 0 0 0 0 0 0 0 0 0 0 127 0" result="hardAlpha"/>
<feOffset dy="4"/>
<feGaussianBlur stdDeviation="2"/>
<feColorMatrix type="matrix" values="0 0 0 0 0 0 0 0 0 0 0 0 0 0 0 0 0 0 0.17 0"/>
<feBlend mode="normal" in2="BackgroundImageFix" result="effect1_dropShadow_134_713"/>
<feBlend mode="normal" in="SourceGraphic" in2="effect1_dropShadow_134_713" result="shape"/>
</filter>
<clipPath id="clip0_134_713">
<rect width="28.5714" height="28.5714" fill="white" transform="translate(116.857 5.85742)"/>
</clipPath>
</defs>
</svg>
