<svg width="46" height="46" viewBox="0 0 46 46" fill="none" xmlns="http://www.w3.org/2000/svg">
<path d="M37.2603 24.9169C36.8386 24.9169 36.3978 24.7828 35.9762 24.6869C35.1222 24.4988 34.2831 24.249 33.4653 23.9394C32.5761 23.616 31.5988 23.6328 30.7212 23.9866C29.8437 24.3404 29.1281 25.0063 28.712 25.8561L28.2903 26.7186C26.4235 25.6801 24.708 24.3903 23.192 22.8853C21.687 21.3692 20.3971 19.6538 19.3586 17.7869L20.1636 17.2503C21.0134 16.8342 21.6793 16.1185 22.0332 15.241C22.387 14.3635 22.4038 13.3861 22.0803 12.4969C21.776 11.6774 21.5263 10.8386 21.3328 9.98611C21.237 9.56444 21.1603 9.12361 21.1028 8.68278C20.8701 7.33271 20.1629 6.11011 19.1088 5.23515C18.0546 4.36019 16.7226 3.89036 15.3528 3.91028H9.60282C8.77679 3.90252 7.95879 4.07284 7.20451 4.40963C6.45022 4.74642 5.77736 5.24178 5.23172 5.86198C4.68609 6.48219 4.28049 7.21268 4.04254 8.00373C3.80459 8.79478 3.73988 9.62781 3.85282 10.4461C4.8739 18.4758 8.54104 25.9364 14.275 31.6495C20.0089 37.3626 27.4828 41.0026 35.5161 41.9944H36.2445C37.6579 41.9965 39.0225 41.478 40.0778 40.5378C40.6842 39.9954 41.1686 39.3306 41.499 38.5872C41.8294 37.8438 41.9982 37.0388 41.9945 36.2253V30.4753C41.971 29.1439 41.4862 27.862 40.6228 26.8483C39.7594 25.8346 38.571 25.152 37.2603 24.9169ZM38.2186 36.4169C38.2183 36.6891 38.16 36.958 38.0476 37.2059C37.9353 37.4537 37.7714 37.6748 37.567 37.8544C37.3528 38.0393 37.1024 38.1775 36.8317 38.26C36.5611 38.3425 36.2762 38.3676 35.9953 38.3336C28.8172 37.4132 22.1498 34.1294 17.0447 29C11.9396 23.8706 8.68743 17.1877 7.80115 10.0053C7.77064 9.72452 7.79738 9.44049 7.87974 9.17036C7.96209 8.90023 8.09837 8.64959 8.28032 8.43361C8.45993 8.22916 8.68102 8.0653 8.92887 7.95294C9.17673 7.84058 9.44568 7.78229 9.71782 7.78194H15.4678C15.9135 7.77203 16.3488 7.91779 16.6986 8.19416C17.0484 8.47053 17.291 8.8602 17.3845 9.29611C17.4611 9.82 17.557 10.3375 17.672 10.8486C17.8934 11.859 18.1881 12.8519 18.5536 13.8194L15.8703 15.0653C15.6409 15.1705 15.4345 15.3201 15.263 15.5053C15.0916 15.6906 14.9584 15.9079 14.8711 16.1447C14.7838 16.3816 14.7442 16.6334 14.7545 16.8856C14.7648 17.1378 14.8249 17.3855 14.9311 17.6144C17.6896 23.5231 22.4392 28.2726 28.3478 31.0311C28.8144 31.2228 29.3378 31.2228 29.8045 31.0311C30.0435 30.9456 30.2632 30.8135 30.4507 30.6424C30.6383 30.4713 30.79 30.2646 30.897 30.0344L32.0853 27.3511C33.0762 27.7055 34.0874 27.9999 35.1136 28.2328C35.6248 28.3478 36.1423 28.4436 36.6661 28.5203C37.1021 28.6138 37.4917 28.8563 37.7681 29.2062C38.0445 29.556 38.1902 29.9912 38.1803 30.4369L38.2186 36.4169Z" fill="#90C1BF"/>
</svg>
