<svg width="39" height="48" viewBox="0 0 39 48" fill="none" xmlns="http://www.w3.org/2000/svg">
<path d="M11.9951 15.8396L11.9908 15.8417L11.9844 15.8459L11.9951 15.8396ZM33.1473 15.4422C32.9995 15.2996 32.8354 15.1747 32.6586 15.0703C32.4081 14.9229 32.1301 14.8284 31.8418 14.7926C31.5534 14.7569 31.2607 14.7807 30.9819 14.8626C30.703 14.9444 30.444 15.0826 30.2207 15.2685C29.9973 15.4545 29.8145 15.6843 29.6836 15.9437C28.9517 17.3864 27.9421 18.6704 26.7128 19.7219C26.9013 18.6627 26.9966 17.589 26.9976 16.5132C27.0016 13.241 26.1385 10.0261 24.4961 7.19597C22.8537 4.3658 20.4906 2.02139 17.6476 0.401435C17.3343 0.223421 16.9808 0.128001 16.6205 0.124145C16.2602 0.120289 15.9048 0.208124 15.5878 0.379392C15.2707 0.55066 15.0025 0.799737 14.8082 1.10321C14.6139 1.40668 14.4999 1.75457 14.4771 2.11419C14.3581 4.1289 13.8314 6.09849 12.9288 7.90364C12.0262 9.70879 10.7666 11.3119 9.22618 12.6159L8.73743 13.0133C7.12586 14.0976 5.69943 15.4343 4.51293 16.9722C2.66902 19.295 1.39171 22.0156 0.782317 24.9181C0.172924 27.8206 0.24821 30.8251 1.0022 33.6934C1.7562 36.5617 3.16816 39.2149 5.1261 41.4425C7.08403 43.6701 9.53409 45.4109 12.2819 46.5267C12.6045 46.658 12.9545 46.708 13.301 46.6723C13.6475 46.6366 13.9798 46.5162 14.2689 46.3218C14.5579 46.1275 14.7947 45.865 14.9585 45.5576C15.1223 45.2502 15.208 44.9072 15.2081 44.5589C15.2063 44.3338 15.1705 44.1103 15.1018 43.8959C14.6264 42.1089 14.4894 40.2487 14.6981 38.4113C16.7093 42.2035 19.9373 45.2093 23.8632 46.9453C24.3422 47.1594 24.8836 47.1882 25.3826 47.0261C28.4839 46.0249 31.2778 44.2473 33.4988 41.8623C35.7198 39.4773 37.2941 36.5641 38.0721 33.3993C38.8501 30.2346 38.8061 26.9235 37.9441 23.7805C37.0822 20.6376 35.431 17.7673 33.1473 15.4422ZM24.8492 42.7081C22.9968 41.7694 21.3627 40.4515 20.0531 38.8399C18.7435 37.2282 17.7878 35.359 17.2481 33.3538C17.083 32.6785 16.9553 31.9946 16.8656 31.3053C16.8051 30.8663 16.6089 30.4573 16.3045 30.1353C16 29.8133 15.6026 29.5946 15.1677 29.5097C15.034 29.4837 14.898 29.4709 14.7618 29.4714C14.3884 29.4711 14.0216 29.5691 13.6981 29.7556C13.3747 29.9421 13.1061 30.2106 12.9194 30.5339C11.1566 33.5753 10.2704 37.0454 10.3588 40.5597C8.80789 39.3542 7.51168 37.8528 6.54532 36.1426C5.57895 34.4324 4.96165 32.5475 4.7292 30.5969C4.49675 28.6464 4.65377 26.6691 5.19116 24.7797C5.72856 22.8903 6.63563 21.1264 7.85981 19.5902C8.78932 18.3828 9.91063 17.3362 11.1791 16.4919C11.2346 16.4563 11.2878 16.4173 11.3384 16.3751C11.3384 16.3751 11.9674 15.8544 11.9887 15.8438C15.0172 13.2833 17.1715 9.84168 18.1512 5.99868C20.4662 8.13934 22.0097 10.9845 22.5419 14.0923C23.0741 17.2001 22.5652 20.3967 21.0943 23.1857C20.8997 23.5579 20.8197 23.9795 20.8645 24.3972C20.9094 24.8149 21.077 25.2099 21.3462 25.5324C21.6155 25.8548 21.9743 26.0902 22.3772 26.2089C22.7802 26.3275 23.2093 26.324 23.6103 26.1989C26.8652 25.1781 29.7293 23.1847 31.8171 20.4869C33.0723 22.3404 33.893 24.4533 34.218 26.6681C34.543 28.883 34.364 31.1426 33.6942 33.2786C33.0244 35.4146 31.8812 37.3718 30.3497 39.0045C28.8182 40.6372 26.938 41.9032 24.8492 42.7081Z" fill="url(#paint0_linear_81_412)"/>
<defs>
<linearGradient id="paint0_linear_81_412" x1="19.4999" y1="0.124023" x2="19.4999" y2="47.1298" gradientUnits="userSpaceOnUse">
<stop stop-color="white"/>
<stop offset="1" stop-color="#FFD88C"/>
</linearGradient>
</defs>
</svg>
