<svg width="121" height="121" viewBox="0 0 121 121" fill="none" xmlns="http://www.w3.org/2000/svg">
<path d="M3.97856 108.55C13.0938 106.626 18.8396 101.04 18.8396 101.04H37.1494V113.789L29.9381 121H7.7956C5.14614 119.818 3.00526 117.769 1.37802 115.707C-0.669577 113.112 0.744098 109.233 3.97856 108.55Z" fill="url(#paint0_linear_49_528)"/>
<path d="M119.999 79.6792C118.634 74.4887 117.371 66.3331 117.371 53.9224H103.662L88.4707 87.6582L95.77 102.434C101.234 102.434 105.658 101.608 109.229 100.348C117.663 97.3722 122.274 88.3285 119.999 79.6792Z" fill="url(#paint1_linear_49_528)"/>
<path d="M63.4458 107.845C33.7113 107.845 9.52051 83.6553 9.52051 53.9224C9.52051 24.1894 33.7116 0 63.4458 0C93.18 0 117.371 24.1896 117.371 53.9224L63.4458 107.845Z" fill="url(#paint2_linear_49_528)"/>
<path d="M103.663 121C103.663 100.861 88.4709 87.6581 88.4709 87.6581L40.2353 91.5831C36.1567 90.0986 32.3683 88.3684 29.1264 86.7101C28.538 86.4122 27.9721 86.1143 27.4235 85.8214C25.6733 84.8855 24.117 83.9968 22.8011 83.2148L11.9692 89.5107L10.2822 100.778C12.2705 101.999 14.8301 103.494 17.8312 105.075C21.5996 107.061 26.0703 109.181 30.993 111.073C30.34 114.099 29.938 117.418 29.938 121H103.663Z" fill="url(#paint3_linear_49_528)"/>
<path d="M18.8401 66.2031C25.623 66.2031 31.1216 60.7045 31.1216 53.9216C31.1216 47.1388 25.623 41.6401 18.8401 41.6401C12.0572 41.6401 6.55859 47.1388 6.55859 53.9216C6.55859 60.7045 12.0572 66.2031 18.8401 66.2031Z" fill="url(#paint4_radial_49_528)"/>
<path d="M108.051 66.2031C114.834 66.2031 120.333 60.7045 120.333 53.9216C120.333 47.1388 114.834 41.6401 108.051 41.6401C101.268 41.6401 95.7695 47.1388 95.7695 53.9216C95.7695 60.7045 101.268 66.2031 108.051 66.2031Z" fill="url(#paint5_radial_49_528)"/>
<path d="M49.1074 96.9473C53.4909 92.5639 59.5105 91.1083 64.1649 92.8628C65.9192 97.5174 64.4638 103.537 60.0803 107.92C56.3395 111.661 51.4072 113.27 47.1485 112.57C45.764 112.343 44.6847 111.264 44.4574 109.879C43.7581 105.621 45.3666 100.688 49.1074 96.9473Z" fill="url(#paint6_linear_49_528)"/>
<path d="M64.1648 92.8628C65.919 97.5175 64.4637 103.537 60.0802 107.92C58.6557 109.345 57.0578 110.458 55.3908 111.254C52.0243 108.774 49.835 104.784 49.835 100.292V96.2622C54.1403 92.4174 59.7627 91.2035 64.1648 92.8628Z" fill="#8959C3"/>
<path d="M62.7269 92.8627C67.3816 91.1084 73.4009 92.5638 77.7844 96.9472C81.5593 100.722 83.1629 105.71 82.415 109.995C82.1884 111.293 81.1577 112.324 79.8597 112.55C75.5748 113.298 70.5866 111.695 66.8117 107.92C62.428 103.537 60.9726 97.5173 62.7269 92.8627Z" fill="url(#paint7_linear_49_528)"/>
<path d="M62.7269 92.8628C60.9727 97.5175 62.428 103.537 66.8115 107.92C68.236 109.345 69.8338 110.458 71.5008 111.254C74.8674 108.774 77.0567 104.784 77.0567 100.292V96.2622C72.7516 92.4174 67.1292 91.2035 62.7269 92.8628Z" fill="#8959C3"/>
<path d="M70.7731 94.4609V100.292C70.7731 104.338 67.4929 107.619 63.4461 107.619C59.3996 107.619 56.1191 104.339 56.1191 100.292V94.4609H70.7731Z" fill="url(#paint8_linear_49_528)"/>
<path d="M103.004 33.2908C101.69 30.7788 98.9498 29.3376 96.1456 29.7503C92.6884 30.2591 89.1129 30.5264 85.4528 30.5264C69.7216 30.5264 55.5539 25.5975 45.6327 17.7221C43.3132 15.8808 40.0527 15.823 37.6385 17.5382C26.2621 25.6216 18.8398 38.906 18.8398 53.9223C18.8398 78.5545 38.8113 98.526 63.4462 98.526C88.081 98.526 108.053 78.5545 108.053 53.9223C108.053 46.4786 106.229 39.4606 103.004 33.2908Z" fill="url(#paint9_linear_49_528)"/>
<path d="M90.9141 19.6956C89.1061 18.1412 86.9664 16.7046 84.5536 15.4261C83.3246 14.7748 82.8562 13.2505 83.5075 12.0215C84.1588 10.7925 85.6821 10.3239 86.9121 10.9754C89.6551 12.4291 92.1067 14.078 94.1979 15.8764C95.2525 16.7832 95.3723 18.3735 94.4655 19.428C93.5621 20.479 91.9722 20.6055 90.9141 19.6956Z" fill="#FDE7CA"/>
<path d="M75.8113 11.7822C74.5514 11.3946 73.2621 11.0668 71.9788 10.8077C70.6152 10.5324 69.733 9.20406 70.0083 7.84052C70.2836 6.47698 71.6114 5.59503 72.9755 5.87005C74.4214 6.16195 75.8739 6.53121 77.2924 6.96773C78.622 7.37677 79.368 8.7861 78.9589 10.1157C78.5509 11.4418 77.1427 12.1922 75.8113 11.7822Z" fill="#FDE7CA"/>
<path d="M5.64035 97.7469C5.87367 97.9132 7.532 99.0873 10.2825 100.778L22.8014 83.2146C19.9044 81.4869 18.1766 80.273 18.1246 80.2356C13.2937 76.7975 6.58617 77.9195 3.14057 82.748C-0.310104 87.5815 0.809508 94.2965 5.64035 97.7469Z" fill="url(#paint10_linear_49_528)"/>
<path d="M93.523 67.8805C96.3462 67.8805 98.6349 66.0413 98.6349 63.7725C98.6349 61.5038 96.3462 59.6646 93.523 59.6646C90.6998 59.6646 88.4111 61.5038 88.4111 63.7725C88.4111 66.0413 90.6998 67.8805 93.523 67.8805Z" fill="#FB99AC"/>
<path d="M33.3677 67.8805C36.191 67.8805 38.4796 66.0413 38.4796 63.7725C38.4796 61.5038 36.191 59.6646 33.3677 59.6646C30.5445 59.6646 28.2559 61.5038 28.2559 63.7725C28.2559 66.0413 30.5445 67.8805 33.3677 67.8805Z" fill="#FB99AC"/>
<path d="M84.7593 63.7726C90.3575 63.7726 94.8956 59.2344 94.8956 53.6363C94.8956 48.0382 90.3575 43.5 84.7593 43.5C79.1612 43.5 74.623 48.0382 74.623 53.6363C74.623 59.2344 79.1612 63.7726 84.7593 63.7726Z" fill="white"/>
<path d="M42.1314 63.7726C47.7295 63.7726 52.2677 59.2344 52.2677 53.6363C52.2677 48.0382 47.7295 43.5 42.1314 43.5C36.5333 43.5 31.9951 48.0382 31.9951 53.6363C31.9951 59.2344 36.5333 63.7726 42.1314 63.7726Z" fill="white"/>
<path d="M84.7591 59.6774C88.0956 59.6774 90.8004 56.9726 90.8004 53.636C90.8004 50.2995 88.0956 47.5947 84.7591 47.5947C81.4226 47.5947 78.7178 50.2995 78.7178 53.636C78.7178 56.9726 81.4226 59.6774 84.7591 59.6774Z" fill="#383842"/>
<path d="M42.1312 59.6774C45.4677 59.6774 48.1725 56.9726 48.1725 53.636C48.1725 50.2995 45.4677 47.5947 42.1312 47.5947C38.7946 47.5947 36.0898 50.2995 36.0898 53.636C36.0898 56.9726 38.7946 59.6774 42.1312 59.6774Z" fill="#383842"/>
<path d="M63.4452 63.5855C61.7715 63.5855 60.0977 62.9525 58.7325 61.6866C58.2444 61.2339 58.2155 60.4715 58.6682 59.9834C59.1208 59.4953 59.8835 59.4669 60.3713 59.9188C62.181 61.5969 64.7095 61.5974 66.5194 59.9188C67.0075 59.4669 67.7699 59.4951 68.2226 59.9834C68.675 60.4715 68.6463 61.2339 68.1582 61.6866C66.7927 62.9525 65.119 63.5855 63.4452 63.5855Z" fill="#383842"/>
<path d="M89.7533 107.619C90.7943 107.619 91.6385 108.463 91.6385 109.504V121H87.8682V109.504C87.8679 108.463 88.712 107.619 89.7533 107.619Z" fill="#FD75BE"/>
<defs>
<linearGradient id="paint0_linear_49_528" x1="0.421833" y1="111.02" x2="37.1494" y2="111.02" gradientUnits="userSpaceOnUse">
<stop stop-color="#A27CCF"/>
<stop offset="0.9777" stop-color="#8959C3"/>
</linearGradient>
<linearGradient id="paint1_linear_49_528" x1="88.4707" y1="78.178" x2="120.578" y2="78.178" gradientUnits="userSpaceOnUse">
<stop offset="0.000558036" stop-color="#F5AA3E"/>
<stop offset="0.9777" stop-color="#FAC986"/>
</linearGradient>
<linearGradient id="paint2_linear_49_528" x1="63.4458" y1="107.845" x2="63.4458" y2="0" gradientUnits="userSpaceOnUse">
<stop offset="0.000558036" stop-color="#F5AA3E"/>
<stop offset="0.9777" stop-color="#FAC986"/>
</linearGradient>
<linearGradient id="paint3_linear_49_528" x1="56.9726" y1="121" x2="56.9726" y2="83.2148" gradientUnits="userSpaceOnUse">
<stop offset="0.0212" stop-color="#FFB1DB"/>
<stop offset="1" stop-color="#FD86C8"/>
</linearGradient>
<radialGradient id="paint4_radial_49_528" cx="0" cy="0" r="1" gradientUnits="userSpaceOnUse" gradientTransform="translate(18.8401 53.9216) scale(12.2815 12.2815)">
<stop stop-color="#FDDACC"/>
<stop offset="0.9788" stop-color="#FDC8BB"/>
</radialGradient>
<radialGradient id="paint5_radial_49_528" cx="0" cy="0" r="1" gradientUnits="userSpaceOnUse" gradientTransform="translate(108.051 53.9216) scale(12.2815)">
<stop stop-color="#FDDACC"/>
<stop offset="0.9788" stop-color="#FDC8BB"/>
</radialGradient>
<linearGradient id="paint6_linear_49_528" x1="44.2978" y1="102.434" x2="64.89" y2="102.434" gradientUnits="userSpaceOnUse">
<stop offset="0.0223" stop-color="#8959C3"/>
<stop offset="1" stop-color="#A27CCF"/>
</linearGradient>
<linearGradient id="paint7_linear_49_528" x1="62.0019" y1="102.434" x2="82.594" y2="102.434" gradientUnits="userSpaceOnUse">
<stop stop-color="#A27CCF"/>
<stop offset="0.9777" stop-color="#8959C3"/>
</linearGradient>
<linearGradient id="paint8_linear_49_528" x1="63.4464" y1="107.619" x2="63.4464" y2="94.4609" gradientUnits="userSpaceOnUse">
<stop stop-color="#A27CCF"/>
<stop offset="0.9777" stop-color="#8959C3"/>
</linearGradient>
<linearGradient id="paint9_linear_49_528" x1="63.4462" y1="98.5262" x2="63.4462" y2="16.2949" gradientUnits="userSpaceOnUse">
<stop offset="0.0212" stop-color="#FDC8BB"/>
<stop offset="1" stop-color="#FDDACC"/>
</linearGradient>
<linearGradient id="paint10_linear_49_528" x1="1.1378" y1="89.5107" x2="22.8014" y2="89.5107" gradientUnits="userSpaceOnUse">
<stop offset="0.0212" stop-color="#FDC8BB"/>
<stop offset="1" stop-color="#FDDACC"/>
</linearGradient>
</defs>
</svg>
