<svg width="464" height="464" viewBox="0 0 464 464" fill="none" xmlns="http://www.w3.org/2000/svg">
<rect width="464" height="464" rx="10" fill="#90C1BF"/>
<path d="M56.2522 246.809C55.256 246.809 54.4093 246.461 53.712 245.763C53.0147 245.066 52.666 244.219 52.666 243.223V233.361C52.666 232.265 53.0147 231.419 53.712 230.821C54.4093 230.124 55.256 229.775 56.2522 229.775H102.125C103.221 229.775 104.068 230.124 104.665 230.821C105.363 231.419 105.711 232.265 105.711 233.361V243.223C105.711 244.219 105.363 245.066 104.665 245.763C104.068 246.461 103.221 246.809 102.125 246.809H56.2522Z" fill="#FAFAF9"/>
<path d="M151.767 283.119C150.77 283.119 149.924 282.77 149.226 282.073C148.529 281.376 148.18 280.529 148.18 279.533V202.131L125.468 219.614C124.87 220.112 124.173 220.361 123.376 220.361C122.181 220.361 121.185 219.813 120.388 218.717L114.112 210.649C113.614 209.852 113.365 209.105 113.365 208.407C113.365 207.212 113.913 206.216 115.008 205.419L148.479 179.568C149.376 178.871 150.621 178.523 152.215 178.523H165.364C166.46 178.523 167.307 178.871 167.904 179.568C168.602 180.166 168.95 181.013 168.95 182.109V279.533C168.95 280.529 168.602 281.376 167.904 282.073C167.307 282.77 166.46 283.119 165.364 283.119H151.767Z" fill="#FAFAF9"/>
<path d="M225.267 284.763C216.999 284.763 209.876 283.368 203.899 280.579C198.022 277.79 193.489 274.104 190.302 269.522C187.214 264.939 185.57 260.008 185.371 254.729V254.43C185.371 253.633 185.669 252.985 186.267 252.487C186.865 251.989 187.612 251.74 188.509 251.74H202.405C204.696 251.74 206.19 252.736 206.888 254.729C208.282 259.112 210.573 262.349 213.761 264.441C217.048 266.533 220.884 267.579 225.267 267.579C230.845 267.579 235.477 265.886 239.163 262.499C242.949 259.112 244.841 254.38 244.841 248.303C244.841 242.924 242.949 238.541 239.163 235.154C235.477 231.767 230.845 230.074 225.267 230.074C222.278 230.074 219.838 230.472 217.945 231.269C216.052 232.066 214.209 233.162 212.416 234.556C211.221 235.453 210.275 236.1 209.577 236.499C208.98 236.798 208.232 236.947 207.336 236.947H193.589C192.692 236.947 191.895 236.648 191.198 236.051C190.6 235.353 190.302 234.556 190.302 233.66L195.531 182.557C195.631 181.362 196.03 180.415 196.727 179.718C197.524 178.921 198.52 178.523 199.715 178.523H255.899C256.895 178.523 257.742 178.871 258.439 179.568C259.136 180.266 259.485 181.113 259.485 182.109V192.12C259.485 193.116 259.136 193.963 258.439 194.66C257.742 195.358 256.895 195.706 255.899 195.706H212.715L210.324 220.062C215.206 216.675 221.73 214.982 229.899 214.982C236.374 214.982 242.351 216.377 247.83 219.166C253.408 221.855 257.841 225.79 261.128 230.97C264.416 236.051 266.059 241.978 266.059 248.752C266.059 256.024 264.366 262.399 260.979 267.878C257.592 273.257 252.811 277.441 246.634 280.429C240.558 283.318 233.435 284.763 225.267 284.763Z" fill="#FAFAF9"/>
<path d="M300.893 231.12C294.318 231.12 289.038 229.376 285.054 225.89C281.169 222.403 279.027 217.672 278.629 211.695C278.529 210.001 278.479 207.76 278.479 204.971C278.479 201.982 278.529 199.591 278.629 197.798C279.027 191.622 281.119 186.741 284.904 183.155C288.69 179.568 294.019 177.775 300.893 177.775C307.766 177.775 313.096 179.568 316.881 183.155C320.766 186.741 322.858 191.622 323.157 197.798C323.356 201.783 323.456 204.373 323.456 205.568C323.456 206.664 323.356 208.706 323.157 211.695C322.858 217.672 320.716 222.403 316.732 225.89C312.847 229.376 307.567 231.12 300.893 231.12ZM288.64 283.119C287.743 283.119 286.996 282.87 286.399 282.372C285.801 281.774 285.502 281.027 285.502 280.131C285.502 279.533 285.701 278.985 286.1 278.487L359.766 181.362C360.563 180.365 361.31 179.668 362.007 179.27C362.704 178.772 363.651 178.523 364.846 178.523H372.766C373.762 178.523 374.509 178.821 375.007 179.419C375.605 179.917 375.903 180.614 375.903 181.511C375.903 182.109 375.704 182.657 375.306 183.155L301.64 280.28C300.843 281.276 300.096 282.023 299.398 282.521C298.701 282.92 297.755 283.119 296.559 283.119H288.64ZM300.893 220.062C303.782 220.062 305.923 219.216 307.318 217.522C308.713 215.729 309.509 213.537 309.709 210.947C309.908 207.561 310.008 205.469 310.008 204.672C310.008 203.576 309.908 201.534 309.709 198.545C309.609 195.955 308.812 193.814 307.318 192.12C305.923 190.327 303.782 189.43 300.893 189.43C298.004 189.43 295.862 190.327 294.467 192.12C293.073 193.814 292.326 195.955 292.226 198.545C292.127 200.04 292.077 202.082 292.077 204.672C292.077 207.162 292.127 209.254 292.226 210.947C292.425 213.537 293.172 215.729 294.467 217.522C295.862 219.216 298.004 220.062 300.893 220.062ZM360.513 284.016C353.938 284.016 348.659 282.223 344.674 278.636C340.789 274.951 338.647 270.069 338.249 263.993C338.149 262.299 338.099 260.058 338.099 257.269C338.099 254.38 338.149 252.039 338.249 250.246C338.647 244.07 340.739 239.189 344.524 235.602C348.31 232.016 353.639 230.223 360.513 230.223C367.386 230.223 372.716 232.016 376.501 235.602C380.386 239.189 382.478 244.07 382.777 250.246C382.976 254.231 383.076 256.771 383.076 257.867C383.076 258.962 382.976 261.004 382.777 263.993C382.378 270.069 380.187 274.951 376.202 278.636C372.317 282.223 367.087 284.016 360.513 284.016ZM360.513 272.361C363.501 272.361 365.643 271.514 366.938 269.82C368.333 268.027 369.13 265.886 369.329 263.395C369.528 260.008 369.628 257.916 369.628 257.119C369.628 256.024 369.528 253.981 369.329 250.993C369.229 248.403 368.432 246.211 366.938 244.418C365.543 242.625 363.402 241.729 360.513 241.729C357.624 241.729 355.482 242.625 354.088 244.418C352.693 246.112 351.896 248.303 351.697 250.993C351.597 252.487 351.547 254.529 351.547 257.119C351.547 259.61 351.597 261.702 351.697 263.395C351.996 265.985 352.793 268.127 354.088 269.82C355.482 271.514 357.624 272.361 360.513 272.361Z" fill="#FAFAF9"/>
<path d="M49.7656 386.756C49.2938 386.756 48.8927 386.615 48.5624 386.332C48.2793 386.001 48.1377 385.6 48.1377 385.128V382.439C48.1377 381.967 48.2793 381.589 48.5624 381.306C48.8927 380.976 49.2938 380.811 49.7656 380.811H70.9995C71.4714 380.811 71.8489 380.976 72.132 381.306C72.4623 381.589 72.6275 381.967 72.6275 382.439V385.128C72.6275 385.6 72.4623 386.001 72.132 386.332C71.8489 386.615 71.4714 386.756 70.9995 386.756H49.7656Z" fill="#FAFAF9"/>
<path d="M94.4464 405.017C93.9745 405.017 93.5734 404.876 93.2431 404.593C92.96 404.262 92.8185 403.861 92.8185 403.389V363.753L81.069 372.813C80.7387 373.096 80.3848 373.237 80.0073 373.237C79.5827 373.237 79.1816 373.001 78.8041 372.529L76.9638 370.194C76.7279 369.863 76.6099 369.533 76.6099 369.203C76.6099 368.637 76.8458 368.188 77.3177 367.858L92.7477 355.967C93.2667 355.637 93.8802 355.472 94.588 355.472H98.1977C98.6696 355.472 99.0471 355.637 99.3302 355.967C99.6605 356.25 99.8256 356.628 99.8256 357.1V403.389C99.8256 403.861 99.6605 404.262 99.3302 404.593C99.0471 404.876 98.6696 405.017 98.1977 405.017H94.4464Z" fill="#FAFAF9"/>
<path d="M125.854 405.725C122.268 405.725 119.177 405.088 116.582 403.814C113.986 402.54 111.981 400.865 110.565 398.789C109.197 396.713 108.466 394.495 108.371 392.135V391.994C108.371 391.616 108.513 391.31 108.796 391.074C109.079 390.838 109.409 390.72 109.787 390.72H113.609C114.6 390.72 115.237 391.239 115.52 392.277C116.181 394.778 117.455 396.642 119.342 397.869C121.229 399.095 123.4 399.709 125.854 399.709C129.015 399.709 131.634 398.765 133.71 396.878C135.834 394.943 136.895 392.277 136.895 388.88C136.895 385.812 135.834 383.335 133.71 381.448C131.634 379.56 129.015 378.617 125.854 378.617C124.155 378.617 122.787 378.852 121.749 379.324C120.71 379.749 119.672 380.362 118.634 381.165C118.068 381.589 117.573 381.92 117.148 382.156C116.77 382.344 116.346 382.439 115.874 382.439H112.193C111.769 382.439 111.391 382.297 111.061 382.014C110.731 381.684 110.589 381.306 110.636 380.881L112.901 357.241C112.948 356.675 113.113 356.25 113.397 355.967C113.727 355.637 114.152 355.472 114.671 355.472H139.373C139.845 355.472 140.222 355.637 140.505 355.967C140.835 356.25 141.001 356.628 141.001 357.1V359.86C141.001 360.332 140.835 360.733 140.505 361.063C140.222 361.346 139.845 361.488 139.373 361.488H118.988L117.643 375.431C120.191 373.827 123.259 373.025 126.845 373.025C129.959 373.025 132.814 373.662 135.409 374.936C138.051 376.21 140.128 378.05 141.638 380.457C143.195 382.863 143.973 385.694 143.973 388.95C143.973 392.442 143.195 395.462 141.638 398.01C140.128 400.511 138.004 402.422 135.267 403.743C132.531 405.065 129.393 405.725 125.854 405.725Z" fill="#FAFAF9"/>
<path d="M160.872 380.315C157.805 380.315 155.375 379.513 153.582 377.909C151.836 376.257 150.868 373.992 150.68 371.114C150.633 370.312 150.609 369.274 150.609 368C150.609 366.631 150.633 365.522 150.68 364.673C150.821 361.747 151.741 359.435 153.44 357.737C155.186 355.991 157.663 355.118 160.872 355.118C164.081 355.118 166.534 355.991 168.233 357.737C169.979 359.435 170.923 361.747 171.064 364.673C171.159 366.56 171.206 367.764 171.206 368.283C171.206 368.755 171.159 369.698 171.064 371.114C170.923 373.992 169.955 376.257 168.162 377.909C166.369 379.513 163.939 380.315 160.872 380.315ZM154.927 405.017C154.502 405.017 154.148 404.899 153.865 404.663C153.582 404.38 153.44 404.026 153.44 403.602C153.44 403.319 153.535 403.059 153.723 402.823L188.688 356.816C189.066 356.297 189.396 355.943 189.679 355.755C190.01 355.566 190.458 355.472 191.024 355.472H193.36C193.832 355.472 194.186 355.613 194.422 355.896C194.705 356.132 194.846 356.462 194.846 356.887C194.846 357.17 194.752 357.43 194.563 357.666L159.669 403.673C159.291 404.192 158.937 404.545 158.607 404.734C158.324 404.923 157.876 405.017 157.262 405.017H154.927ZM160.872 375.927C162.571 375.927 163.798 375.431 164.553 374.441C165.355 373.45 165.827 372.246 165.968 370.831C166.063 369.132 166.11 368.141 166.11 367.858C166.11 367.433 166.063 366.466 165.968 364.956C165.874 363.493 165.402 362.266 164.553 361.276C163.75 360.285 162.524 359.789 160.872 359.789C159.22 359.789 157.994 360.285 157.191 361.276C156.389 362.266 155.941 363.493 155.847 364.956C155.799 365.711 155.776 366.678 155.776 367.858C155.776 368.99 155.799 369.981 155.847 370.831C155.988 372.294 156.436 373.52 157.191 374.511C157.994 375.455 159.22 375.927 160.872 375.927ZM187.344 405.442C184.276 405.442 181.846 404.593 180.053 402.894C178.307 401.148 177.34 398.836 177.151 395.958C177.104 395.155 177.081 394.117 177.081 392.843C177.081 391.475 177.104 390.366 177.151 389.517C177.34 386.591 178.284 384.279 179.982 382.58C181.728 380.834 184.182 379.961 187.344 379.961C190.552 379.961 193.006 380.834 194.705 382.58C196.451 384.279 197.418 386.591 197.607 389.517C197.701 391.215 197.748 392.324 197.748 392.843C197.748 393.315 197.701 394.353 197.607 395.958C197.418 398.836 196.427 401.148 194.634 402.894C192.841 404.593 190.411 405.442 187.344 405.442ZM187.344 400.771C189.042 400.771 190.269 400.275 191.024 399.284C191.826 398.293 192.298 397.09 192.44 395.674C192.534 393.976 192.581 392.985 192.581 392.702C192.581 392.277 192.534 391.31 192.44 389.8C192.345 388.337 191.897 387.11 191.095 386.119C190.293 385.128 189.042 384.633 187.344 384.633C185.692 384.633 184.465 385.128 183.663 386.119C182.861 387.11 182.413 388.337 182.318 389.8C182.271 390.555 182.247 391.522 182.247 392.702C182.247 393.834 182.271 394.825 182.318 395.674C182.46 397.09 182.908 398.293 183.663 399.284C184.465 400.275 185.692 400.771 187.344 400.771Z" fill="#FAFAF9"/>
<path d="M250.309 95.7728C249.837 95.7728 249.436 95.6312 249.105 95.3481C248.822 95.0178 248.681 94.6167 248.681 94.1449V91.4552C248.681 90.9834 248.822 90.6059 249.105 90.3228C249.436 89.9924 249.837 89.8273 250.309 89.8273H271.542C272.014 89.8273 272.392 89.9924 272.675 90.3228C273.005 90.6059 273.17 90.9834 273.17 91.4552V94.1449C273.17 94.6167 273.005 95.0178 272.675 95.3481C272.392 95.6312 272.014 95.7728 271.542 95.7728H250.309Z" fill="#FAFAF9"/>
<path d="M294.989 114.034C294.517 114.034 294.116 113.892 293.786 113.609C293.503 113.279 293.361 112.878 293.361 112.406V72.7694L281.612 81.8292C281.282 82.1123 280.928 82.2539 280.55 82.2539C280.126 82.2539 279.725 82.0179 279.347 81.5461L277.507 79.2103C277.271 78.88 277.153 78.5497 277.153 78.2194C277.153 77.6532 277.389 77.2049 277.861 76.8746L293.291 64.9836C293.81 64.6533 294.423 64.4882 295.131 64.4882H298.741C299.213 64.4882 299.59 64.6533 299.873 64.9836C300.203 65.2668 300.369 65.6442 300.369 66.1161V112.406C300.369 112.878 300.203 113.279 299.873 113.609C299.59 113.892 299.213 114.034 298.741 114.034H294.989Z" fill="#FAFAF9"/>
<path d="M326.397 114.742C322.811 114.742 319.72 114.105 317.125 112.831C314.529 111.557 312.524 109.882 311.108 107.805C309.74 105.729 309.009 103.511 308.914 101.152V101.01C308.914 100.633 309.056 100.326 309.339 100.09C309.622 99.8544 309.952 99.7365 310.33 99.7365H314.152C315.143 99.7365 315.78 100.256 316.063 101.294C316.724 103.794 317.998 105.658 319.885 106.885C321.772 108.112 323.943 108.725 326.397 108.725C329.558 108.725 332.177 107.782 334.253 105.894C336.377 103.96 337.438 101.294 337.438 97.8962C337.438 94.8291 336.377 92.3518 334.253 90.4643C332.177 88.5769 329.558 87.6331 326.397 87.6331C324.698 87.6331 323.33 87.8691 322.292 88.3409C321.253 88.7656 320.215 89.379 319.177 90.1812C318.611 90.6059 318.116 90.9362 317.691 91.1721C317.313 91.3609 316.889 91.4552 316.417 91.4552H312.736C312.312 91.4552 311.934 91.3137 311.604 91.0306C311.273 90.7002 311.132 90.3228 311.179 89.8981L313.444 66.2577C313.491 65.6914 313.656 65.2668 313.94 64.9836C314.27 64.6533 314.694 64.4882 315.214 64.4882H339.916C340.388 64.4882 340.765 64.6533 341.048 64.9836C341.378 65.2668 341.544 65.6442 341.544 66.1161V68.8765C341.544 69.3484 341.378 69.7495 341.048 70.0798C340.765 70.3629 340.388 70.5044 339.916 70.5044H319.531L318.186 84.448C320.734 82.8437 323.801 82.0415 327.388 82.0415C330.502 82.0415 333.357 82.6785 335.952 83.9526C338.594 85.2266 340.671 87.0669 342.181 89.4734C343.738 91.8799 344.516 94.7111 344.516 97.967C344.516 101.459 343.738 104.479 342.181 107.027C340.671 109.528 338.547 111.439 335.81 112.76C333.074 114.081 329.936 114.742 326.397 114.742Z" fill="#FAFAF9"/>
<path d="M361.415 89.3318C358.348 89.3318 355.918 88.5297 354.125 86.9253C352.379 85.2738 351.411 83.0089 351.223 80.1305C351.176 79.3283 351.152 78.2902 351.152 77.0162C351.152 75.6478 351.176 74.5389 351.223 73.6895C351.364 70.764 352.284 68.4518 353.983 66.7531C355.729 65.0072 358.206 64.1343 361.415 64.1343C364.624 64.1343 367.077 65.0072 368.776 66.7531C370.522 68.4518 371.466 70.764 371.607 73.6895C371.702 75.577 371.749 76.7802 371.749 77.2993C371.749 77.7712 371.702 78.7149 371.607 80.1305C371.466 83.0089 370.498 85.2738 368.705 86.9253C366.912 88.5297 364.482 89.3318 361.415 89.3318ZM355.469 114.034C355.045 114.034 354.691 113.916 354.408 113.68C354.125 113.397 353.983 113.043 353.983 112.618C353.983 112.335 354.077 112.076 354.266 111.84L389.231 65.833C389.609 65.3139 389.939 64.96 390.222 64.7713C390.553 64.5825 391.001 64.4882 391.567 64.4882H393.903C394.375 64.4882 394.729 64.6297 394.965 64.9129C395.248 65.1488 395.389 65.4791 395.389 65.9038C395.389 66.1869 395.295 66.4464 395.106 66.6823L360.212 112.689C359.834 113.208 359.48 113.562 359.15 113.751C358.867 113.94 358.419 114.034 357.805 114.034H355.469ZM361.415 84.9435C363.114 84.9435 364.341 84.448 365.096 83.4571C365.898 82.4662 366.37 81.263 366.511 79.8474C366.605 78.1487 366.653 77.1577 366.653 76.8746C366.653 76.4499 366.605 75.4826 366.511 73.9726C366.417 72.5099 365.945 71.283 365.096 70.2921C364.293 69.3012 363.066 68.8057 361.415 68.8057C359.763 68.8057 358.537 69.3012 357.734 70.2921C356.932 71.283 356.484 72.5099 356.39 73.9726C356.342 74.7276 356.319 75.695 356.319 76.8746C356.319 78.0071 356.342 78.998 356.39 79.8474C356.531 81.3101 356.979 82.537 357.734 83.5279C358.537 84.4716 359.763 84.9435 361.415 84.9435ZM387.887 114.459C384.819 114.459 382.389 113.609 380.596 111.911C378.85 110.165 377.883 107.853 377.694 104.974C377.647 104.172 377.624 103.134 377.624 101.86C377.624 100.491 377.647 99.3825 377.694 98.5332C377.883 95.6076 378.827 93.2955 380.525 91.5968C382.271 89.8509 384.725 88.9779 387.887 88.9779C391.095 88.9779 393.549 89.8509 395.248 91.5968C396.994 93.2955 397.961 95.6076 398.15 98.5332C398.244 100.232 398.291 101.341 398.291 101.86C398.291 102.332 398.244 103.37 398.15 104.974C397.961 107.853 396.97 110.165 395.177 111.911C393.384 113.609 390.954 114.459 387.887 114.459ZM387.887 109.787C389.585 109.787 390.812 109.292 391.567 108.301C392.369 107.31 392.841 106.107 392.983 104.691C393.077 102.992 393.124 102.001 393.124 101.718C393.124 101.294 393.077 100.326 392.983 98.8163C392.888 97.3535 392.44 96.1267 391.638 95.1358C390.836 94.1449 389.585 93.6494 387.887 93.6494C386.235 93.6494 385.008 94.1449 384.206 95.1358C383.404 96.1267 382.956 97.3535 382.861 98.8163C382.814 99.5713 382.79 100.539 382.79 101.718C382.79 102.851 382.814 103.842 382.861 104.691C383.003 106.107 383.451 107.31 384.206 108.301C385.008 109.292 386.235 109.787 387.887 109.787Z" fill="#FAFAF9"/>
</svg>
