<svg width="290" height="72" viewBox="0 0 290 72" fill="none" xmlns="http://www.w3.org/2000/svg">
<path d="M11.0183 68C10.8983 68 10.7963 67.958 10.7123 67.874C10.6283 67.79 10.5863 67.688 10.5863 67.568V57.65H6.68027V59.918C6.68027 61.898 6.54227 63.464 6.26627 64.616C6.00227 65.756 5.54627 66.596 4.89827 67.136C4.25027 67.664 3.35027 67.946 2.19827 67.982C2.07827 67.994 1.97027 67.958 1.87427 67.874C1.79027 67.79 1.74827 67.682 1.74827 67.55V66.2C1.74827 66.08 1.78427 65.984 1.85627 65.912C1.92827 65.84 2.03027 65.792 2.16227 65.768C2.87027 65.648 3.39227 65.09 3.72827 64.094C4.07627 63.086 4.25027 61.586 4.25027 59.594V55.832C4.25027 55.7 4.29227 55.598 4.37627 55.526C4.46027 55.442 4.56227 55.4 4.68227 55.4H12.6383C12.7703 55.4 12.8783 55.442 12.9623 55.526C13.0463 55.61 13.0883 55.718 13.0883 55.85V67.568C13.0883 67.7 13.0463 67.808 12.9623 67.892C12.8783 67.964 12.7703 68 12.6383 68H11.0183ZM18.405 68.18C17.793 68.18 17.229 68.06 16.713 67.82C16.209 67.568 15.807 67.232 15.507 66.812C15.219 66.392 15.075 65.93 15.075 65.426C15.075 64.61 15.405 63.95 16.065 63.446C16.725 62.942 17.631 62.6 18.783 62.42L21.249 62.06V61.682C21.249 61.154 21.117 60.758 20.853 60.494C20.589 60.23 20.163 60.098 19.575 60.098C19.179 60.098 18.855 60.176 18.603 60.332C18.363 60.476 18.171 60.62 18.027 60.764C17.883 60.92 17.787 61.022 17.739 61.07C17.691 61.214 17.601 61.286 17.469 61.286H16.083C15.975 61.286 15.879 61.25 15.795 61.178C15.723 61.106 15.687 61.01 15.687 60.89C15.699 60.59 15.843 60.248 16.119 59.864C16.407 59.48 16.845 59.15 17.433 58.874C18.021 58.598 18.741 58.46 19.593 58.46C21.009 58.46 22.041 58.778 22.689 59.414C23.337 60.05 23.661 60.884 23.661 61.916V67.568C23.661 67.688 23.619 67.79 23.535 67.874C23.463 67.958 23.361 68 23.229 68H21.771C21.651 68 21.549 67.958 21.465 67.874C21.381 67.79 21.339 67.688 21.339 67.568V66.866C21.075 67.25 20.697 67.568 20.205 67.82C19.725 68.06 19.125 68.18 18.405 68.18ZM19.017 66.47C19.677 66.47 20.217 66.254 20.637 65.822C21.057 65.39 21.267 64.76 21.267 63.932V63.554L19.467 63.842C18.771 63.95 18.243 64.124 17.883 64.364C17.535 64.604 17.361 64.898 17.361 65.246C17.361 65.63 17.523 65.93 17.847 66.146C18.171 66.362 18.561 66.47 19.017 66.47ZM34.7002 63.104C34.7122 63.236 34.7182 63.44 34.7182 63.716C34.7182 63.98 34.7122 64.172 34.7002 64.292C34.6402 65.492 34.2262 66.44 33.4582 67.136C32.7022 67.832 31.6162 68.18 30.2002 68.18C28.7122 68.18 27.6022 67.796 26.8702 67.028C26.1502 66.248 25.7602 65.102 25.7002 63.59L25.6822 62.51L25.7002 61.43C25.7362 59.726 26.0002 58.448 26.4922 57.596C26.9842 56.732 27.6982 56.108 28.6342 55.724C29.5702 55.328 31.0822 54.878 33.1702 54.374L33.2602 54.356C33.3562 54.356 33.4462 54.392 33.5302 54.464C33.6142 54.524 33.6622 54.608 33.6742 54.716L33.9082 55.904L33.9262 56.012C33.9262 56.108 33.8962 56.192 33.8362 56.264C33.7762 56.324 33.6982 56.366 33.6022 56.39L33.0262 56.516C31.5982 56.84 30.5722 57.116 29.9482 57.344C29.3362 57.56 28.8682 57.896 28.5442 58.352C28.2202 58.808 28.0342 59.492 27.9862 60.404C28.2742 60.044 28.6522 59.756 29.1202 59.54C29.6002 59.324 30.1042 59.216 30.6322 59.216C31.8922 59.216 32.8702 59.564 33.5662 60.26C34.2622 60.956 34.6402 61.904 34.7002 63.104ZM32.2522 64.202C32.2642 64.118 32.2702 63.962 32.2702 63.734C32.2702 63.482 32.2642 63.302 32.2522 63.194C32.2282 62.45 32.0482 61.88 31.7122 61.484C31.3762 61.076 30.9202 60.872 30.3442 60.872C29.6842 60.872 29.1622 61.076 28.7782 61.484C28.3942 61.88 28.1902 62.45 28.1662 63.194L28.1482 63.734L28.1662 64.202C28.1902 64.958 28.3762 65.534 28.7242 65.93C29.0722 66.326 29.5642 66.524 30.2002 66.524C30.8362 66.524 31.3282 66.332 31.6762 65.948C32.0362 65.552 32.2282 64.97 32.2522 64.202ZM40.8505 68.18C39.4465 68.18 38.3605 67.82 37.5925 67.1C36.8245 66.368 36.4105 65.372 36.3505 64.112L36.3325 63.32L36.3505 62.528C36.4105 61.28 36.8305 60.29 37.6105 59.558C38.3905 58.826 39.4705 58.46 40.8505 58.46C42.2305 58.46 43.3105 58.826 44.0905 59.558C44.8705 60.29 45.2905 61.28 45.3505 62.528C45.3625 62.672 45.3685 62.936 45.3685 63.32C45.3685 63.704 45.3625 63.968 45.3505 64.112C45.2905 65.372 44.8765 66.368 44.1085 67.1C43.3405 67.82 42.2545 68.18 40.8505 68.18ZM40.8505 66.398C41.4865 66.398 41.9785 66.2 42.3265 65.804C42.6745 65.396 42.8665 64.802 42.9025 64.022C42.9145 63.902 42.9205 63.668 42.9205 63.32C42.9205 62.972 42.9145 62.738 42.9025 62.618C42.8665 61.838 42.6745 61.25 42.3265 60.854C41.9785 60.446 41.4865 60.242 40.8505 60.242C40.2145 60.242 39.7225 60.446 39.3745 60.854C39.0265 61.25 38.8345 61.838 38.7985 62.618L38.7805 63.32L38.7985 64.022C38.8345 64.802 39.0265 65.396 39.3745 65.804C39.7225 66.2 40.2145 66.398 40.8505 66.398ZM47.8128 71.42C47.6928 71.42 47.5908 71.378 47.5068 71.294C47.4228 71.222 47.3808 71.12 47.3808 70.988V59.072C47.3808 58.94 47.4228 58.838 47.5068 58.766C47.5908 58.682 47.6928 58.64 47.8128 58.64H49.2348C49.3668 58.64 49.4688 58.682 49.5408 58.766C49.6248 58.838 49.6668 58.94 49.6668 59.072V59.792C50.3388 58.904 51.2988 58.46 52.5468 58.46C53.7588 58.46 54.6888 58.844 55.3368 59.612C55.9848 60.368 56.3328 61.394 56.3808 62.69C56.3928 62.834 56.3988 63.044 56.3988 63.32C56.3988 63.608 56.3928 63.824 56.3808 63.968C56.3328 65.228 55.9848 66.248 55.3368 67.028C54.6888 67.796 53.7588 68.18 52.5468 68.18C51.3348 68.18 50.4108 67.754 49.7748 66.902V70.988C49.7748 71.12 49.7328 71.222 49.6488 71.294C49.5768 71.378 49.4748 71.42 49.3428 71.42H47.8128ZM51.8808 66.254C53.1768 66.254 53.8668 65.456 53.9508 63.86C53.9628 63.74 53.9688 63.56 53.9688 63.32C53.9688 63.08 53.9628 62.9 53.9508 62.78C53.8668 61.184 53.1768 60.386 51.8808 60.386C51.1848 60.386 50.6688 60.608 50.3328 61.052C49.9968 61.496 49.8108 62.042 49.7748 62.69L49.7568 63.374L49.7748 64.076C49.7988 64.676 49.9848 65.192 50.3328 65.624C50.6928 66.044 51.2088 66.254 51.8808 66.254ZM61.1374 68.18C60.5254 68.18 59.9614 68.06 59.4454 67.82C58.9414 67.568 58.5394 67.232 58.2394 66.812C57.9514 66.392 57.8074 65.93 57.8074 65.426C57.8074 64.61 58.1374 63.95 58.7974 63.446C59.4574 62.942 60.3634 62.6 61.5154 62.42L63.9814 62.06V61.682C63.9814 61.154 63.8494 60.758 63.5854 60.494C63.3214 60.23 62.8954 60.098 62.3074 60.098C61.9114 60.098 61.5874 60.176 61.3354 60.332C61.0954 60.476 60.9034 60.62 60.7594 60.764C60.6154 60.92 60.5194 61.022 60.4714 61.07C60.4234 61.214 60.3334 61.286 60.2014 61.286H58.8154C58.7074 61.286 58.6114 61.25 58.5274 61.178C58.4554 61.106 58.4194 61.01 58.4194 60.89C58.4314 60.59 58.5754 60.248 58.8514 59.864C59.1394 59.48 59.5774 59.15 60.1654 58.874C60.7534 58.598 61.4734 58.46 62.3254 58.46C63.7414 58.46 64.7734 58.778 65.4214 59.414C66.0694 60.05 66.3934 60.884 66.3934 61.916V67.568C66.3934 67.688 66.3514 67.79 66.2674 67.874C66.1954 67.958 66.0934 68 65.9614 68H64.5034C64.3834 68 64.2814 67.958 64.1974 67.874C64.1134 67.79 64.0714 67.688 64.0714 67.568V66.866C63.8074 67.25 63.4294 67.568 62.9374 67.82C62.4574 68.06 61.8574 68.18 61.1374 68.18ZM61.7494 66.47C62.4094 66.47 62.9494 66.254 63.3694 65.822C63.7894 65.39 63.9994 64.76 63.9994 63.932V63.554L62.1994 63.842C61.5034 63.95 60.9754 64.124 60.6154 64.364C60.2674 64.604 60.0934 64.898 60.0934 65.246C60.0934 65.63 60.2554 65.93 60.5794 66.146C60.9034 66.362 61.2934 66.47 61.7494 66.47ZM71.5646 68C71.4446 68 71.3426 67.958 71.2586 67.874C71.1746 67.79 71.1326 67.688 71.1326 67.568V60.548H68.1986C68.0786 60.548 67.9766 60.506 67.8926 60.422C67.8086 60.338 67.7666 60.23 67.7666 60.098V59.072C67.7666 58.94 67.8086 58.838 67.8926 58.766C67.9766 58.682 68.0786 58.64 68.1986 58.64H76.3706C76.5026 58.64 76.6106 58.682 76.6946 58.766C76.7786 58.85 76.8206 58.952 76.8206 59.072V60.098C76.8206 60.218 76.7786 60.326 76.6946 60.422C76.6106 60.506 76.5026 60.548 76.3706 60.548H73.4546V67.568C73.4546 67.688 73.4126 67.79 73.3286 67.874C73.2566 67.958 73.1546 68 73.0226 68H71.5646ZM82.3876 68.18C80.9836 68.18 79.8976 67.82 79.1296 67.1C78.3616 66.368 77.9476 65.372 77.8876 64.112L77.8696 63.32L77.8876 62.528C77.9476 61.28 78.3676 60.29 79.1476 59.558C79.9276 58.826 81.0076 58.46 82.3876 58.46C83.7676 58.46 84.8476 58.826 85.6276 59.558C86.4076 60.29 86.8276 61.28 86.8876 62.528C86.8996 62.672 86.9056 62.936 86.9056 63.32C86.9056 63.704 86.8996 63.968 86.8876 64.112C86.8276 65.372 86.4136 66.368 85.6456 67.1C84.8776 67.82 83.7916 68.18 82.3876 68.18ZM82.3876 66.398C83.0236 66.398 83.5156 66.2 83.8636 65.804C84.2116 65.396 84.4036 64.802 84.4396 64.022C84.4516 63.902 84.4576 63.668 84.4576 63.32C84.4576 62.972 84.4516 62.738 84.4396 62.618C84.4036 61.838 84.2116 61.25 83.8636 60.854C83.5156 60.446 83.0236 60.242 82.3876 60.242C81.7516 60.242 81.2596 60.446 80.9116 60.854C80.5636 61.25 80.3716 61.838 80.3356 62.618L80.3176 63.32L80.3356 64.022C80.3716 64.802 80.5636 65.396 80.9116 65.804C81.2596 66.2 81.7516 66.398 82.3876 66.398ZM89.3499 71.42C89.2299 71.42 89.1279 71.378 89.0439 71.294C88.9599 71.222 88.9179 71.12 88.9179 70.988V59.072C88.9179 58.94 88.9599 58.838 89.0439 58.766C89.1279 58.682 89.2299 58.64 89.3499 58.64H90.7719C90.9039 58.64 91.0059 58.682 91.0779 58.766C91.1619 58.838 91.2039 58.94 91.2039 59.072V59.792C91.8759 58.904 92.8359 58.46 94.0839 58.46C95.2959 58.46 96.2259 58.844 96.8739 59.612C97.5219 60.368 97.8699 61.394 97.9179 62.69C97.9299 62.834 97.9359 63.044 97.9359 63.32C97.9359 63.608 97.9299 63.824 97.9179 63.968C97.8699 65.228 97.5219 66.248 96.8739 67.028C96.2259 67.796 95.2959 68.18 94.0839 68.18C92.8719 68.18 91.9479 67.754 91.3119 66.902V70.988C91.3119 71.12 91.2699 71.222 91.1859 71.294C91.1139 71.378 91.0119 71.42 90.8799 71.42H89.3499ZM93.4179 66.254C94.7139 66.254 95.4039 65.456 95.4879 63.86C95.4999 63.74 95.5059 63.56 95.5059 63.32C95.5059 63.08 95.4999 62.9 95.4879 62.78C95.4039 61.184 94.7139 60.386 93.4179 60.386C92.7219 60.386 92.2059 60.608 91.8699 61.052C91.5339 61.496 91.3479 62.042 91.3119 62.69L91.2939 63.374L91.3119 64.076C91.3359 64.676 91.5219 65.192 91.8699 65.624C92.2299 66.044 92.7459 66.254 93.4179 66.254ZM108.489 58.64C108.597 58.64 108.693 58.682 108.777 58.766C108.861 58.838 108.903 58.928 108.903 59.036V67.568C108.903 67.688 108.861 67.79 108.777 67.874C108.693 67.958 108.591 68 108.471 68H106.977C106.857 68 106.755 67.958 106.671 67.874C106.587 67.79 106.545 67.688 106.545 67.568V61.79L102.225 67.712C102.117 67.904 101.955 68 101.739 68H100.371C100.263 68 100.167 67.964 100.083 67.892C99.9986 67.808 99.9566 67.706 99.9566 67.586V59.072C99.9566 58.952 99.9986 58.85 100.083 58.766C100.167 58.682 100.269 58.64 100.389 58.64H101.883C102.015 58.64 102.117 58.682 102.189 58.766C102.273 58.838 102.315 58.94 102.315 59.072V64.868L106.635 58.928C106.767 58.736 106.929 58.64 107.121 58.64H108.489ZM118.641 58.64C118.773 58.64 118.875 58.682 118.947 58.766C119.031 58.838 119.073 58.94 119.073 59.072V67.568C119.073 67.688 119.031 67.79 118.947 67.874C118.875 67.958 118.773 68 118.641 68H117.111C116.991 68 116.889 67.958 116.805 67.874C116.721 67.79 116.679 67.688 116.679 67.568V64.814H115.077L113.295 67.73C113.187 67.91 113.037 68 112.845 68H111.351C111.243 68 111.153 67.964 111.081 67.892C111.009 67.82 110.973 67.736 110.973 67.64C110.973 67.532 111.009 67.436 111.081 67.352L112.971 64.382C112.407 64.142 111.981 63.794 111.693 63.338C111.405 62.87 111.261 62.318 111.261 61.682C111.261 60.674 111.573 59.918 112.197 59.414C112.833 58.898 113.757 58.64 114.969 58.64H118.641ZM116.715 60.35H115.023C114.459 60.35 114.045 60.452 113.781 60.656C113.529 60.86 113.403 61.202 113.403 61.682C113.403 62.126 113.529 62.474 113.781 62.726C114.033 62.978 114.411 63.104 114.915 63.104H116.715V60.35ZM134.153 58.64C134.261 58.64 134.357 58.682 134.441 58.766C134.525 58.838 134.567 58.928 134.567 59.036V67.568C134.567 67.688 134.525 67.79 134.441 67.874C134.357 67.958 134.255 68 134.135 68H132.641C132.521 68 132.419 67.958 132.335 67.874C132.251 67.79 132.209 67.688 132.209 67.568V61.79L127.889 67.712C127.781 67.904 127.619 68 127.403 68H126.035C125.927 68 125.831 67.964 125.747 67.892C125.663 67.808 125.621 67.706 125.621 67.586V59.072C125.621 58.952 125.663 58.85 125.747 58.766C125.831 58.682 125.933 58.64 126.053 58.64H127.547C127.679 58.64 127.781 58.682 127.853 58.766C127.937 58.838 127.979 58.94 127.979 59.072V64.868L132.299 58.928C132.431 58.736 132.593 58.64 132.785 58.64H134.153ZM137.267 68C137.147 68 137.045 67.958 136.961 67.874C136.877 67.79 136.835 67.688 136.835 67.568V59.072C136.835 58.952 136.877 58.85 136.961 58.766C137.045 58.682 137.147 58.64 137.267 58.64H142.973C143.105 58.64 143.207 58.682 143.279 58.766C143.363 58.838 143.405 58.94 143.405 59.072V60.098C143.405 60.23 143.363 60.338 143.279 60.422C143.195 60.506 143.093 60.548 142.973 60.548H139.193V67.568C139.193 67.688 139.151 67.79 139.067 67.874C138.995 67.958 138.893 68 138.761 68H137.267ZM145.301 71.42C145.181 71.42 145.079 71.378 144.995 71.294C144.911 71.222 144.869 71.12 144.869 70.988V59.072C144.869 58.94 144.911 58.838 144.995 58.766C145.079 58.682 145.181 58.64 145.301 58.64H146.723C146.855 58.64 146.957 58.682 147.029 58.766C147.113 58.838 147.155 58.94 147.155 59.072V59.792C147.827 58.904 148.787 58.46 150.035 58.46C151.247 58.46 152.177 58.844 152.825 59.612C153.473 60.368 153.821 61.394 153.869 62.69C153.881 62.834 153.887 63.044 153.887 63.32C153.887 63.608 153.881 63.824 153.869 63.968C153.821 65.228 153.473 66.248 152.825 67.028C152.177 67.796 151.247 68.18 150.035 68.18C148.823 68.18 147.899 67.754 147.263 66.902V70.988C147.263 71.12 147.221 71.222 147.137 71.294C147.065 71.378 146.963 71.42 146.831 71.42H145.301ZM149.369 66.254C150.665 66.254 151.355 65.456 151.439 63.86C151.451 63.74 151.457 63.56 151.457 63.32C151.457 63.08 151.451 62.9 151.439 62.78C151.355 61.184 150.665 60.386 149.369 60.386C148.673 60.386 148.157 60.608 147.821 61.052C147.485 61.496 147.299 62.042 147.263 62.69L147.245 63.374L147.263 64.076C147.287 64.676 147.473 65.192 147.821 65.624C148.181 66.044 148.697 66.254 149.369 66.254Z" fill="#FAFAF9"/>
<g clip-path="url(#clip0_314_1734)">
<path d="M82.7917 34.6785C82.5196 34.2406 82.1518 34.0217 81.6833 34.0217C81.1089 34.0217 80.6202 34.2762 80.2272 34.7854C78.7158 36.6744 76.8618 38.1764 74.6702 39.2812C72.4736 40.3912 70.5339 40.9462 68.8411 40.9462C66.6092 40.9462 65.4957 40.0399 65.4957 38.2222C65.4957 36.6234 66.2061 35.0145 67.6269 33.3954C69.0476 31.7763 71.5012 29.6073 74.9926 26.8782C76.2874 25.8599 76.9323 24.5158 76.9323 22.8457C76.9323 22.1176 76.7509 21.5729 76.3932 21.2114C76.0355 20.8499 75.5468 20.6666 74.9372 20.6666C74.4687 20.6666 73.7129 20.8855 72.67 21.3234C72.5239 21.359 72.2116 21.471 71.7279 21.6492C71.2442 21.8325 70.6951 21.9955 70.0804 22.138C69.4708 22.2857 68.8562 22.357 68.2466 22.357C66.987 22.357 66.06 22.1482 65.4706 21.7307C64.876 21.3132 64.3823 20.6666 63.9893 19.7959C63.3445 18.3041 62.2109 17.5607 60.5886 17.5607C58.3214 17.5607 56.8453 18.7776 56.1651 21.2164C55.4094 23.9404 54.6789 26.1349 53.9786 27.7845C53.2783 29.4393 52.5326 30.9362 51.7416 32.2855C50.9607 33.6347 49.7919 35.2029 48.2754 36.9646C47.5247 37.7232 46.8345 38.3291 46.2148 38.7721C45.0812 39.5714 43.9225 39.9737 42.7335 39.9737C41.4739 39.9737 40.4965 39.5918 39.7912 38.8281C39.0909 38.0644 38.7382 36.9188 38.7382 35.3913C38.7382 34.0828 38.9196 32.5197 39.2773 30.702L42.5672 15.1066C43.1768 12.4183 43.5547 9.80121 43.7008 7.25544L49.152 7.96317C49.3687 7.99881 49.671 8.01917 50.069 8.01917C51.1471 8.01917 51.9583 7.73914 52.4974 7.17398C53.0364 6.60882 53.3085 5.78399 53.3085 4.6944C53.3085 3.96631 53.0667 3.32478 52.583 2.75961C52.0993 2.19445 51.2983 1.82277 50.1798 1.63948C43.4136 0.544795 36.5063 0 29.458 0C22.6615 0 17.1095 0.437872 12.812 1.30853C8.51445 2.17918 5.30515 3.55389 3.17906 5.42758C1.06305 7.29618 0 9.78085 0 12.8663C0 14.3225 0.231754 15.6208 0.700301 16.7664C1.16885 17.912 1.75831 18.7929 2.47876 19.4089C2.87677 19.7704 3.37555 19.9537 3.9902 19.9537C4.85172 19.9537 5.67294 19.6533 6.44377 19.0525C7.21461 18.4517 7.60254 17.7898 7.60254 17.0617C7.60254 16.6646 7.51186 16.3337 7.33048 16.0791C6.72087 15.1321 6.41354 14.0272 6.41354 12.7543C6.41354 11.1912 7.15919 9.95396 8.65048 9.04767C10.1418 8.14137 12.5601 7.48456 15.9054 7.08742L15.3663 9.70447C14.8272 12.3572 14.2881 15.1219 13.7491 17.9935C13.21 20.8651 12.7062 23.808 12.2376 26.8273C12.021 28.4617 11.7137 30.3914 11.3207 32.6062C10.963 34.8261 10.6456 36.9391 10.3786 38.9605C10.1065 40.9767 9.9755 42.4227 9.9755 43.2934C9.9755 44.2404 10.2979 45.0041 10.9479 45.5846C11.5978 46.165 12.5147 46.4552 13.6987 46.4552C14.8121 46.4552 15.7643 46.1752 16.5603 45.61C17.3513 45.0449 17.7846 44.2404 17.8551 43.1813C18.0013 41.1804 18.2884 38.5582 18.7167 35.3047C19.1499 32.0512 19.5631 29.1898 19.956 26.7153C21.1047 19.9181 22.329 13.2125 23.6238 6.59354C24.4853 6.5579 25.891 6.53754 27.8307 6.53754C31.0702 6.53754 33.8714 6.59354 36.2494 6.70047C36.1033 8.55379 35.5289 11.9906 34.5213 17.0057L32.5262 26.9852C31.6697 31.2773 31.2364 34.3883 31.2364 36.3129C31.2364 39.4034 32.0828 41.8677 33.7706 43.7007C35.4584 45.5387 37.8364 46.4552 40.8945 46.4552C42.9451 46.4552 44.8797 45.9308 46.6934 44.8717C48.5072 43.8178 50.336 42.1478 52.1699 39.8566C52.2253 39.7904 52.2656 39.7089 52.316 39.6325C52.7442 39.1641 53.1573 38.7008 53.5453 38.2476C54.6789 36.9238 55.8931 35.2029 57.1879 33.095C58.6237 30.7682 59.7976 27.5707 60.6944 23.4975C61.1629 24.7347 61.8179 25.6614 62.6643 26.2774C63.5107 26.8935 64.5083 27.2041 65.657 27.2041C66.6293 27.2041 67.4354 27.0768 68.0853 26.8222C65.0625 28.9301 62.75 30.9209 61.1529 32.7946C59.5507 34.6683 58.7497 36.8373 58.7497 39.3118C58.7497 41.8575 59.5507 43.772 61.1529 45.0652C62.755 46.3534 65.0826 47 68.1408 47C70.6951 47 73.2494 46.3737 75.8038 45.1212C78.3581 43.8687 80.4792 42.1121 82.172 39.8617C82.8521 38.9554 83.1947 37.8251 83.1947 36.4809C83.1947 35.7121 83.0587 35.1113 82.7917 34.6785Z" fill="white"/>
<path d="M103.941 35.2233C104.214 35.6611 104.345 36.2568 104.345 37.0206C104.345 38.4767 104.002 39.602 103.322 40.4014C101.992 42.0357 100.112 43.5479 97.6841 44.9277C95.2557 46.3075 92.656 47 89.8901 47C86.1115 47 83.1793 45.9664 81.0935 43.8941C79.0077 41.8219 77.9648 38.9859 77.9648 35.3862C77.9648 32.8761 78.4838 30.5441 79.5317 28.3802C80.5746 26.2163 82.0205 24.5005 83.8746 23.2276C85.7286 21.9547 87.8194 21.3183 90.1622 21.3183C92.248 21.3183 93.9206 21.9445 95.1802 23.197C96.4397 24.4496 97.0695 26.1501 97.0695 28.2937C97.0695 30.8038 96.1777 32.9575 94.3992 34.7548C92.6208 36.5522 89.608 37.9829 85.3608 39.0368C86.2576 40.7068 87.9706 41.5469 90.4846 41.5469C92.1019 41.5469 93.9458 40.9767 96.0165 39.8311C98.0821 38.6855 99.8757 37.1886 101.387 35.3353C101.82 34.8261 102.304 34.5715 102.843 34.5715C103.302 34.5665 103.669 34.7854 103.941 35.2233ZM82.5496 16.7664C81.8996 16.13 81.5772 15.1422 81.5772 13.793C81.5772 12.3419 81.9651 11.2014 82.736 10.3867C83.5068 9.56699 84.5447 9.15967 85.8395 9.15967C86.9881 9.15967 87.89 9.48044 88.5349 10.1118C89.1797 10.7482 89.5072 11.7411 89.5072 13.0852C89.5072 14.5414 89.1193 15.6768 88.3484 16.4915C87.5726 17.3112 86.5398 17.7185 85.2449 17.7185C84.0912 17.7185 83.1944 17.4029 82.5496 16.7664ZM85.8646 29.0065C84.9477 30.5696 84.4892 32.4586 84.4892 34.6785V34.7854C86.6103 34.2762 88.2829 33.5125 89.5072 32.4942C90.7315 31.4759 91.3411 30.2946 91.3411 28.9505C91.3411 28.258 91.1547 27.7081 90.7768 27.2855C90.399 26.868 89.8851 26.6593 89.2402 26.6593C87.9051 26.6644 86.7816 27.4434 85.8646 29.0065ZM93.7695 16.7664C93.1246 16.13 92.7971 15.1422 92.7971 13.793C92.7971 12.3419 93.1851 11.2014 93.9559 10.3867C94.7267 9.56699 95.7646 9.15967 97.0594 9.15967C98.2081 9.15967 99.1099 9.48044 99.7548 10.1118C100.405 10.7482 100.727 11.7411 100.727 13.0852C100.727 14.5414 100.339 15.6768 99.5684 16.4915C98.7925 17.3112 97.7597 17.7185 96.4649 17.7185C95.3162 17.7185 94.4194 17.4029 93.7695 16.7664Z" fill="white"/>
<path d="M132.911 35.2234C133.178 35.6612 133.314 36.2569 133.314 37.0207C133.314 38.4769 132.971 39.6021 132.291 40.4015C131.102 41.8169 130.069 42.9574 129.188 43.8077C128.306 44.6631 127.228 45.4064 125.948 46.0429C124.673 46.6793 123.222 46.995 121.605 46.995C119.484 46.995 117.973 46.1498 117.071 44.4594C116.174 42.769 115.721 40.2182 115.721 36.7966C115.721 35.091 115.791 33.4362 115.937 31.8324H115.832C114.391 36.6694 112.622 40.3913 110.516 43.0083C108.41 45.6254 106.012 46.9339 103.312 46.9339C101.478 46.9339 100.037 46.2618 98.9941 44.9177C97.9512 43.5735 97.4272 41.8831 97.4272 39.8465C97.4272 38.0288 97.8404 36.5573 98.6666 35.4321C99.4929 34.3069 100.662 33.7417 102.173 33.7417C102.858 33.7417 103.367 33.8894 103.71 34.1796C104.052 34.4698 104.188 34.872 104.113 35.3812C103.826 37.1276 103.68 38.3241 103.68 38.9809C103.68 40.2894 104.002 40.9463 104.652 40.9463C105.01 40.9463 105.418 40.6713 105.866 40.1265C106.315 39.5817 107.08 38.2528 108.158 36.1449C108.985 34.5462 109.841 32.7489 110.723 30.7479C111.605 28.752 112.33 26.97 112.909 25.4069C113.484 23.8794 114.149 22.8356 114.905 22.2705C115.66 21.7053 116.738 21.4253 118.144 21.4253C119.509 21.4253 120.517 21.7002 121.167 22.245C121.812 22.7898 122.139 23.6808 122.139 24.9181L122.034 28.9506C121.887 32.0055 121.817 34.2051 121.817 35.5492C121.817 39.3679 122.588 41.2721 124.134 41.2721C124.784 41.2721 125.419 40.9615 126.049 40.3455C126.679 39.7294 127.656 38.5991 128.991 36.9647L130.341 35.3303C130.775 34.8211 131.258 34.5666 131.797 34.5666C132.271 34.5666 132.644 34.7855 132.911 35.2234Z" fill="white"/>
<path d="M130.538 44.8211C129.979 43.37 129.702 41.0432 129.702 37.8406C129.702 33.1157 130.367 28.6249 131.697 24.3735C132.02 23.3195 132.549 22.5456 133.289 22.0568C134.025 21.5681 135.063 21.3186 136.393 21.3186C137.113 21.3186 137.617 21.4102 137.904 21.5935C138.191 21.7768 138.338 22.123 138.338 22.6271C138.338 23.2075 138.07 24.5161 137.526 26.5527C137.456 26.8072 137.3 27.3877 137.068 28.2991C136.831 29.2105 136.62 30.2695 136.423 31.4864C136.227 32.7032 136.091 34.0423 136.02 35.4934C137.315 30.407 138.952 26.7716 140.932 24.5873C142.912 22.4082 145.3 21.3135 148.106 21.3135C149.976 21.3135 151.442 21.9041 152.505 23.0853C153.563 24.2666 154.097 25.7838 154.097 27.6372C154.097 29.1646 153.764 30.4528 153.099 31.5067C152.434 32.5607 151.563 33.0902 150.484 33.0902C149.799 33.0902 149.25 32.9273 148.837 32.6014C148.424 32.2756 148.217 31.8224 148.217 31.2369C148.217 30.9823 148.253 30.6921 148.323 30.3662C148.394 30.0404 148.449 29.8011 148.484 29.6585C148.666 29.1137 148.756 28.6046 148.756 28.131C148.756 27.1484 148.288 26.6596 147.356 26.6596C146.635 26.6596 145.935 27.0313 145.25 27.7746C144.565 28.518 144.015 29.521 143.602 30.7736C143.189 32.0261 142.983 33.3804 142.983 34.8366C142.983 36.7968 143.431 38.3701 144.333 39.5514C145.23 40.7326 146.524 41.3232 148.217 41.3232C149.547 41.3232 150.736 40.8803 151.779 39.9892C152.822 39.0982 154.263 37.5453 156.097 35.3254C156.53 34.8162 157.014 34.5617 157.553 34.5617C158.022 34.5617 158.389 34.7806 158.661 35.2185C158.933 35.6563 159.064 36.2521 159.064 37.0158C159.064 38.472 158.722 39.5972 158.042 40.3966C156.424 42.3619 154.802 43.9505 153.185 45.1673C151.568 46.3842 149.734 46.9952 147.683 46.9952C145.99 46.9952 144.454 46.6235 143.068 45.8751C141.683 45.1317 140.559 44.2305 139.698 43.1765C138.836 42.1226 138.277 41.1043 138.025 40.1216C137.955 40.4118 137.683 41.4301 137.214 43.1765C136.816 44.6327 136.358 45.6307 135.839 46.1755C135.315 46.7203 134.519 46.9952 133.435 46.9952C132.055 47.0003 131.098 46.2722 130.538 44.8211Z" fill="white"/>
<path d="M238.505 35.2234C238.777 35.6613 238.908 36.257 238.908 37.0207C238.908 38.4769 238.565 39.6021 237.88 40.4015C236.228 42.3261 234.525 43.9096 232.782 45.1468C231.039 46.3841 229.048 47.0002 226.822 47.0002C225.093 47.0002 223.819 46.3179 222.993 44.9534C222.166 43.5888 221.768 41.71 221.804 39.3119C221.194 41.7864 220.277 43.6856 219.053 45.0094C217.829 46.3383 216.519 47.0002 215.113 47.0002C211.838 47.0002 210.201 45.0348 210.201 41.1092C210.201 40.4168 210.256 39.6938 210.362 38.9301C209.284 41.5471 208.13 43.5481 206.911 44.9279C205.687 46.3077 204.266 47.0002 202.649 47.0002C201.031 47.0002 199.706 46.2466 198.684 44.7395C197.661 43.2324 197.147 41.3485 197.147 39.0981C197.147 36.3741 197.328 33.8742 197.686 31.6033C198.044 29.3325 198.638 26.9242 199.465 24.3784C199.822 23.2889 200.326 22.5048 200.976 22.0363C201.621 21.5628 202.649 21.3286 204.049 21.3286C204.84 21.3286 205.389 21.4559 205.697 21.7105C206.004 21.9651 206.155 22.3469 206.155 22.8561C206.155 23.1463 205.959 24.129 205.561 25.799C205.203 27.1432 204.911 28.36 204.699 29.4547C203.979 33.2734 203.621 35.814 203.621 37.0869C203.621 37.8507 203.712 38.3853 203.893 38.6959C204.074 39.0064 204.362 39.1592 204.755 39.1592C205.944 39.1592 207.102 37.8048 208.236 35.0961C209.369 32.3874 210.599 28.8183 211.934 24.3835C212.256 23.2939 212.634 22.5557 213.067 22.1738C213.501 21.7919 214.292 21.6036 215.44 21.6036C216.378 21.6036 217.022 21.7563 217.385 22.0669C217.743 22.3775 217.924 22.9121 217.924 23.6758C217.924 24.4039 217.672 26.1656 217.169 28.9659C216.448 33.1817 216.09 35.8904 216.09 37.092C216.09 37.8558 216.181 38.3904 216.362 38.7009C216.544 39.0115 216.831 39.1643 217.224 39.1643C217.763 39.1643 218.438 38.6195 219.249 37.5299C220.06 36.4403 220.922 34.7856 221.839 32.5656C222.756 30.3508 223.648 27.6218 224.509 24.3886C224.796 23.299 225.24 22.5149 225.829 22.0465C226.424 21.573 227.31 21.3388 228.499 21.3388C229.326 21.3388 229.9 21.4406 230.227 21.6392C230.55 21.8378 230.711 22.2095 230.711 22.7593C230.711 23.6707 230.263 26.1605 229.361 30.2286C228.353 34.8823 227.849 37.7539 227.849 38.8435C227.849 39.536 227.99 40.0706 228.283 40.4524C228.57 40.8343 228.948 41.0227 229.416 41.0227C230.137 41.0227 230.988 40.5797 231.981 39.6887C232.968 38.7977 234.293 37.3517 235.946 35.3558C236.379 34.8467 236.863 34.5921 237.402 34.5921C237.865 34.5666 238.233 34.7856 238.505 35.2234Z" fill="white"/>
<path d="M263.132 30.6968C263.384 31.1703 263.51 31.7711 263.51 32.4941C263.51 34.2405 262.986 35.274 261.943 35.5999C259.786 36.3636 257.408 36.8015 254.819 36.9084C254.134 39.9634 252.789 42.4073 250.773 44.2402C248.758 46.0783 246.476 46.9948 243.921 46.9948C241.765 46.9948 239.921 46.4703 238.39 45.4113C236.863 44.3574 235.699 42.9572 234.908 41.2108C234.117 39.4644 233.719 37.5754 233.719 35.5388C233.719 32.7792 234.238 30.3149 235.286 28.151C236.329 25.9871 237.77 24.2967 239.604 23.0798C241.438 21.8629 243.468 21.252 245.7 21.252C248.431 21.252 250.637 22.2041 252.31 24.1134C253.983 26.0227 254.96 28.375 255.252 31.1754C256.945 31.0684 258.955 30.7018 261.293 30.0858C261.58 30.0145 261.832 29.9788 262.049 29.9788C262.522 29.989 262.88 30.2232 263.132 30.6968ZM247.352 39.8004C248.199 38.8534 248.763 37.494 249.05 35.7119C247.937 34.9482 247.08 33.9502 246.486 32.713C245.891 31.4758 245.594 30.1672 245.594 28.7874C245.594 28.207 245.65 27.6266 245.755 27.041H245.488C244.047 27.041 242.853 27.7437 241.901 29.1387C240.949 30.5389 240.47 32.5093 240.47 35.0551C240.47 37.0561 240.858 38.5835 241.629 39.6375C242.4 40.6914 243.312 41.221 244.355 41.221C245.508 41.221 246.506 40.7475 247.352 39.8004Z" fill="white"/>
<path d="M259.817 44.8209C259.258 43.3698 258.98 41.043 258.98 37.8404C258.98 33.1155 259.646 28.6247 260.976 24.3733C261.298 23.3193 261.827 22.5454 262.568 22.0566C263.303 21.5678 264.341 21.3184 265.671 21.3184C266.392 21.3184 266.895 21.41 267.183 21.5933C267.47 21.7766 267.616 22.1228 267.616 22.6269C267.616 23.2073 267.349 24.5158 266.805 26.5525C266.447 28.0086 266.16 29.2764 265.943 30.3711C265.727 31.4658 265.545 32.8049 265.404 34.4036C266.593 31.2774 267.923 28.7316 269.394 26.7714C270.87 24.8061 272.316 23.411 273.737 22.5709C275.158 21.7359 276.463 21.3184 277.647 21.3184C279.984 21.3184 281.153 22.4996 281.153 24.8621C281.153 26.2775 280.755 28.8437 279.964 32.5503C279.279 35.7121 278.942 37.8048 278.942 38.8231C278.942 40.2793 279.46 41.0023 280.508 41.0023C281.229 41.0023 282.08 40.5593 283.073 39.6683C284.06 38.7773 285.385 37.3313 287.038 35.3354C287.471 34.8262 287.955 34.5716 288.494 34.5716C288.962 34.5716 289.33 34.7906 289.597 35.2284C289.869 35.6663 290 36.262 290 37.0258C290 38.4819 289.658 39.6072 288.972 40.4065C287.426 42.3311 285.763 43.9146 283.98 45.1519C282.201 46.3891 280.176 47.0052 277.909 47.0052C276.075 47.0052 274.689 46.4706 273.752 45.3963C272.815 44.3219 272.352 42.769 272.352 40.7324C272.352 39.7141 272.604 37.8964 273.107 35.2794C273.576 32.9882 273.808 31.4098 273.808 30.534C273.808 29.9536 273.611 29.6634 273.213 29.6634C272.745 29.6634 272.09 30.2744 271.243 31.4913C270.397 32.7081 269.535 34.3171 268.654 36.318C267.772 38.319 267.062 40.4269 266.523 42.6417C266.125 44.3525 265.666 45.5032 265.147 46.104C264.623 46.7048 263.807 47.0052 262.694 47.0052C261.333 47.0001 260.371 46.272 259.817 44.8209Z" fill="white"/>
<path d="M182.23 19.8214C178.255 19.3326 175.247 22.1126 173.171 23.9048C170.415 26.2876 167.75 32.0513 168.617 36.2009C169.292 39.4442 172.078 42.4278 175.277 43.1661C179.529 44.1488 182.769 42.5246 184.537 41.4146C185.877 40.5745 190.321 37.0002 190.301 33.8689C190.2 18.3652 187.565 20.4782 182.23 19.8214ZM185.434 26.8834C184.26 26.8834 183.308 25.6512 183.308 24.1339C183.308 22.6166 184.26 21.3845 185.434 21.3845C186.608 21.3845 187.56 22.6166 187.56 24.1339C187.56 25.6512 186.608 26.8834 185.434 26.8834Z" fill="white"/>
<path d="M177.191 15.453C177.655 12.2809 175.569 8.30955 171.997 8.16699C167.841 7.99896 166.269 13.3043 167.191 15.7228C168.49 19.124 171.705 22.9019 172.38 22.6931C173.428 22.3673 176.788 18.2126 177.191 15.453Z" fill="white"/>
<path d="M167.302 19.7146C165.291 19.292 162.546 19.8674 162.45 22.8306C162.349 26.0994 165.926 26.4253 167.095 26.2471C168.763 25.9925 170.42 24.6432 171.544 23.3551C171.66 23.2227 171.649 23.0241 171.529 22.8917C170.869 22.1789 168.758 20.0201 167.302 19.7146Z" fill="white"/>
<path d="M173.544 40.9308C170.667 38.9502 169.03 35.8953 168.622 33.1611C168.571 33.3546 168.511 33.543 168.46 33.7365C167.921 35.9157 167.841 40.6304 168.687 41.4349C169.287 42.0051 173.604 43.441 176.249 43.5173C176.894 43.5377 177.443 43.5173 177.962 43.4715C176.587 42.8758 175.368 42.1884 173.544 40.9308Z" fill="white"/>
<path d="M179.075 35.5644C175.307 32.1734 174.607 30.7987 173.932 27.0666C173.644 25.4933 173.937 24.0575 174.113 23.0239C172.994 24.0015 172.037 25.0402 171.251 26.145C171.105 26.9902 169.74 30.8853 173.453 35.6357C177.242 40.4879 181.685 41.659 183.323 42.1427C184.083 41.7302 184.819 41.2567 185.529 40.6916C186.038 40.2893 186.517 39.8718 186.965 39.4492C185.585 39.1692 182.043 38.2374 179.075 35.5644Z" fill="white"/>
<path d="M191.943 28.5431C191.857 26.4352 191.162 24.5361 189.857 22.8558C188.597 21.2316 187.096 20.1726 185.353 19.6838C183.61 19.195 181.826 19.2052 180.007 19.7144C179.095 19.9689 178.219 20.3152 177.372 20.753C177.176 22.1532 176.813 26.6592 179.619 29.9331C182.506 33.3037 187.922 35.992 189.524 36.4503C189.862 35.9462 190.164 35.4319 190.436 34.9075C191.525 32.7742 192.028 30.651 191.943 28.5431ZM186.376 24.6684C185.957 24.9077 185.459 24.6837 185.071 24.3986C184.516 23.9964 184.033 24.2713 185.519 23.1308C185.746 22.9577 186.471 23.0391 186.708 23.4668C186.945 23.8894 186.799 24.4291 186.376 24.6684Z" fill="white"/>
<path d="M192.855 46.8221C192.855 46.8221 190.336 44.4138 191.807 38.9505C192.502 36.3691 195.061 34.3325 195.061 34.3325C195.061 34.3325 192.255 35.0199 190.22 37.7388C187.817 40.9464 187.419 43.4107 187.293 44.1185C187.167 44.8262 186.396 44.3934 187.016 42.6368C187.278 41.8884 187.494 41.3436 187.494 41.3436C187.494 41.3436 185.685 42.311 185.005 43.5482C184.229 44.9586 184.139 45.4321 184.139 45.8852C184.139 46.3384 184.179 45.0808 183.423 44.1999C183.01 43.7162 181.993 43.4769 181.993 43.4769C181.993 43.4769 182.688 44.2203 182.708 44.9026C182.748 46.3435 181.912 46.5268 181.912 46.5268C181.912 46.5268 181.166 46.8017 180.924 45.8394C180.602 44.5512 178.803 44.8262 178.803 44.8262C178.803 44.8262 179.489 45.0858 179.358 46.0532C179.232 47.0206 178.038 46.7457 178.038 46.7457L190.25 46.817H192.855V46.8221Z" fill="white"/>
<path d="M163.256 46.8221C163.256 46.8221 165.775 44.4138 164.303 38.9505C163.608 36.3691 161.049 34.3325 161.049 34.3325C161.049 34.3325 163.855 35.0199 165.89 37.7388C168.294 40.9464 168.692 43.4107 168.818 44.1185C168.944 44.8262 169.714 44.3934 169.095 42.6368C168.833 41.8884 168.616 41.3436 168.616 41.3436C168.616 41.3436 170.425 42.311 171.105 43.5482C171.881 44.9586 171.972 45.4321 171.972 45.8852C171.972 46.3384 171.931 45.0808 172.687 44.1999C173.1 43.7162 174.118 43.4769 174.118 43.4769C174.118 43.4769 173.423 44.2203 173.402 44.9026C173.362 46.3435 174.198 46.5268 174.198 46.5268C174.198 46.5268 174.944 46.8017 175.186 45.8394C175.508 44.5512 177.307 44.8262 177.307 44.8262C177.307 44.8262 176.622 45.0859 176.753 46.0532C176.879 47.0206 178.073 46.7457 178.073 46.7457L165.86 46.817H163.256V46.8221Z" fill="white"/>
</g>
<defs>
<clipPath id="clip0_314_1734">
<rect width="290" height="47" fill="white"/>
</clipPath>
</defs>
</svg>
