<svg width="32" height="32" viewBox="0 0 32 32" fill="none" xmlns="http://www.w3.org/2000/svg">
<path d="M21.8743 17.1239C23.4266 15.9026 24.5596 14.2279 25.1157 12.3327C25.6719 10.4374 25.6235 8.416 24.9773 6.54957C24.3311 4.68314 23.1192 3.06454 21.5102 1.91894C19.9013 0.773338 17.9753 0.157715 16.0001 0.157715C14.025 0.157715 12.099 0.773338 10.49 1.91894C8.88105 3.06454 7.66916 4.68314 7.02295 6.54957C6.37674 8.416 6.32835 10.4374 6.88449 12.3327C7.44063 14.2279 8.57366 15.9026 10.1259 17.1239C7.46607 18.1896 5.14524 19.9571 3.41086 22.238C1.67649 24.5188 0.593592 27.2277 0.277617 30.0756C0.254745 30.2835 0.273051 30.4939 0.33149 30.6948C0.389929 30.8956 0.487357 31.083 0.61821 31.2462C0.88248 31.5758 1.26686 31.7869 1.68678 31.8331C2.10671 31.8793 2.52779 31.7568 2.85738 31.4925C3.18698 31.2282 3.39809 30.8438 3.44428 30.4239C3.79196 27.3288 5.26779 24.4703 7.5898 22.3945C9.91181 20.3187 12.9172 19.1712 16.0318 19.1712C19.1464 19.1712 22.1518 20.3187 24.4738 22.3945C26.7958 24.4703 28.2716 27.3288 28.6193 30.4239C28.6623 30.813 28.848 31.1723 29.1404 31.4325C29.4328 31.6928 29.8112 31.8355 30.2026 31.8331H30.3768C30.7918 31.7853 31.1712 31.5755 31.4322 31.2492C31.6932 30.923 31.8146 30.5068 31.7701 30.0914C31.4526 27.2354 30.3639 24.5196 28.6206 22.2352C26.8773 19.9508 24.5452 18.1839 21.8743 17.1239ZM16.0001 15.9998C14.7475 15.9998 13.523 15.6283 12.4815 14.9324C11.44 14.2365 10.6282 13.2473 10.1489 12.0901C9.66952 10.9328 9.5441 9.65939 9.78848 8.43085C10.0328 7.2023 10.636 6.07381 11.5218 5.18807C12.4075 4.30234 13.536 3.69915 14.7645 3.45478C15.9931 3.2104 17.2665 3.33582 18.4238 3.81518C19.581 4.29453 20.5702 5.10629 21.2661 6.14781C21.962 7.18932 22.3335 8.4138 22.3335 9.66642C22.3335 11.3461 21.6662 12.957 20.4785 14.1448C19.2907 15.3325 17.6798 15.9998 16.0001 15.9998Z" fill="#F2B236"/>
</svg>
