<svg width="52" height="52" viewBox="0 0 52 52" fill="none" xmlns="http://www.w3.org/2000/svg">
<rect width="52" height="52" rx="12" fill="#90C1BF"/>
<path d="M26 16.4C24.1013 16.4 22.2452 16.963 20.6665 18.0179C19.0878 19.0728 17.8574 20.5721 17.1308 22.3262C16.4042 24.0804 16.214 26.0107 16.5845 27.8729C16.9549 29.7351 17.8692 31.4456 19.2118 32.7882C20.5544 34.1308 22.2649 35.0451 24.1271 35.4155C25.9894 35.786 27.9196 35.5958 29.6738 34.8692C31.4279 34.1426 32.9272 32.9122 33.9821 31.3335C35.037 29.7548 35.6 27.8987 35.6 26C35.5971 23.4548 34.5848 21.0147 32.7851 19.2149C30.9853 17.4152 28.5452 16.4029 26 16.4ZM26 32.4C24.7342 32.4 23.4968 32.0246 22.4444 31.3214C21.3919 30.6182 20.5716 29.6186 20.0872 28.4492C19.6028 27.2797 19.476 25.9929 19.723 24.7514C19.9699 23.5099 20.5795 22.3696 21.4745 21.4745C22.3696 20.5795 23.5099 19.9699 24.7514 19.723C25.9929 19.476 27.2797 19.6028 28.4492 20.0872C29.6186 20.5716 30.6182 21.3919 31.3214 22.4444C32.0246 23.4968 32.4 24.7342 32.4 26C32.3981 27.6968 31.7232 29.3236 30.5234 30.5234C29.3236 31.7232 27.6968 32.3981 26 32.4ZM34.8 6H17.2C14.2306 6.00339 11.3838 7.18447 9.28415 9.28415C7.18447 11.3838 6.00339 14.2306 6 17.2V34.8C6.00339 37.7694 7.18447 40.6162 9.28415 42.7159C11.3838 44.8155 14.2306 45.9966 17.2 46H34.8C37.7694 45.9966 40.6162 44.8155 42.7159 42.7159C44.8155 40.6162 45.9966 37.7694 46 34.8V17.2C45.9966 14.2306 44.8155 11.3838 42.7159 9.28415C40.6162 7.18447 37.7694 6.00339 34.8 6ZM42.8 34.8C42.7976 36.921 41.954 38.9544 40.4542 40.4542C38.9544 41.954 36.921 42.7976 34.8 42.8H17.2C15.079 42.7976 13.0456 41.954 11.5458 40.4542C10.046 38.9544 9.20238 36.921 9.2 34.8V17.2C9.20238 15.079 10.046 13.0456 11.5458 11.5458C13.0456 10.046 15.079 9.20238 17.2 9.2H34.8C36.921 9.20238 38.9544 10.046 40.4542 11.5458C41.954 13.0456 42.7976 15.079 42.8 17.2V34.8ZM38.8 15.6C38.8 16.0747 38.6592 16.5387 38.3955 16.9334C38.1318 17.328 37.757 17.6357 37.3184 17.8173C36.8799 17.999 36.3973 18.0465 35.9318 17.9539C35.4662 17.8613 35.0386 17.6327 34.7029 17.2971C34.3673 16.9614 34.1387 16.5338 34.0461 16.0682C33.9535 15.6027 34.001 15.1201 34.1827 14.6816C34.3643 14.243 34.672 13.8682 35.0666 13.6045C35.4613 13.3408 35.9253 13.2 36.4 13.2C37.0365 13.2 37.647 13.4529 38.0971 13.9029C38.5471 14.353 38.8 14.9635 38.8 15.6Z" fill="white"/>
</svg>
