<svg width="50" height="50" viewBox="0 0 50 50" fill="none" xmlns="http://www.w3.org/2000/svg">
<rect x="0.428711" width="49.2143" height="49.2143" rx="12" fill="#90C1BF"/>
<g clip-path="url(#clip0_134_702)">
<path d="M24.0874 6.631C21.0493 6.66767 14.5178 7.16691 10.8646 10.5185C8.14714 13.211 7.19835 17.192 7.08714 22.1146C6.99487 27.0194 6.88366 36.2306 15.7623 38.7386V42.5586C15.7623 42.5586 15.7067 44.0871 16.7171 44.4006C17.9616 44.7946 18.6702 43.6186 19.8533 42.3551L22.0596 39.8601C28.1345 40.3653 32.7874 39.2012 33.3233 39.0284C34.556 38.6345 41.4993 37.7472 42.6338 28.5349C43.7979 19.0209 42.0671 13.0265 38.9427 10.315H38.9238C37.9809 9.44662 34.1917 6.68542 25.7259 6.65466C25.7259 6.65466 25.0977 6.61207 24.0874 6.62981V6.631ZM24.1915 9.30584C25.0539 9.29993 25.578 9.3366 25.578 9.3366C32.7436 9.35553 36.1638 11.5122 36.9706 12.2386C39.6017 14.4935 40.9575 19.8976 39.9649 27.8405C39.022 35.542 33.3908 36.0294 32.3485 36.3619C31.9049 36.5038 27.8068 37.5141 22.6441 37.1817C22.6441 37.1817 18.7992 41.8216 17.5972 43.0164C17.4068 43.2258 17.1844 43.2874 17.0424 43.2566C16.8389 43.2069 16.7774 42.9549 16.7892 42.6095L16.8259 36.2696C9.29587 34.1875 9.73951 26.3309 9.81996 22.227C9.91223 18.123 10.6824 14.7656 12.9751 12.4918C16.0617 9.70097 21.6077 9.32477 24.1891 9.30584H24.1915ZM24.7593 13.4086C24.6974 13.408 24.6359 13.4196 24.5784 13.4429C24.521 13.4661 24.4687 13.5005 24.4246 13.5441C24.3805 13.5876 24.3454 13.6395 24.3215 13.6966C24.2975 13.7538 24.2851 13.8151 24.2849 13.8771C24.2849 14.1421 24.5002 14.3515 24.7593 14.3515C25.9323 14.3292 27.0981 14.5393 28.1895 14.9698C29.2809 15.4002 30.2762 16.0425 31.1181 16.8595C32.8371 18.5288 33.6747 20.7718 33.7066 23.7046C33.7066 23.9637 33.916 24.179 34.181 24.179V24.16C34.3059 24.1604 34.4259 24.1113 34.5147 24.0235C34.6036 23.9358 34.6542 23.8164 34.6554 23.6916C34.7129 22.3111 34.489 20.9334 33.9975 19.6422C33.5059 18.351 32.7569 17.1732 31.796 16.1805C29.9233 14.3503 27.5501 13.4074 24.7593 13.4074V13.4086ZM18.5236 14.4935C18.1887 14.4445 17.8472 14.5117 17.5558 14.6839H17.531C16.8546 15.0804 16.2453 15.5815 15.7257 16.1686C15.2939 16.6679 15.0596 17.173 14.9981 17.6593C14.9614 17.9491 14.9863 18.2389 15.0726 18.5158L15.1034 18.5347C15.5896 19.9638 16.2249 21.3385 17.001 22.6327C18.0007 24.451 19.2309 26.1326 20.6613 27.6358L20.7039 27.6973L20.7713 27.747L20.8139 27.7967L20.8636 27.8393C22.3722 29.2738 24.0579 30.5098 25.8797 31.5173C27.9618 32.6507 29.2253 33.1866 29.9836 33.409V33.4208C30.206 33.4883 30.4083 33.519 30.6118 33.519C31.2581 33.4717 31.8699 33.2093 32.3497 32.7737C32.9341 32.254 33.4297 31.6422 33.8167 30.9625V30.9507C34.1798 30.2669 34.0568 29.6197 33.5327 29.182C32.4831 28.2646 31.3482 27.4497 30.1433 26.7485C29.3365 26.3108 28.5167 26.5758 28.1842 27.0194L27.4756 27.9126C27.1124 28.3563 26.4523 28.2947 26.4523 28.2947L26.4333 28.3066C21.5107 27.049 20.1975 22.0649 20.1975 22.0649C20.1975 22.0649 20.136 21.387 20.5915 21.0416L21.4788 20.327C21.9035 19.9816 22.1992 19.1629 21.7438 18.3549C21.0474 17.1484 20.2343 16.0131 19.3162 14.9655C19.1155 14.7185 18.8339 14.5505 18.5212 14.4911L18.5236 14.4935ZM25.578 15.8989C24.9498 15.8989 24.9498 16.8477 25.5839 16.8477C26.365 16.8604 27.136 17.0268 27.8528 17.3376C28.5696 17.6484 29.218 18.0974 29.7612 18.6589C30.2567 19.2055 30.6374 19.846 30.8809 20.5424C31.1243 21.2388 31.2255 21.977 31.1785 22.7132C31.1806 22.8378 31.2315 22.9566 31.3202 23.0441C31.4088 23.1317 31.5283 23.1811 31.6529 23.1817L31.6718 23.2065C31.7973 23.2056 31.9175 23.1553 32.0062 23.0665C32.095 22.9778 32.1453 22.8576 32.1462 22.7321C32.1888 20.8523 31.6044 19.2753 30.458 18.0118C29.3057 16.7483 27.698 16.0397 25.6454 15.8989H25.578ZM26.3552 18.4495C25.7081 18.4306 25.6833 19.3983 26.3245 19.4172C27.8837 19.4977 28.6409 20.2856 28.7402 21.9064C28.7424 22.0294 28.7926 22.1467 28.8802 22.2331C28.9678 22.3196 29.0857 22.3683 29.2087 22.3689H29.2277C29.2909 22.3662 29.353 22.3509 29.4103 22.324C29.4676 22.297 29.5189 22.2589 29.5613 22.2119C29.6037 22.1648 29.6363 22.1098 29.6572 22.0501C29.6782 21.9903 29.687 21.927 29.6831 21.8638C29.5719 19.7509 28.4196 18.5607 26.3742 18.4507H26.3552V18.4495Z" fill="white"/>
</g>
<defs>
<clipPath id="clip0_134_702">
<rect width="37.8571" height="37.8571" fill="white" transform="translate(6.10742 6.625)"/>
</clipPath>
</defs>
</svg>
