<svg width="118" height="118" viewBox="0 0 118 118" fill="none" xmlns="http://www.w3.org/2000/svg">
<rect width="118" height="118" rx="10" fill="#90C1BF"/>
<path d="M14.306 62.766C14.0527 62.766 13.8373 62.6773 13.66 62.5C13.4827 62.3227 13.394 62.1073 13.394 61.854V59.346C13.394 59.0673 13.4827 58.852 13.66 58.7C13.8373 58.5227 14.0527 58.434 14.306 58.434H25.972C26.2507 58.434 26.466 58.5227 26.618 58.7C26.7953 58.852 26.884 59.0673 26.884 59.346V61.854C26.884 62.1073 26.7953 62.3227 26.618 62.5C26.466 62.6773 26.2507 62.766 25.972 62.766H14.306ZM38.5963 72C38.343 72 38.1276 71.9113 37.9503 71.734C37.773 71.5567 37.6843 71.3413 37.6843 71.088V51.404L31.9083 55.85C31.7563 55.9767 31.579 56.04 31.3763 56.04C31.0723 56.04 30.819 55.9007 30.6163 55.622L29.0203 53.57C28.8936 53.3673 28.8303 53.1773 28.8303 53C28.8303 52.696 28.9696 52.4427 29.2483 52.24L37.7603 45.666C37.9883 45.4887 38.305 45.4 38.7103 45.4H42.0543C42.333 45.4 42.5483 45.4887 42.7003 45.666C42.8776 45.818 42.9663 46.0333 42.9663 46.312V71.088C42.9663 71.3413 42.8776 71.5567 42.7003 71.734C42.5483 71.9113 42.333 72 42.0543 72H38.5963ZM57.2882 72.418C55.1855 72.418 53.3742 72.0633 51.8542 71.354C50.3595 70.6447 49.2068 69.7073 48.3962 68.542C47.6108 67.3767 47.1928 66.1227 47.1422 64.78V64.704C47.1422 64.5013 47.2182 64.3367 47.3702 64.21C47.5222 64.0833 47.7122 64.02 47.9402 64.02H51.4742C52.0568 64.02 52.4368 64.2733 52.6142 64.78C52.9688 65.8947 53.5515 66.718 54.3622 67.25C55.1982 67.782 56.1735 68.048 57.2882 68.048C58.7068 68.048 59.8848 67.6173 60.8222 66.756C61.7848 65.8947 62.2662 64.6913 62.2662 63.146C62.2662 61.778 61.7848 60.6633 60.8222 59.802C59.8848 58.9407 58.7068 58.51 57.2882 58.51C56.5282 58.51 55.9075 58.6113 55.4262 58.814C54.9448 59.0167 54.4762 59.2953 54.0202 59.65C53.7162 59.878 53.4755 60.0427 53.2982 60.144C53.1462 60.22 52.9562 60.258 52.7282 60.258H49.2322C49.0042 60.258 48.8015 60.182 48.6242 60.03C48.4722 59.8527 48.3962 59.65 48.3962 59.422L49.7262 46.426C49.7515 46.122 49.8528 45.8813 50.0302 45.704C50.2328 45.5013 50.4862 45.4 50.7902 45.4H65.0782C65.3315 45.4 65.5468 45.4887 65.7242 45.666C65.9015 45.8433 65.9902 46.0587 65.9902 46.312V48.858C65.9902 49.1113 65.9015 49.3267 65.7242 49.504C65.5468 49.6813 65.3315 49.77 65.0782 49.77H54.0962L53.4882 55.964C54.7295 55.1027 56.3888 54.672 58.4662 54.672C60.1128 54.672 61.6328 55.0267 63.0262 55.736C64.4448 56.42 65.5722 57.4207 66.4082 58.738C67.2442 60.03 67.6622 61.5373 67.6622 63.26C67.6622 65.1093 67.2315 66.7307 66.3702 68.124C65.5088 69.492 64.2928 70.556 62.7222 71.316C61.1768 72.0507 59.3655 72.418 57.2882 72.418ZM76.5206 58.776C74.8486 58.776 73.5059 58.3327 72.4926 57.446C71.5046 56.5593 70.9599 55.356 70.8586 53.836C70.8333 53.4053 70.8206 52.8353 70.8206 52.126C70.8206 51.366 70.8333 50.758 70.8586 50.302C70.9599 48.7313 71.4919 47.49 72.4546 46.578C73.4173 45.666 74.7726 45.21 76.5206 45.21C78.2686 45.21 79.6239 45.666 80.5866 46.578C81.5746 47.49 82.1066 48.7313 82.1826 50.302C82.2333 51.3153 82.2586 51.974 82.2586 52.278C82.2586 52.5567 82.2333 53.076 82.1826 53.836C82.1066 55.356 81.5619 56.5593 80.5486 57.446C79.5606 58.3327 78.2179 58.776 76.5206 58.776ZM73.4046 72C73.1766 72 72.9866 71.9367 72.8346 71.81C72.6826 71.658 72.6066 71.468 72.6066 71.24C72.6066 71.088 72.6573 70.9487 72.7586 70.822L91.4926 46.122C91.6953 45.8687 91.8853 45.6913 92.0626 45.59C92.2399 45.4633 92.4806 45.4 92.7846 45.4H94.7986C95.0519 45.4 95.2419 45.476 95.3686 45.628C95.5206 45.7547 95.5966 45.932 95.5966 46.16C95.5966 46.312 95.5459 46.4513 95.4446 46.578L76.7106 71.278C76.5079 71.5313 76.3179 71.7213 76.1406 71.848C75.9633 71.9493 75.7226 72 75.4186 72H73.4046ZM76.5206 55.964C77.2553 55.964 77.7999 55.7487 78.1546 55.318C78.5093 54.862 78.7119 54.3047 78.7626 53.646C78.8133 52.7847 78.8386 52.2527 78.8386 52.05C78.8386 51.7713 78.8133 51.252 78.7626 50.492C78.7373 49.8333 78.5346 49.2887 78.1546 48.858C77.7999 48.402 77.2553 48.174 76.5206 48.174C75.7859 48.174 75.2413 48.402 74.8866 48.858C74.5319 49.2887 74.3419 49.8333 74.3166 50.492C74.2913 50.872 74.2786 51.3913 74.2786 52.05C74.2786 52.6833 74.2913 53.2153 74.3166 53.646C74.3673 54.3047 74.5573 54.862 74.8866 55.318C75.2413 55.7487 75.7859 55.964 76.5206 55.964ZM91.6826 72.228C90.0106 72.228 88.6679 71.772 87.6546 70.86C86.6666 69.9227 86.1219 68.6813 86.0206 67.136C85.9953 66.7053 85.9826 66.1353 85.9826 65.426C85.9826 64.6913 85.9953 64.096 86.0206 63.64C86.1219 62.0693 86.6539 60.828 87.6166 59.916C88.5793 59.004 89.9346 58.548 91.6826 58.548C93.4306 58.548 94.7859 59.004 95.7486 59.916C96.7366 60.828 97.2686 62.0693 97.3446 63.64C97.3953 64.6533 97.4206 65.2993 97.4206 65.578C97.4206 65.8567 97.3953 66.376 97.3446 67.136C97.2433 68.6813 96.6859 69.9227 95.6726 70.86C94.6846 71.772 93.3546 72.228 91.6826 72.228ZM91.6826 69.264C92.4426 69.264 92.9873 69.0487 93.3166 68.618C93.6713 68.162 93.8739 67.6173 93.9246 66.984C93.9753 66.1227 94.0006 65.5907 94.0006 65.388C94.0006 65.1093 93.9753 64.59 93.9246 63.83C93.8993 63.1713 93.6966 62.614 93.3166 62.158C92.9619 61.702 92.4173 61.474 91.6826 61.474C90.9479 61.474 90.4033 61.702 90.0486 62.158C89.6939 62.5887 89.4913 63.146 89.4406 63.83C89.4153 64.21 89.4026 64.7293 89.4026 65.388C89.4026 66.0213 89.4153 66.5533 89.4406 66.984C89.5166 67.6427 89.7193 68.1873 90.0486 68.618C90.4033 69.0487 90.9479 69.264 91.6826 69.264Z" fill="#FAFAF9"/>
<path d="M12.472 99.872C12.3653 99.872 12.2747 99.84 12.2 99.776C12.136 99.7013 12.104 99.6107 12.104 99.504V98.896C12.104 98.7893 12.136 98.704 12.2 98.64C12.2747 98.5653 12.3653 98.528 12.472 98.528H17.272C17.3787 98.528 17.464 98.5653 17.528 98.64C17.6027 98.704 17.64 98.7893 17.64 98.896V99.504C17.64 99.6107 17.6027 99.7013 17.528 99.776C17.464 99.84 17.3787 99.872 17.272 99.872H12.472ZM22.5723 104C22.4656 104 22.3749 103.968 22.3003 103.904C22.2363 103.829 22.2043 103.739 22.2043 103.632V94.672L19.5483 96.72C19.4736 96.784 19.3936 96.816 19.3083 96.816C19.2123 96.816 19.1216 96.7627 19.0363 96.656L18.6203 96.128C18.5669 96.0533 18.5403 95.9787 18.5403 95.904C18.5403 95.776 18.5936 95.6747 18.7003 95.6L22.1883 92.912C22.3056 92.8373 22.4443 92.8 22.6043 92.8H23.4203C23.5269 92.8 23.6123 92.8373 23.6763 92.912C23.7509 92.976 23.7883 93.0613 23.7883 93.168V103.632C23.7883 103.739 23.7509 103.829 23.6763 103.904C23.6123 103.968 23.5269 104 23.4203 104H22.5723ZM29.672 104.16C28.8613 104.16 28.1627 104.016 27.576 103.728C26.9893 103.44 26.536 103.061 26.216 102.592C25.9067 102.123 25.7413 101.621 25.72 101.088V101.056C25.72 100.971 25.752 100.901 25.816 100.848C25.88 100.795 25.9547 100.768 26.04 100.768H26.904C27.128 100.768 27.272 100.885 27.336 101.12C27.4853 101.685 27.7733 102.107 28.2 102.384C28.6267 102.661 29.1173 102.8 29.672 102.8C30.3867 102.8 30.9787 102.587 31.448 102.16C31.928 101.723 32.168 101.12 32.168 100.352C32.168 99.6587 31.928 99.0987 31.448 98.672C30.9787 98.2453 30.3867 98.032 29.672 98.032C29.288 98.032 28.9787 98.0853 28.744 98.192C28.5093 98.288 28.2747 98.4267 28.04 98.608C27.912 98.704 27.8 98.7787 27.704 98.832C27.6187 98.8747 27.5227 98.896 27.416 98.896H26.584C26.488 98.896 26.4027 98.864 26.328 98.8C26.2533 98.7253 26.2213 98.64 26.232 98.544L26.744 93.2C26.7547 93.072 26.792 92.976 26.856 92.912C26.9307 92.8373 27.0267 92.8 27.144 92.8H32.728C32.8347 92.8 32.92 92.8373 32.984 92.912C33.0587 92.976 33.096 93.0613 33.096 93.168V93.792C33.096 93.8987 33.0587 93.9893 32.984 94.064C32.92 94.128 32.8347 94.16 32.728 94.16H28.12L27.816 97.312C28.392 96.9493 29.0853 96.768 29.896 96.768C30.6 96.768 31.2453 96.912 31.832 97.2C32.4293 97.488 32.8987 97.904 33.24 98.448C33.592 98.992 33.768 99.632 33.768 100.368C33.768 101.157 33.592 101.84 33.24 102.416C32.8987 102.981 32.4187 103.413 31.8 103.712C31.1813 104.011 30.472 104.16 29.672 104.16ZM37.588 98.416C36.8947 98.416 36.3453 98.2347 35.94 97.872C35.5453 97.4987 35.3267 96.9867 35.284 96.336C35.2733 96.1547 35.268 95.92 35.268 95.632C35.268 95.3227 35.2733 95.072 35.284 94.88C35.316 94.2187 35.524 93.696 35.908 93.312C36.3027 92.9173 36.8627 92.72 37.588 92.72C38.3133 92.72 38.868 92.9173 39.252 93.312C39.6467 93.696 39.86 94.2187 39.892 94.88C39.9133 95.3067 39.924 95.5787 39.924 95.696C39.924 95.8027 39.9133 96.016 39.892 96.336C39.86 96.9867 39.6413 97.4987 39.236 97.872C38.8307 98.2347 38.2813 98.416 37.588 98.416ZM36.244 104C36.148 104 36.068 103.973 36.004 103.92C35.94 103.856 35.908 103.776 35.908 103.68C35.908 103.616 35.9293 103.557 35.972 103.504L43.876 93.104C43.9613 92.9867 44.036 92.9067 44.1 92.864C44.1747 92.8213 44.276 92.8 44.404 92.8H44.932C45.0387 92.8 45.1187 92.832 45.172 92.896C45.236 92.9493 45.268 93.024 45.268 93.12C45.268 93.184 45.2467 93.2427 45.204 93.296L37.316 103.696C37.2307 103.813 37.1507 103.893 37.076 103.936C37.012 103.979 36.9107 104 36.772 104H36.244ZM37.588 97.424C37.972 97.424 38.2493 97.312 38.42 97.088C38.6013 96.864 38.708 96.592 38.74 96.272C38.7613 95.888 38.772 95.664 38.772 95.6C38.772 95.504 38.7613 95.2853 38.74 94.944C38.7187 94.6133 38.612 94.336 38.42 94.112C38.2387 93.888 37.9613 93.776 37.588 93.776C37.2147 93.776 36.9373 93.888 36.756 94.112C36.5747 94.336 36.4733 94.6133 36.452 94.944C36.4413 95.1147 36.436 95.3333 36.436 95.6C36.436 95.856 36.4413 96.08 36.452 96.272C36.484 96.6027 36.5853 96.88 36.756 97.104C36.9373 97.3173 37.2147 97.424 37.588 97.424ZM43.572 104.096C42.8787 104.096 42.3293 103.904 41.924 103.52C41.5293 103.125 41.3107 102.603 41.268 101.952C41.2573 101.771 41.252 101.536 41.252 101.248C41.252 100.939 41.2573 100.688 41.268 100.496C41.3107 99.8347 41.524 99.312 41.908 98.928C42.3027 98.5333 42.8573 98.336 43.572 98.336C44.2973 98.336 44.852 98.5333 45.236 98.928C45.6307 99.312 45.8493 99.8347 45.892 100.496C45.9133 100.88 45.924 101.131 45.924 101.248C45.924 101.355 45.9133 101.589 45.892 101.952C45.8493 102.603 45.6253 103.125 45.22 103.52C44.8147 103.904 44.2653 104.096 43.572 104.096ZM43.572 103.04C43.956 103.04 44.2333 102.928 44.404 102.704C44.5853 102.48 44.692 102.208 44.724 101.888C44.7453 101.504 44.756 101.28 44.756 101.216C44.756 101.12 44.7453 100.901 44.724 100.56C44.7027 100.229 44.6013 99.952 44.42 99.728C44.2387 99.504 43.956 99.392 43.572 99.392C43.1987 99.392 42.9213 99.504 42.74 99.728C42.5587 99.952 42.4573 100.229 42.436 100.56C42.4253 100.731 42.42 100.949 42.42 101.216C42.42 101.472 42.4253 101.696 42.436 101.888C42.468 102.208 42.5693 102.48 42.74 102.704C42.9213 102.928 43.1987 103.04 43.572 103.04Z" fill="#FAFAF9"/>
<path d="M63.472 25.872C63.3653 25.872 63.2747 25.84 63.2 25.776C63.136 25.7013 63.104 25.6107 63.104 25.504V24.896C63.104 24.7893 63.136 24.704 63.2 24.64C63.2747 24.5653 63.3653 24.528 63.472 24.528H68.272C68.3787 24.528 68.464 24.5653 68.528 24.64C68.6027 24.704 68.64 24.7893 68.64 24.896V25.504C68.64 25.6107 68.6027 25.7013 68.528 25.776C68.464 25.84 68.3787 25.872 68.272 25.872H63.472ZM73.5723 30C73.4656 30 73.3749 29.968 73.3003 29.904C73.2363 29.8293 73.2043 29.7387 73.2043 29.632V20.672L70.5483 22.72C70.4736 22.784 70.3936 22.816 70.3083 22.816C70.2123 22.816 70.1216 22.7627 70.0363 22.656L69.6203 22.128C69.5669 22.0533 69.5403 21.9787 69.5403 21.904C69.5403 21.776 69.5936 21.6747 69.7003 21.6L73.1883 18.912C73.3056 18.8373 73.4443 18.8 73.6043 18.8H74.4203C74.5269 18.8 74.6123 18.8373 74.6763 18.912C74.7509 18.976 74.7883 19.0613 74.7883 19.168V29.632C74.7883 29.7387 74.7509 29.8293 74.6763 29.904C74.6123 29.968 74.5269 30 74.4203 30H73.5723ZM80.672 30.16C79.8613 30.16 79.1627 30.016 78.576 29.728C77.9893 29.44 77.536 29.0613 77.216 28.592C76.9067 28.1227 76.7413 27.6213 76.72 27.088V27.056C76.72 26.9707 76.752 26.9013 76.816 26.848C76.88 26.7947 76.9547 26.768 77.04 26.768H77.904C78.128 26.768 78.272 26.8853 78.336 27.12C78.4853 27.6853 78.7733 28.1067 79.2 28.384C79.6267 28.6613 80.1173 28.8 80.672 28.8C81.3867 28.8 81.9787 28.5867 82.448 28.16C82.928 27.7227 83.168 27.12 83.168 26.352C83.168 25.6587 82.928 25.0987 82.448 24.672C81.9787 24.2453 81.3867 24.032 80.672 24.032C80.288 24.032 79.9787 24.0853 79.744 24.192C79.5093 24.288 79.2747 24.4267 79.04 24.608C78.912 24.704 78.8 24.7787 78.704 24.832C78.6187 24.8747 78.5227 24.896 78.416 24.896H77.584C77.488 24.896 77.4027 24.864 77.328 24.8C77.2533 24.7253 77.2213 24.64 77.232 24.544L77.744 19.2C77.7547 19.072 77.792 18.976 77.856 18.912C77.9307 18.8373 78.0267 18.8 78.144 18.8H83.728C83.8347 18.8 83.92 18.8373 83.984 18.912C84.0587 18.976 84.096 19.0613 84.096 19.168V19.792C84.096 19.8987 84.0587 19.9893 83.984 20.064C83.92 20.128 83.8347 20.16 83.728 20.16H79.12L78.816 23.312C79.392 22.9493 80.0853 22.768 80.896 22.768C81.6 22.768 82.2453 22.912 82.832 23.2C83.4293 23.488 83.8987 23.904 84.24 24.448C84.592 24.992 84.768 25.632 84.768 26.368C84.768 27.1573 84.592 27.84 84.24 28.416C83.8987 28.9813 83.4187 29.4133 82.8 29.712C82.1813 30.0107 81.472 30.16 80.672 30.16ZM88.588 24.416C87.8947 24.416 87.3453 24.2347 86.94 23.872C86.5453 23.4987 86.3267 22.9867 86.284 22.336C86.2733 22.1547 86.268 21.92 86.268 21.632C86.268 21.3227 86.2733 21.072 86.284 20.88C86.316 20.2187 86.524 19.696 86.908 19.312C87.3027 18.9173 87.8627 18.72 88.588 18.72C89.3133 18.72 89.868 18.9173 90.252 19.312C90.6467 19.696 90.86 20.2187 90.892 20.88C90.9133 21.3067 90.924 21.5787 90.924 21.696C90.924 21.8027 90.9133 22.016 90.892 22.336C90.86 22.9867 90.6413 23.4987 90.236 23.872C89.8307 24.2347 89.2813 24.416 88.588 24.416ZM87.244 30C87.148 30 87.068 29.9733 87.004 29.92C86.94 29.856 86.908 29.776 86.908 29.68C86.908 29.616 86.9293 29.5573 86.972 29.504L94.876 19.104C94.9613 18.9867 95.036 18.9067 95.1 18.864C95.1747 18.8213 95.276 18.8 95.404 18.8H95.932C96.0387 18.8 96.1187 18.832 96.172 18.896C96.236 18.9493 96.268 19.024 96.268 19.12C96.268 19.184 96.2467 19.2427 96.204 19.296L88.316 29.696C88.2307 29.8133 88.1507 29.8933 88.076 29.936C88.012 29.9787 87.9107 30 87.772 30H87.244ZM88.588 23.424C88.972 23.424 89.2493 23.312 89.42 23.088C89.6013 22.864 89.708 22.592 89.74 22.272C89.7613 21.888 89.772 21.664 89.772 21.6C89.772 21.504 89.7613 21.2853 89.74 20.944C89.7187 20.6133 89.612 20.336 89.42 20.112C89.2387 19.888 88.9613 19.776 88.588 19.776C88.2147 19.776 87.9373 19.888 87.756 20.112C87.5747 20.336 87.4733 20.6133 87.452 20.944C87.4413 21.1147 87.436 21.3333 87.436 21.6C87.436 21.856 87.4413 22.08 87.452 22.272C87.484 22.6027 87.5853 22.88 87.756 23.104C87.9373 23.3173 88.2147 23.424 88.588 23.424ZM94.572 30.096C93.8787 30.096 93.3293 29.904 92.924 29.52C92.5293 29.1253 92.3107 28.6027 92.268 27.952C92.2573 27.7707 92.252 27.536 92.252 27.248C92.252 26.9387 92.2573 26.688 92.268 26.496C92.3107 25.8347 92.524 25.312 92.908 24.928C93.3027 24.5333 93.8573 24.336 94.572 24.336C95.2973 24.336 95.852 24.5333 96.236 24.928C96.6307 25.312 96.8493 25.8347 96.892 26.496C96.9133 26.88 96.924 27.1307 96.924 27.248C96.924 27.3547 96.9133 27.5893 96.892 27.952C96.8493 28.6027 96.6253 29.1253 96.22 29.52C95.8147 29.904 95.2653 30.096 94.572 30.096ZM94.572 29.04C94.956 29.04 95.2333 28.928 95.404 28.704C95.5853 28.48 95.692 28.208 95.724 27.888C95.7453 27.504 95.756 27.28 95.756 27.216C95.756 27.12 95.7453 26.9013 95.724 26.56C95.7027 26.2293 95.6013 25.952 95.42 25.728C95.2387 25.504 94.956 25.392 94.572 25.392C94.1987 25.392 93.9213 25.504 93.74 25.728C93.5587 25.952 93.4573 26.2293 93.436 26.56C93.4253 26.7307 93.42 26.9493 93.42 27.216C93.42 27.472 93.4253 27.696 93.436 27.888C93.468 28.208 93.5693 28.48 93.74 28.704C93.9213 28.928 94.1987 29.04 94.572 29.04Z" fill="#FAFAF9"/>
</svg>
