<svg width="71" height="71" viewBox="0 0 71 71" fill="none" xmlns="http://www.w3.org/2000/svg">
<circle cx="35.5" cy="35.5" r="35.5" fill="#90C1BF"/>
<path fill-rule="evenodd" clip-rule="evenodd" d="M56 34.4056C56 44.0185 47.045 51.8113 36 51.8113C34.0191 51.814 32.0465 51.5581 30.1325 51.0504C28.6725 51.7864 25.32 53.1988 19.68 54.1188C19.18 54.1984 18.8 53.6812 18.9975 53.2187C19.8825 51.1399 20.6825 48.37 20.9225 45.8436C17.86 42.7852 16 38.7819 16 34.4056C16 24.7928 24.955 17 36 17C47.045 17 56 24.7928 56 34.4056ZM33.985 31.3373C34.2025 31.6456 34.3925 31.9838 34.5525 32.3344C35.6225 34.6916 35.535 38.2448 32.1975 41.5494C31.9938 41.7469 31.7219 41.8595 31.4375 41.8641C31.153 41.8687 30.8776 41.765 30.6675 41.5743C30.5651 41.482 30.4827 41.3698 30.4255 41.2447C30.3683 41.1196 30.3375 40.9841 30.3349 40.8467C30.3323 40.7092 30.3581 40.5727 30.4105 40.4456C30.463 40.3184 30.5411 40.2033 30.64 40.1072C31.6875 39.0728 32.32 38.0409 32.6625 37.0737C31.99 37.484 31.1925 37.7202 30.3375 37.7202C27.9375 37.7202 26 35.8652 26 33.5776C26 31.29 27.94 29.4326 30.335 29.4326C31.0125 29.4326 31.655 29.5818 32.225 29.8454L32.245 29.8553C32.6675 30.0294 33.0625 30.3079 33.4175 30.6609C33.63 30.8673 33.82 31.0936 33.985 31.3373ZM43.5 37.0737C42.8275 37.484 42.03 37.7202 41.175 37.7202C38.78 37.7202 36.8375 35.8652 36.8375 33.5776C36.8375 31.29 38.78 29.4326 41.1725 29.4326C41.85 29.4326 42.4925 29.5818 43.0625 29.8454L43.0825 29.8553C43.5075 30.0294 43.9 30.3079 44.255 30.6609C44.4675 30.8673 44.6575 31.0936 44.8225 31.3373C45.04 31.6456 45.2325 31.9838 45.3925 32.3344C46.4625 34.6916 46.3725 38.2448 43.0375 41.5494C42.8337 41.7476 42.5612 41.8607 42.2762 41.8653C41.9912 41.8699 41.7152 41.7658 41.505 41.5743C41.4026 41.482 41.3202 41.3698 41.263 41.2447C41.2058 41.1196 41.175 40.9841 41.1724 40.8467C41.1698 40.7092 41.1956 40.5727 41.248 40.4456C41.3005 40.3184 41.3786 40.2033 41.4775 40.1072C42.5275 39.0728 43.1575 38.0409 43.5025 37.0737H43.5Z" fill="#222528"/>
</svg>
