<svg width="142" height="30" viewBox="0 0 142 30" fill="none" xmlns="http://www.w3.org/2000/svg">
<path d="M27.4998 12.0875C27.4209 11.8588 27.2773 11.658 27.0865 11.5093C26.8957 11.3607 26.6658 11.2706 26.4248 11.25L19.3123 10.2125L16.1248 3.74997C16.0225 3.53863 15.8627 3.3604 15.6637 3.23568C15.4647 3.11097 15.2347 3.04483 14.9998 3.04483C14.765 3.04483 14.535 3.11097 14.336 3.23568C14.137 3.3604 13.9772 3.53863 13.8748 3.74997L10.6873 10.2L3.57485 11.25C3.3435 11.2829 3.126 11.3799 2.94704 11.5302C2.76807 11.6804 2.6348 11.8778 2.56235 12.1C2.49603 12.3171 2.49008 12.5481 2.54513 12.7683C2.60019 12.9886 2.71417 13.1896 2.87485 13.35L8.03735 18.35L6.78735 25.45C6.73688 25.6855 6.75554 25.9306 6.84108 26.1558C6.92662 26.3809 7.0754 26.5766 7.26951 26.7192C7.46363 26.8618 7.69481 26.9453 7.93526 26.9597C8.17571 26.974 8.41517 26.9185 8.62485 26.8L14.9998 23.4625L21.3748 26.8C21.5503 26.8989 21.7484 26.9506 21.9498 26.95C22.2146 26.9509 22.4729 26.8678 22.6873 26.7125C22.8813 26.5735 23.0314 26.382 23.12 26.1605C23.2086 25.939 23.232 25.6968 23.1873 25.4625L21.9373 18.3625L27.0998 13.3625C27.2803 13.2096 27.4137 13.0086 27.4845 12.7829C27.5553 12.5572 27.5606 12.3161 27.4998 12.0875ZM19.8123 17.0875C19.6677 17.228 19.5591 17.4014 19.496 17.593C19.4329 17.7845 19.417 17.9885 19.4498 18.1875L20.3498 23.4375L15.6498 20.9375C15.4672 20.8471 15.2661 20.8001 15.0623 20.8001C14.8586 20.8001 14.6575 20.8471 14.4748 20.9375L9.77485 23.4375L10.6748 18.1875C10.7076 17.9885 10.6918 17.7845 10.6287 17.593C10.5656 17.4014 10.457 17.228 10.3123 17.0875L6.56235 13.3375L11.8248 12.575C12.0273 12.5468 12.2198 12.4694 12.3855 12.3495C12.5511 12.2297 12.6848 12.071 12.7748 11.8875L14.9998 7.12497L17.3498 11.9C17.4399 12.0835 17.5736 12.2422 17.7392 12.362C17.9049 12.4819 18.0974 12.5593 18.2998 12.5875L23.5623 13.35L19.8123 17.0875Z" fill="#F2B236"/>
<path d="M55.4998 12.0875C55.4209 11.8588 55.2773 11.658 55.0865 11.5093C54.8957 11.3607 54.6658 11.2706 54.4248 11.25L47.3123 10.2125L44.1248 3.74997C44.0225 3.53863 43.8627 3.3604 43.6637 3.23568C43.4647 3.11097 43.2347 3.04483 42.9998 3.04483C42.765 3.04483 42.535 3.11097 42.336 3.23568C42.137 3.3604 41.9772 3.53863 41.8748 3.74997L38.6873 10.2L31.5748 11.25C31.3435 11.2829 31.126 11.3799 30.947 11.5302C30.7681 11.6804 30.6348 11.8778 30.5623 12.1C30.496 12.3171 30.4901 12.5481 30.5451 12.7683C30.6002 12.9886 30.7142 13.1896 30.8748 13.35L36.0373 18.35L34.7873 25.45C34.7369 25.6855 34.7555 25.9306 34.8411 26.1558C34.9266 26.3809 35.0754 26.5766 35.2695 26.7192C35.4636 26.8618 35.6948 26.9453 35.9353 26.9597C36.1757 26.974 36.4152 26.9185 36.6248 26.8L42.9998 23.4625L49.3748 26.8C49.5503 26.8989 49.7484 26.9506 49.9498 26.95C50.2146 26.9509 50.4729 26.8678 50.6873 26.7125C50.8813 26.5735 51.0314 26.382 51.12 26.1605C51.2086 25.939 51.232 25.6968 51.1873 25.4625L49.9373 18.3625L55.0998 13.3625C55.2803 13.2096 55.4137 13.0086 55.4845 12.7829C55.5553 12.5572 55.5606 12.3161 55.4998 12.0875ZM47.8123 17.0875C47.6677 17.228 47.5591 17.4014 47.496 17.593C47.4329 17.7845 47.417 17.9885 47.4498 18.1875L48.3498 23.4375L43.6498 20.9375C43.4672 20.8471 43.2661 20.8001 43.0623 20.8001C42.8586 20.8001 42.6575 20.8471 42.4748 20.9375L37.7748 23.4375L38.6748 18.1875C38.7076 17.9885 38.6918 17.7845 38.6287 17.593C38.5656 17.4014 38.457 17.228 38.3123 17.0875L34.5623 13.3375L39.8248 12.575C40.0273 12.5468 40.2198 12.4694 40.3855 12.3495C40.5511 12.2297 40.6848 12.071 40.7748 11.8875L42.9998 7.12497L45.3498 11.9C45.4399 12.0835 45.5736 12.2422 45.7392 12.362C45.9049 12.4819 46.0974 12.5593 46.2998 12.5875L51.5623 13.35L47.8123 17.0875Z" fill="#F2B236"/>
<path d="M83.4998 12.0875C83.4209 11.8588 83.2773 11.658 83.0865 11.5093C82.8957 11.3607 82.6658 11.2706 82.4248 11.25L75.3123 10.2125L72.1248 3.74997C72.0225 3.53863 71.8627 3.3604 71.6637 3.23568C71.4647 3.11097 71.2347 3.04483 70.9998 3.04483C70.765 3.04483 70.535 3.11097 70.336 3.23568C70.137 3.3604 69.9772 3.53863 69.8748 3.74997L66.6873 10.2L59.5748 11.25C59.3435 11.2829 59.126 11.3799 58.947 11.5302C58.7681 11.6804 58.6348 11.8778 58.5623 12.1C58.496 12.3171 58.4901 12.5481 58.5451 12.7683C58.6002 12.9886 58.7142 13.1896 58.8748 13.35L64.0373 18.35L62.7873 25.45C62.7369 25.6855 62.7555 25.9306 62.8411 26.1558C62.9266 26.3809 63.0754 26.5766 63.2695 26.7192C63.4636 26.8618 63.6948 26.9453 63.9353 26.9597C64.1757 26.974 64.4152 26.9185 64.6248 26.8L70.9998 23.4625L77.3748 26.8C77.5503 26.8989 77.7484 26.9506 77.9498 26.95C78.2146 26.9509 78.4729 26.8678 78.6873 26.7125C78.8813 26.5735 79.0314 26.382 79.12 26.1605C79.2086 25.939 79.232 25.6968 79.1873 25.4625L77.9373 18.3625L83.0998 13.3625C83.2803 13.2096 83.4137 13.0086 83.4845 12.7829C83.5553 12.5572 83.5606 12.3161 83.4998 12.0875ZM75.8123 17.0875C75.6677 17.228 75.5591 17.4014 75.496 17.593C75.4329 17.7845 75.417 17.9885 75.4498 18.1875L76.3498 23.4375L71.6498 20.9375C71.4672 20.8471 71.2661 20.8001 71.0623 20.8001C70.8586 20.8001 70.6575 20.8471 70.4748 20.9375L65.7748 23.4375L66.6748 18.1875C66.7076 17.9885 66.6918 17.7845 66.6287 17.593C66.5656 17.4014 66.457 17.228 66.3123 17.0875L62.5623 13.3375L67.8248 12.575C68.0273 12.5468 68.2198 12.4694 68.3855 12.3495C68.5511 12.2297 68.6848 12.071 68.7748 11.8875L70.9998 7.12497L73.3498 11.9C73.4399 12.0835 73.5736 12.2422 73.7392 12.362C73.9049 12.4819 74.0974 12.5593 74.2998 12.5875L79.5623 13.35L75.8123 17.0875Z" fill="#F2B236"/>
<path d="M111.5 12.0875C111.421 11.8588 111.277 11.658 111.087 11.5093C110.896 11.3607 110.666 11.2706 110.425 11.25L103.312 10.2125L100.125 3.74997C100.022 3.53863 99.8627 3.3604 99.6637 3.23568C99.4647 3.11097 99.2347 3.04483 98.9998 3.04483C98.765 3.04483 98.535 3.11097 98.336 3.23568C98.137 3.3604 97.9772 3.53863 97.8748 3.74997L94.6873 10.2L87.5748 11.25C87.3435 11.2829 87.126 11.3799 86.947 11.5302C86.7681 11.6804 86.6348 11.8778 86.5623 12.1C86.496 12.3171 86.4901 12.5481 86.5451 12.7683C86.6002 12.9886 86.7142 13.1896 86.8748 13.35L92.0373 18.35L90.7873 25.45C90.7369 25.6855 90.7555 25.9306 90.8411 26.1558C90.9266 26.3809 91.0754 26.5766 91.2695 26.7192C91.4636 26.8618 91.6948 26.9453 91.9353 26.9597C92.1757 26.974 92.4152 26.9185 92.6248 26.8L98.9998 23.4625L105.375 26.8C105.55 26.8989 105.748 26.9506 105.95 26.95C106.215 26.9509 106.473 26.8678 106.687 26.7125C106.881 26.5735 107.031 26.382 107.12 26.1605C107.209 25.939 107.232 25.6968 107.187 25.4625L105.937 18.3625L111.1 13.3625C111.28 13.2096 111.414 13.0086 111.485 12.7829C111.555 12.5572 111.561 12.3161 111.5 12.0875ZM103.812 17.0875C103.668 17.228 103.559 17.4014 103.496 17.593C103.433 17.7845 103.417 17.9885 103.45 18.1875L104.35 23.4375L99.6498 20.9375C99.4672 20.8471 99.2661 20.8001 99.0623 20.8001C98.8586 20.8001 98.6575 20.8471 98.4748 20.9375L93.7748 23.4375L94.6748 18.1875C94.7076 17.9885 94.6918 17.7845 94.6287 17.593C94.5656 17.4014 94.457 17.228 94.3123 17.0875L90.5623 13.3375L95.8248 12.575C96.0273 12.5468 96.2198 12.4694 96.3855 12.3495C96.5511 12.2297 96.6848 12.071 96.7748 11.8875L98.9998 7.12497L101.35 11.9C101.44 12.0835 101.574 12.2422 101.739 12.362C101.905 12.4819 102.097 12.5593 102.3 12.5875L107.562 13.35L103.812 17.0875Z" fill="#F2B236"/>
<path d="M139.5 12.0875C139.421 11.8588 139.277 11.658 139.087 11.5093C138.896 11.3607 138.666 11.2706 138.425 11.25L131.312 10.2125L128.125 3.74997C128.022 3.53863 127.863 3.3604 127.664 3.23568C127.465 3.11097 127.235 3.04483 127 3.04483C126.765 3.04483 126.535 3.11097 126.336 3.23568C126.137 3.3604 125.977 3.53863 125.875 3.74997L122.687 10.2L115.575 11.25C115.344 11.2829 115.126 11.3799 114.947 11.5302C114.768 11.6804 114.635 11.8778 114.562 12.1C114.496 12.3171 114.49 12.5481 114.545 12.7683C114.6 12.9886 114.714 13.1896 114.875 13.35L120.037 18.35L118.787 25.45C118.737 25.6855 118.756 25.9306 118.841 26.1558C118.927 26.3809 119.075 26.5766 119.27 26.7192C119.464 26.8618 119.695 26.9453 119.935 26.9597C120.176 26.974 120.415 26.9185 120.625 26.8L127 23.4625L133.375 26.8C133.55 26.8989 133.748 26.9506 133.95 26.95C134.215 26.9509 134.473 26.8678 134.687 26.7125C134.881 26.5735 135.031 26.382 135.12 26.1605C135.209 25.939 135.232 25.6968 135.187 25.4625L133.937 18.3625L139.1 13.3625C139.28 13.2096 139.414 13.0086 139.485 12.7829C139.555 12.5572 139.561 12.3161 139.5 12.0875ZM131.812 17.0875C131.668 17.228 131.559 17.4014 131.496 17.593C131.433 17.7845 131.417 17.9885 131.45 18.1875L132.35 23.4375L127.65 20.9375C127.467 20.8471 127.266 20.8001 127.062 20.8001C126.859 20.8001 126.658 20.8471 126.475 20.9375L121.775 23.4375L122.675 18.1875C122.708 17.9885 122.692 17.7845 122.629 17.593C122.566 17.4014 122.457 17.228 122.312 17.0875L118.562 13.3375L123.825 12.575C124.027 12.5468 124.22 12.4694 124.385 12.3495C124.551 12.2297 124.685 12.071 124.775 11.8875L127 7.12497L129.35 11.9C129.44 12.0835 129.574 12.2422 129.739 12.362C129.905 12.4819 130.097 12.5593 130.3 12.5875L135.562 13.35L131.812 17.0875Z" fill="#F2B236"/>
</svg>
