<svg width="14" height="8" viewBox="0 0 14 8" fill="none" xmlns="http://www.w3.org/2000/svg">
<path d="M6.99865 3.01975L2.57365 7.44475C2.33945 7.67756 2.02264 7.80824 1.6924 7.80824C1.36217 7.80824 1.04536 7.67756 0.811154 7.44475C0.693993 7.32854 0.601 7.19029 0.537539 7.03797C0.474078 6.88564 0.441406 6.72226 0.441406 6.55725C0.441406 6.39223 0.474078 6.22885 0.537539 6.07652C0.601 5.9242 0.693993 5.78595 0.811154 5.66975L6.11115 0.369748C6.22736 0.252587 6.36561 0.159595 6.51793 0.0961342C6.67026 0.0326734 6.83364 2.79413e-07 6.99865 2.86626e-07C7.16367 2.93839e-07 7.32705 0.0326734 7.47937 0.0961342C7.6317 0.159595 7.76995 0.252588 7.88615 0.369748L13.2487 5.66975C13.3645 5.78655 13.4562 5.92507 13.5184 6.07736C13.5806 6.22966 13.6121 6.39274 13.6112 6.55725C13.6121 6.72175 13.5806 6.88483 13.5184 7.03713C13.4562 7.18943 13.3645 7.32795 13.2487 7.44475C13.0145 7.67756 12.6976 7.80824 12.3674 7.80824C12.0372 7.80824 11.7204 7.67756 11.4862 7.44475L6.99865 3.01975Z" fill="#222528"/>
</svg>
