<svg width="52" height="52" viewBox="0 0 52 52" fill="none" xmlns="http://www.w3.org/2000/svg">
<rect width="52" height="52" rx="12" fill="#90C1BF"/>
<path d="M24.9985 7.00631C21.7885 7.04506 14.8872 7.57256 11.0272 11.1138C8.15599 13.9588 7.15349 18.1651 7.03599 23.3663C6.93849 28.5488 6.82099 38.2813 16.2022 40.9313V44.9676C16.2022 44.9676 16.1435 46.5826 17.211 46.9138C18.526 47.3301 19.2747 46.0876 20.5247 44.7526L22.856 42.1163C29.2747 42.6501 34.191 41.4201 34.7572 41.2376C36.0597 40.8213 43.396 39.8838 44.5947 30.1501C45.8247 20.0976 43.996 13.7638 40.6947 10.8988H40.6747C39.6785 9.98131 35.6747 7.06381 26.7297 7.03131C26.7297 7.03131 26.066 6.98631 24.9985 7.00506V7.00631ZM25.1085 9.83256C26.0197 9.82631 26.5735 9.86506 26.5735 9.86506C34.1447 9.88506 37.7585 12.1638 38.611 12.9313C41.391 15.3138 42.8235 21.0238 41.7747 29.4163C40.7785 37.5538 34.8285 38.0688 33.7272 38.4201C33.2585 38.5701 28.9285 39.6376 23.4735 39.2863C23.4735 39.2863 19.411 44.1888 18.141 45.4513C17.9397 45.6726 17.7047 45.7376 17.5547 45.7051C17.3397 45.6526 17.2747 45.3863 17.2872 45.0213L17.326 38.3226C9.36974 36.1226 9.83849 27.8213 9.92349 23.4851C10.021 19.1488 10.8347 15.6013 13.2572 13.1988C16.5185 10.2501 22.3785 9.85256 25.106 9.83256H25.1085ZM25.7085 14.1676C25.643 14.1669 25.578 14.1792 25.5173 14.2038C25.4566 14.2283 25.4014 14.2647 25.3548 14.3107C25.3082 14.3567 25.2712 14.4115 25.2458 14.4719C25.2205 14.5323 25.2074 14.5971 25.2072 14.6626C25.2072 14.9426 25.4347 15.1638 25.7085 15.1638C26.9479 15.1402 28.1797 15.3623 29.3328 15.8171C30.486 16.2719 31.5376 16.9505 32.4272 17.8138C34.2435 19.5776 35.1285 21.9476 35.1622 25.0463C35.1622 25.3201 35.3835 25.5476 35.6635 25.5476V25.5276C35.7955 25.5279 35.9222 25.476 36.0161 25.3833C36.11 25.2906 36.1634 25.1645 36.1647 25.0326C36.2254 23.574 35.9889 22.1183 35.4695 20.754C34.9501 19.3897 34.1588 18.1453 33.1435 17.0963C31.1647 15.1626 28.6572 14.1663 25.7085 14.1663V14.1676ZM19.1197 15.3138C18.7659 15.2621 18.4051 15.3331 18.0972 15.5151H18.071C17.3563 15.934 16.7125 16.4635 16.1635 17.0838C15.7072 17.6113 15.4597 18.1451 15.3947 18.6588C15.356 18.9651 15.3822 19.2713 15.4735 19.5638L15.506 19.5838C16.0197 21.0938 16.691 22.5463 17.511 23.9138C18.5673 25.835 19.8672 27.6118 21.3785 29.2001L21.4235 29.2651L21.4947 29.3176L21.5397 29.3701L21.5922 29.4151C23.1863 30.9308 24.9673 32.2368 26.8922 33.3013C29.0922 34.4988 30.4272 35.0651 31.2285 35.3001V35.3126C31.4635 35.3838 31.6772 35.4163 31.8922 35.4163C32.5751 35.3663 33.2215 35.089 33.7285 34.6288C34.346 34.0797 34.8696 33.4332 35.2785 32.7151V32.7026C35.6622 31.9801 35.5322 31.2963 34.9785 30.8338C33.8695 29.8644 32.6703 29.0034 31.3972 28.2626C30.5447 27.8001 29.6785 28.0801 29.3272 28.5488L28.5785 29.4926C28.1947 29.9613 27.4972 29.8963 27.4972 29.8963L27.4772 29.9088C22.276 28.5801 20.8885 23.3138 20.8885 23.3138C20.8885 23.3138 20.8235 22.5976 21.3047 22.2326L22.2422 21.4776C22.691 21.1126 23.0035 20.2476 22.5222 19.3938C21.7865 18.119 20.9274 16.9195 19.9572 15.8126C19.7452 15.5516 19.4476 15.374 19.1172 15.3113L19.1197 15.3138ZM26.5735 16.7988C25.9097 16.7988 25.9097 17.8013 26.5797 17.8013C27.4051 17.8147 28.2197 17.9906 28.977 18.319C29.7344 18.6473 30.4196 19.1217 30.9935 19.7151C31.517 20.2926 31.9193 20.9693 32.1765 21.7051C32.4338 22.4409 32.5407 23.2209 32.491 23.9988C32.4933 24.1305 32.547 24.256 32.6407 24.3485C32.7344 24.441 32.8606 24.4932 32.9922 24.4938L33.0122 24.5201C33.1449 24.5191 33.2718 24.466 33.3656 24.3722C33.4594 24.2784 33.5125 24.1514 33.5135 24.0188C33.5585 22.0326 32.941 20.3663 31.7297 19.0313C30.5122 17.6963 28.8135 16.9476 26.6447 16.7988H26.5735ZM27.3947 19.4938C26.711 19.4738 26.6847 20.4963 27.3622 20.5163C29.0097 20.6013 29.8097 21.4338 29.9147 23.1463C29.917 23.2763 29.9701 23.4002 30.0626 23.4916C30.1551 23.5829 30.2797 23.6344 30.4097 23.6351H30.4297C30.4966 23.6322 30.5622 23.616 30.6227 23.5875C30.6832 23.5591 30.7375 23.5188 30.7823 23.4691C30.8271 23.4194 30.8615 23.3613 30.8836 23.2982C30.9057 23.235 30.915 23.1681 30.911 23.1013C30.7935 20.8688 29.576 19.6113 27.4147 19.4951H27.3947V19.4938Z" fill="white"/>
</svg>
