<svg width="50" height="50" viewBox="0 0 50 50" fill="none" xmlns="http://www.w3.org/2000/svg">
<rect x="0.214355" width="49.2143" height="49.2143" rx="12" fill="#90C1BF"/>
<path fill-rule="evenodd" clip-rule="evenodd" d="M37.5635 11.181C35.9047 9.43164 33.9309 8.04456 31.7567 7.10008C29.5825 6.1556 27.251 5.6725 24.8973 5.67877C15.0275 5.67877 6.99295 14.094 6.98896 24.438C6.98896 27.744 7.81276 30.9705 9.37859 33.8166L6.83936 43.5359L16.3321 40.9258C18.9579 42.4233 21.8996 43.2085 24.8893 43.2099H24.8973C34.765 43.2099 42.7996 34.7946 42.8036 24.4506C42.8103 21.9857 42.3507 19.5439 41.4513 17.2663C40.5519 14.9887 39.2305 12.9204 37.5635 11.181ZM24.8973 40.044H24.8913C22.2254 40.0443 19.6086 39.2928 17.3155 37.8686L16.7729 37.53L11.1399 39.0785L12.6419 33.3256L12.2888 32.7363C10.7984 30.2504 10.0094 27.3736 10.0129 24.438C10.0169 15.841 16.6931 8.84676 24.9032 8.84676C26.8585 8.84221 28.7953 9.24398 30.6014 10.0288C32.4075 10.8136 34.047 11.9659 35.4252 13.419C36.8108 14.8652 37.909 16.5847 38.6564 18.4782C39.4038 20.3717 39.7856 22.4016 39.7796 24.4506C39.7756 33.0476 33.0994 40.044 24.8973 40.044ZM33.0615 28.3646C32.6127 28.1285 30.4146 26.9958 30.0037 26.8391C29.5947 26.6824 29.2975 26.6051 28.9983 27.0732C28.6991 27.5413 27.8414 28.5966 27.5801 28.91C27.3188 29.2235 27.0575 29.2611 26.6107 29.027C26.1639 28.793 24.7217 28.2977 23.0123 26.7012C21.6818 25.4578 20.7842 23.924 20.5229 23.4538C20.2616 22.9836 20.495 22.7308 20.7204 22.4967C20.9218 22.2877 21.1672 21.9492 21.3906 21.6755C21.614 21.4017 21.6878 21.2074 21.8374 20.8939C21.987 20.5805 21.9132 20.3067 21.7995 20.0727C21.6878 19.8365 20.7922 17.5295 20.4192 16.5912C20.0581 15.6822 19.6891 15.8034 19.4139 15.7909C19.1288 15.7786 18.8435 15.7731 18.5581 15.7741C18.3313 15.7802 18.108 15.8353 17.9024 15.936C17.6968 16.0367 17.5133 16.1808 17.3633 16.3593C16.9524 16.8294 15.7975 17.9621 15.7975 20.2691C15.7975 22.5761 17.4012 24.8058 17.6246 25.1193C17.848 25.4327 20.7802 30.1659 25.2683 32.1971C26.3374 32.6798 27.1712 32.9682 27.8195 33.1856C28.8906 33.5429 29.866 33.4907 30.638 33.3715C31.4977 33.2378 33.2849 32.2389 33.6579 31.1439C34.0309 30.0489 34.0309 29.1106 33.9192 28.9142C33.8075 28.7178 33.5063 28.5986 33.0615 28.3646Z" fill="white"/>
</svg>
