<svg width="52" height="52" viewBox="0 0 52 52" fill="none" xmlns="http://www.w3.org/2000/svg">
<rect width="52" height="52" rx="12" fill="#90C1BF"/>
<path fill-rule="evenodd" clip-rule="evenodd" d="M39.4633 11.8137C37.7105 9.96536 35.6251 8.49976 33.3278 7.50182C31.0305 6.50389 28.567 5.99344 26.08 6.00006C15.6517 6.00006 7.16228 14.8916 7.15807 25.8212C7.15807 29.3142 8.02851 32.7234 9.68297 35.7306L7 46L17.03 43.2422C19.8045 44.8245 22.9128 45.6541 26.0716 45.6556H26.08C36.5063 45.6556 44.9957 36.764 44.9999 25.8344C45.0071 23.2301 44.5215 20.6501 43.5711 18.2435C42.6208 15.8369 41.2246 13.6516 39.4633 11.8137ZM26.08 42.3104H26.0737C23.257 42.3108 20.492 41.5168 18.0691 40.0119L17.4958 39.6542L11.544 41.2904L13.131 35.2118L12.7579 34.5891C11.1831 31.9625 10.3495 28.9229 10.3532 25.8212C10.3574 16.7375 17.4115 9.34738 26.0864 9.34738C28.1523 9.34257 30.1987 9.76707 32.107 10.5963C34.0154 11.4256 35.7477 12.6431 37.2039 14.1785C38.6679 15.7065 39.8283 17.5233 40.618 19.524C41.4077 21.5247 41.8111 23.6695 41.8048 25.8344C41.8006 34.9181 34.7465 42.3104 26.08 42.3104ZM34.7064 29.97C34.2322 29.7205 31.9097 28.5238 31.4755 28.3582C31.0434 28.1926 30.7294 28.1109 30.4133 28.6055C30.0971 29.1 29.1909 30.2151 28.9148 30.5463C28.6387 30.8775 28.3626 30.9172 27.8905 30.6699C27.4184 30.4226 25.8946 29.8993 24.0884 28.2124C22.6826 26.8987 21.7342 25.278 21.4581 24.7812C21.182 24.2844 21.4286 24.0173 21.6667 23.77C21.8796 23.5492 22.1388 23.1915 22.3749 22.9022C22.6109 22.613 22.6889 22.4076 22.847 22.0764C23.0051 21.7452 22.9271 21.456 22.807 21.2087C22.6889 20.9592 21.7426 18.5216 21.3485 17.5302C20.967 16.5697 20.5771 16.6978 20.2863 16.6845C19.985 16.6716 19.6836 16.6657 19.3821 16.6669C19.1424 16.6733 18.9065 16.7315 18.6893 16.8379C18.472 16.9443 18.2781 17.0965 18.1197 17.2851C17.6855 17.7819 16.4652 18.9786 16.4652 21.4162C16.4652 23.8539 18.1597 26.2098 18.3958 26.541C18.6318 26.8722 21.73 31.8733 26.4721 34.0194C27.6017 34.5295 28.4827 34.8342 29.1677 35.0638C30.2995 35.4414 31.3301 35.3862 32.1457 35.2603C33.0541 35.119 34.9425 34.0636 35.3366 32.9066C35.7307 31.7496 35.7307 30.7582 35.6127 30.5507C35.4947 30.3431 35.1764 30.2173 34.7064 29.97Z" fill="white"/>
</svg>
