<svg width="294" height="110" viewBox="0 0 294 110" fill="none" xmlns="http://www.w3.org/2000/svg">
<g filter="url(#filter0_d_15_775)">
<rect x="9" y="5" width="276" height="92" rx="46" fill="#FAFAF9"/>
<rect x="9.5" y="5.5" width="275" height="91" rx="45.5" stroke="#CED0D2"/>
</g>
<path d="M109.76 44C109.653 44 109.563 43.968 109.488 43.904C109.424 43.8293 109.392 43.7387 109.392 43.632V33.184C109.392 33.0667 109.424 32.976 109.488 32.912C109.563 32.8373 109.653 32.8 109.76 32.8H116.368C116.475 32.8 116.56 32.8373 116.624 32.912C116.699 32.976 116.736 33.0667 116.736 33.184V33.792C116.736 33.8987 116.704 33.9893 116.64 34.064C116.576 34.128 116.485 34.16 116.368 34.16H110.928V37.664H116.016C116.123 37.664 116.208 37.7013 116.272 37.776C116.347 37.84 116.384 37.9307 116.384 38.048V38.64C116.384 38.7467 116.347 38.8373 116.272 38.912C116.208 38.976 116.123 39.008 116.016 39.008H110.928V42.64H116.496C116.613 42.64 116.704 42.672 116.768 42.736C116.832 42.8 116.864 42.8907 116.864 43.008V43.632C116.864 43.7387 116.827 43.8293 116.752 43.904C116.688 43.968 116.603 44 116.496 44H109.76ZM122.153 44.16C121.012 44.16 120.116 43.84 119.465 43.2C118.825 42.5493 118.484 41.6427 118.441 40.48L118.425 39.84L118.441 39.2C118.484 38.0373 118.825 37.136 119.465 36.496C120.116 35.8453 121.012 35.52 122.153 35.52C122.921 35.52 123.572 35.6587 124.105 35.936C124.639 36.2133 125.033 36.5547 125.289 36.96C125.556 37.3653 125.7 37.7707 125.721 38.176C125.732 38.2827 125.7 38.368 125.625 38.432C125.551 38.496 125.46 38.528 125.353 38.528H124.585C124.479 38.528 124.399 38.5067 124.345 38.464C124.292 38.4213 124.239 38.336 124.185 38.208C124.004 37.696 123.748 37.3333 123.417 37.12C123.087 36.896 122.671 36.784 122.169 36.784C121.508 36.784 120.98 36.992 120.585 37.408C120.201 37.8133 119.993 38.4373 119.961 39.28L119.945 39.856L119.961 40.4C119.993 41.2533 120.201 41.8827 120.585 42.288C120.969 42.6933 121.497 42.896 122.169 42.896C122.671 42.896 123.087 42.7893 123.417 42.576C123.748 42.352 124.004 41.984 124.185 41.472C124.239 41.344 124.292 41.2587 124.345 41.216C124.399 41.1627 124.479 41.136 124.585 41.136H125.353C125.46 41.136 125.551 41.1733 125.625 41.248C125.7 41.312 125.732 41.3973 125.721 41.504C125.7 41.8987 125.556 42.304 125.289 42.72C125.033 43.1253 124.639 43.4667 124.105 43.744C123.583 44.0213 122.932 44.16 122.153 44.16ZM130.166 44C130.059 44 129.968 43.968 129.894 43.904C129.83 43.8293 129.798 43.7387 129.798 43.632V36.96H127.014C126.907 36.96 126.816 36.928 126.742 36.864C126.678 36.7893 126.646 36.6987 126.646 36.592V36.048C126.646 35.9413 126.678 35.856 126.742 35.792C126.816 35.7173 126.907 35.68 127.014 35.68H134.054C134.16 35.68 134.246 35.7173 134.31 35.792C134.384 35.856 134.422 35.9413 134.422 36.048V36.592C134.422 36.6987 134.384 36.7893 134.31 36.864C134.246 36.928 134.16 36.96 134.054 36.96H131.27V43.632C131.27 43.7387 131.238 43.8293 131.174 43.904C131.11 43.968 131.024 44 130.918 44H130.166ZM136.177 44C136.07 44 135.98 43.968 135.905 43.904C135.841 43.8293 135.809 43.7387 135.809 43.632V36.048C135.809 35.9413 135.841 35.856 135.905 35.792C135.98 35.7173 136.07 35.68 136.177 35.68H136.945C137.052 35.68 137.137 35.7173 137.201 35.792C137.276 35.856 137.313 35.9413 137.313 36.048V38.4H139.105C140.161 38.4 140.945 38.6507 141.457 39.152C141.98 39.6427 142.241 40.3413 142.241 41.248C142.241 42.1867 141.964 42.88 141.409 43.328C140.865 43.776 140.033 44 138.913 44H136.177ZM138.977 42.8C139.628 42.8 140.097 42.6827 140.385 42.448C140.684 42.2133 140.833 41.8133 140.833 41.248C140.833 40.6827 140.684 40.2667 140.385 40C140.097 39.7333 139.628 39.6 138.977 39.6H137.297V42.8H138.977ZM148.115 44C148.008 44 147.917 43.968 147.843 43.904C147.779 43.8293 147.747 43.7387 147.747 43.632V36.048C147.747 35.9413 147.779 35.856 147.843 35.792C147.917 35.7173 148.008 35.68 148.115 35.68H151.443C152.424 35.68 153.171 35.8827 153.683 36.288C154.205 36.6827 154.467 37.2267 154.467 37.92C154.467 38.3787 154.381 38.736 154.211 38.992C154.04 39.2373 153.779 39.4507 153.427 39.632C153.811 39.792 154.109 40.0587 154.323 40.432C154.547 40.8053 154.659 41.2053 154.659 41.632C154.659 42.4 154.387 42.9867 153.843 43.392C153.309 43.7973 152.552 44 151.571 44H148.115ZM151.347 39.216C151.869 39.216 152.28 39.104 152.579 38.88C152.877 38.656 153.027 38.3413 153.027 37.936C153.027 37.5413 152.883 37.264 152.595 37.104C152.307 36.9333 151.891 36.848 151.347 36.848H149.219V39.216H151.347ZM151.443 42.832C151.976 42.832 152.392 42.7307 152.691 42.528C153 42.3253 153.155 42.0267 153.155 41.632C153.155 41.2053 153.016 40.896 152.739 40.704C152.461 40.5013 152.029 40.4 151.443 40.4H149.219V42.832H151.443ZM160.123 44.16C158.95 44.16 158.038 43.8293 157.387 43.168C156.747 42.5067 156.406 41.6267 156.363 40.528L156.347 39.84L156.363 39.152C156.406 38.064 156.753 37.1893 157.403 36.528C158.054 35.856 158.961 35.52 160.123 35.52C161.286 35.52 162.193 35.856 162.843 36.528C163.494 37.1893 163.841 38.064 163.883 39.152C163.894 39.2693 163.899 39.4987 163.899 39.84C163.899 40.1813 163.894 40.4107 163.883 40.528C163.841 41.6267 163.494 42.5067 162.843 43.168C162.203 43.8293 161.297 44.16 160.123 44.16ZM160.123 42.928C160.795 42.928 161.323 42.7147 161.707 42.288C162.102 41.8613 162.315 41.248 162.347 40.448C162.358 40.3413 162.363 40.1387 162.363 39.84C162.363 39.5413 162.358 39.3387 162.347 39.232C162.315 38.432 162.102 37.8187 161.707 37.392C161.323 36.9653 160.795 36.752 160.123 36.752C159.451 36.752 158.918 36.9653 158.523 37.392C158.129 37.8187 157.921 38.432 157.899 39.232L157.883 39.84L157.899 40.448C157.921 41.248 158.129 41.8613 158.523 42.288C158.918 42.7147 159.451 42.928 160.123 42.928ZM166.271 44C166.164 44 166.073 43.968 165.999 43.904C165.935 43.8293 165.903 43.7387 165.903 43.632V36.048C165.903 35.9413 165.935 35.856 165.999 35.792C166.073 35.7173 166.164 35.68 166.271 35.68H172.623C172.729 35.68 172.815 35.7173 172.879 35.792C172.953 35.856 172.991 35.9413 172.991 36.048V43.632C172.991 43.7387 172.953 43.8293 172.879 43.904C172.815 43.968 172.729 44 172.623 44H171.855C171.748 44 171.663 43.968 171.599 43.904C171.535 43.8293 171.503 43.7387 171.503 43.632V36.96H167.407V43.632C167.407 43.7387 167.369 43.8293 167.295 43.904C167.231 43.968 167.145 44 167.039 44H166.271ZM175.756 47.04C175.649 47.04 175.558 47.0027 175.484 46.928C175.42 46.864 175.388 46.7787 175.388 46.672V36.048C175.388 35.9413 175.42 35.856 175.484 35.792C175.558 35.7173 175.649 35.68 175.756 35.68H176.492C176.598 35.68 176.684 35.7173 176.748 35.792C176.822 35.856 176.86 35.9413 176.86 36.048V36.752C177.457 35.9307 178.332 35.52 179.484 35.52C180.604 35.52 181.441 35.872 181.996 36.576C182.561 37.28 182.865 38.1867 182.908 39.296C182.918 39.4133 182.924 39.5947 182.924 39.84C182.924 40.0853 182.918 40.2667 182.908 40.384C182.865 41.4827 182.561 42.3893 181.996 43.104C181.43 43.808 180.593 44.16 179.484 44.16C178.374 44.16 177.51 43.76 176.892 42.96V46.672C176.892 46.7787 176.86 46.864 176.796 46.928C176.732 47.0027 176.646 47.04 176.539 47.04H175.756ZM179.148 42.864C179.905 42.864 180.454 42.6293 180.796 42.16C181.148 41.6907 181.34 41.072 181.372 40.304C181.382 40.1973 181.388 40.0427 181.388 39.84C181.388 37.824 180.641 36.816 179.148 36.816C178.412 36.816 177.857 37.0613 177.484 37.552C177.121 38.032 176.924 38.608 176.892 39.28L176.876 39.888L176.892 40.512C176.913 41.1413 177.116 41.6907 177.5 42.16C177.884 42.6293 178.433 42.864 179.148 42.864ZM188.311 44.16C187.137 44.16 186.225 43.8293 185.575 43.168C184.935 42.5067 184.593 41.6267 184.551 40.528L184.535 39.84L184.551 39.152C184.593 38.064 184.94 37.1893 185.591 36.528C186.241 35.856 187.148 35.52 188.311 35.52C189.473 35.52 190.38 35.856 191.031 36.528C191.681 37.1893 192.028 38.064 192.071 39.152C192.081 39.2693 192.087 39.4987 192.087 39.84C192.087 40.1813 192.081 40.4107 192.071 40.528C192.028 41.6267 191.681 42.5067 191.031 43.168C190.391 43.8293 189.484 44.16 188.311 44.16ZM188.311 42.928C188.983 42.928 189.511 42.7147 189.895 42.288C190.289 41.8613 190.503 41.248 190.535 40.448C190.545 40.3413 190.551 40.1387 190.551 39.84C190.551 39.5413 190.545 39.3387 190.535 39.232C190.503 38.432 190.289 37.8187 189.895 37.392C189.511 36.9653 188.983 36.752 188.311 36.752C187.639 36.752 187.105 36.9653 186.711 37.392C186.316 37.8187 186.108 38.432 186.087 39.232L186.071 39.84L186.087 40.448C186.108 41.248 186.316 41.8613 186.711 42.288C187.105 42.7147 187.639 42.928 188.311 42.928ZM197.45 44.16C196.309 44.16 195.413 43.84 194.762 43.2C194.122 42.5493 193.781 41.6427 193.738 40.48L193.722 39.84L193.738 39.2C193.781 38.0373 194.122 37.136 194.762 36.496C195.413 35.8453 196.309 35.52 197.45 35.52C198.218 35.52 198.869 35.6587 199.402 35.936C199.936 36.2133 200.33 36.5547 200.586 36.96C200.853 37.3653 200.997 37.7707 201.018 38.176C201.029 38.2827 200.997 38.368 200.922 38.432C200.848 38.496 200.757 38.528 200.65 38.528H199.882C199.776 38.528 199.696 38.5067 199.642 38.464C199.589 38.4213 199.536 38.336 199.482 38.208C199.301 37.696 199.045 37.3333 198.714 37.12C198.384 36.896 197.968 36.784 197.466 36.784C196.805 36.784 196.277 36.992 195.882 37.408C195.498 37.8133 195.29 38.4373 195.258 39.28L195.242 39.856L195.258 40.4C195.29 41.2533 195.498 41.8827 195.882 42.288C196.266 42.6933 196.794 42.896 197.466 42.896C197.968 42.896 198.384 42.7893 198.714 42.576C199.045 42.352 199.301 41.984 199.482 41.472C199.536 41.344 199.589 41.2587 199.642 41.216C199.696 41.1627 199.776 41.136 199.882 41.136H200.65C200.757 41.136 200.848 41.1733 200.922 41.248C200.997 41.312 201.029 41.3973 201.018 41.504C200.997 41.8987 200.853 42.304 200.586 42.72C200.33 43.1253 199.936 43.4667 199.402 43.744C198.88 44.0213 198.229 44.16 197.45 44.16ZM203.286 44C203.18 44 203.089 43.968 203.014 43.904C202.95 43.8293 202.918 43.7387 202.918 43.632V36.048C202.918 35.9413 202.95 35.856 203.014 35.792C203.089 35.7173 203.18 35.68 203.286 35.68H204.054C204.161 35.68 204.246 35.7173 204.31 35.792C204.385 35.856 204.422 35.9413 204.422 36.048V38.4H206.086C207.142 38.4 207.926 38.6507 208.438 39.152C208.961 39.6427 209.222 40.3413 209.222 41.248C209.222 42.1867 208.945 42.88 208.39 43.328C207.846 43.776 207.014 44 205.894 44H203.286ZM210.726 44C210.62 44 210.529 43.968 210.454 43.904C210.39 43.8293 210.358 43.7387 210.358 43.632V36.048C210.358 35.9413 210.39 35.856 210.454 35.792C210.529 35.7173 210.62 35.68 210.726 35.68H211.494C211.601 35.68 211.686 35.7173 211.75 35.792C211.825 35.856 211.862 35.9413 211.862 36.048V43.632C211.862 43.7387 211.825 43.8293 211.75 43.904C211.686 43.968 211.601 44 211.494 44H210.726ZM205.942 42.8C206.604 42.8 207.078 42.6827 207.366 42.448C207.665 42.2133 207.814 41.8133 207.814 41.248C207.814 40.6827 207.665 40.2667 207.366 40C207.078 39.7333 206.604 39.6 205.942 39.6H204.406V42.8H205.942ZM216.951 41.376C216.855 41.376 216.775 41.344 216.711 41.28C216.647 41.216 216.615 41.136 216.615 41.04V40.4C216.636 39.8347 216.78 39.3493 217.047 38.944C217.313 38.5387 217.703 38.0747 218.215 37.552C218.631 37.1253 218.935 36.7733 219.127 36.496C219.319 36.2187 219.415 35.9147 219.415 35.584C219.415 35.0933 219.207 34.704 218.791 34.416C218.385 34.128 217.911 33.984 217.367 33.984C216.097 33.984 215.351 34.624 215.127 35.904C215.073 36.1387 214.935 36.256 214.711 36.256H213.943C213.836 36.256 213.751 36.224 213.687 36.16C213.623 36.096 213.59 36.0107 213.59 35.904C213.612 35.3173 213.777 34.7787 214.087 34.288C214.407 33.7867 214.855 33.3867 215.431 33.088C216.007 32.7893 216.668 32.64 217.415 32.64C218.204 32.64 218.865 32.7787 219.399 33.056C219.943 33.3227 220.343 33.6747 220.599 34.112C220.855 34.5387 220.983 34.9973 220.983 35.488C220.983 36.032 220.86 36.5013 220.615 36.896C220.369 37.2907 220.001 37.7493 219.511 38.272C219.105 38.6987 218.801 39.0613 218.599 39.36C218.396 39.648 218.279 39.9733 218.247 40.336C218.225 40.6347 218.215 40.8587 218.215 41.008C218.161 41.2533 218.028 41.376 217.815 41.376H216.951ZM216.823 44C216.716 44 216.625 43.968 216.551 43.904C216.487 43.8293 216.455 43.7387 216.455 43.632V42.656C216.455 42.5493 216.487 42.464 216.551 42.4C216.625 42.3253 216.716 42.288 216.823 42.288H217.863C217.969 42.288 218.06 42.3253 218.135 42.4C218.209 42.464 218.247 42.5493 218.247 42.656V43.632C218.247 43.7387 218.209 43.8293 218.135 43.904C218.06 43.968 217.969 44 217.863 44H216.823ZM109.76 70C109.653 70 109.563 69.968 109.488 69.904C109.424 69.8293 109.392 69.7387 109.392 69.632V59.184C109.392 59.0667 109.424 58.976 109.488 58.912C109.563 58.8373 109.653 58.8 109.76 58.8H110.576C110.693 58.8 110.784 58.8373 110.848 58.912C110.923 58.976 110.96 59.0667 110.96 59.184V63.6H116.464V59.184C116.464 59.0667 116.496 58.976 116.56 58.912C116.635 58.8373 116.725 58.8 116.832 58.8H117.648C117.765 58.8 117.856 58.8373 117.92 58.912C117.995 58.976 118.032 59.0667 118.032 59.184V69.632C118.032 69.7387 117.995 69.8293 117.92 69.904C117.845 69.968 117.755 70 117.648 70H116.832C116.725 70 116.635 69.968 116.56 69.904C116.496 69.8293 116.464 69.7387 116.464 69.632V65.04H110.96V69.632C110.96 69.7387 110.923 69.8293 110.848 69.904C110.773 69.968 110.683 70 110.576 70H109.76ZM122.926 70.16C122.403 70.16 121.918 70.0533 121.47 69.84C121.022 69.6267 120.665 69.3387 120.398 68.976C120.142 68.6027 120.014 68.192 120.014 67.744C120.014 67.04 120.302 66.464 120.878 66.016C121.465 65.5573 122.254 65.2587 123.246 65.12L125.63 64.784V64.32C125.63 63.232 125.006 62.688 123.758 62.688C123.289 62.688 122.905 62.7893 122.606 62.992C122.307 63.184 122.083 63.4133 121.934 63.68C121.902 63.776 121.859 63.8453 121.806 63.888C121.763 63.9307 121.699 63.952 121.614 63.952H120.926C120.83 63.952 120.745 63.92 120.67 63.856C120.606 63.7813 120.574 63.696 120.574 63.6C120.585 63.344 120.702 63.056 120.926 62.736C121.161 62.4053 121.518 62.1227 121.998 61.888C122.478 61.6427 123.07 61.52 123.774 61.52C124.969 61.52 125.827 61.8027 126.35 62.368C126.873 62.9227 127.134 63.616 127.134 64.448V69.632C127.134 69.7387 127.097 69.8293 127.022 69.904C126.958 69.968 126.873 70 126.766 70H126.03C125.923 70 125.833 69.968 125.758 69.904C125.694 69.8293 125.662 69.7387 125.662 69.632V68.944C125.427 69.2853 125.086 69.5733 124.638 69.808C124.19 70.0427 123.619 70.16 122.926 70.16ZM123.262 68.96C123.955 68.96 124.521 68.736 124.958 68.288C125.406 67.8293 125.63 67.1733 125.63 66.32V65.872L123.774 66.144C123.017 66.2507 122.446 66.432 122.062 66.688C121.678 66.9333 121.486 67.248 121.486 67.632C121.486 68.0587 121.662 68.3893 122.014 68.624C122.366 68.848 122.782 68.96 123.262 68.96ZM129.802 70C129.695 70 129.605 69.968 129.53 69.904C129.466 69.8293 129.434 69.7387 129.434 69.632V62.048C129.434 61.9413 129.466 61.856 129.53 61.792C129.605 61.7173 129.695 61.68 129.802 61.68H136.154C136.261 61.68 136.346 61.7173 136.41 61.792C136.485 61.856 136.522 61.9413 136.522 62.048V69.632C136.522 69.7387 136.485 69.8293 136.41 69.904C136.346 69.968 136.261 70 136.154 70H135.386C135.279 70 135.194 69.968 135.13 69.904C135.066 69.8293 135.034 69.7387 135.034 69.632V62.96H130.938V69.632C130.938 69.7387 130.901 69.8293 130.826 69.904C130.762 69.968 130.677 70 130.57 70H129.802ZM145.975 61.68C146.06 61.68 146.135 61.712 146.199 61.776C146.273 61.84 146.311 61.9147 146.311 62V69.632C146.311 69.7387 146.273 69.8293 146.199 69.904C146.135 69.968 146.049 70 145.943 70H145.191C145.084 70 144.993 69.968 144.919 69.904C144.855 69.8293 144.823 69.7387 144.823 69.632V63.824L140.391 69.76C140.273 69.92 140.135 70 139.975 70H139.255C139.159 70 139.073 69.968 138.999 69.904C138.935 69.8293 138.903 69.7493 138.903 69.664V62.048C138.903 61.9413 138.935 61.856 138.999 61.792C139.073 61.7173 139.164 61.68 139.271 61.68H140.039C140.145 61.68 140.231 61.7173 140.295 61.792C140.369 61.856 140.407 61.9413 140.407 62.048V67.824L144.823 61.92C144.94 61.76 145.079 61.68 145.239 61.68H145.975ZM149.021 70C148.914 70 148.823 69.968 148.749 69.904C148.685 69.8293 148.653 69.7387 148.653 69.632V62.048C148.653 61.9413 148.685 61.856 148.749 61.792C148.823 61.7173 148.914 61.68 149.021 61.68H149.757C149.863 61.68 149.949 61.7173 150.013 61.792C150.087 61.856 150.125 61.9413 150.125 62.048V68.72H153.053V62.048C153.053 61.9413 153.085 61.856 153.149 61.792C153.223 61.7173 153.314 61.68 153.421 61.68H154.093C154.199 61.68 154.285 61.7173 154.349 61.792C154.423 61.856 154.461 61.9413 154.461 62.048V68.72H157.389V62.048C157.389 61.9413 157.421 61.856 157.485 61.792C157.559 61.7173 157.65 61.68 157.757 61.68H158.493C158.599 61.68 158.685 61.7173 158.749 61.792C158.823 61.856 158.861 61.9413 158.861 62.048V69.632C158.861 69.7387 158.823 69.8293 158.749 69.904C158.685 69.968 158.599 70 158.493 70H149.021ZM168.319 61.68C168.404 61.68 168.479 61.712 168.543 61.776C168.617 61.84 168.655 61.9147 168.655 62V69.632C168.655 69.7387 168.617 69.8293 168.543 69.904C168.479 69.968 168.393 70 168.286 70H167.535C167.428 70 167.337 69.968 167.263 69.904C167.199 69.8293 167.167 69.7387 167.167 69.632V63.824L162.735 69.76C162.617 69.92 162.479 70 162.319 70H161.599C161.503 70 161.417 69.968 161.343 69.904C161.279 69.8293 161.247 69.7493 161.247 69.664V62.048C161.247 61.9413 161.279 61.856 161.343 61.792C161.417 61.7173 161.508 61.68 161.615 61.68H162.383C162.489 61.68 162.575 61.7173 162.639 61.792C162.713 61.856 162.751 61.9413 162.751 62.048V67.824L167.167 61.92C167.284 61.76 167.423 61.68 167.583 61.68H168.319ZM173.541 70C173.434 70 173.343 69.968 173.269 69.904C173.205 69.8293 173.173 69.7387 173.173 69.632V62.96H170.389C170.282 62.96 170.191 62.928 170.117 62.864C170.053 62.7893 170.021 62.6987 170.021 62.592V62.048C170.021 61.9413 170.053 61.856 170.117 61.792C170.191 61.7173 170.282 61.68 170.389 61.68H177.429C177.535 61.68 177.621 61.7173 177.685 61.792C177.759 61.856 177.797 61.9413 177.797 62.048V62.592C177.797 62.6987 177.759 62.7893 177.685 62.864C177.621 62.928 177.535 62.96 177.429 62.96H174.645V69.632C174.645 69.7387 174.613 69.8293 174.549 69.904C174.485 69.968 174.399 70 174.293 70H173.541ZM182.512 70.16C181.413 70.16 180.533 69.824 179.872 69.152C179.221 68.4693 178.864 67.5413 178.8 66.368L178.784 65.824L178.8 65.296C178.875 64.144 179.237 63.2267 179.888 62.544C180.549 61.8613 181.419 61.52 182.496 61.52C183.68 61.52 184.597 61.8987 185.248 62.656C185.899 63.4027 186.224 64.416 186.224 65.696V65.968C186.224 66.0747 186.187 66.1653 186.112 66.24C186.048 66.304 185.963 66.336 185.856 66.336H180.32V66.48C180.352 67.1733 180.56 67.7653 180.944 68.256C181.339 68.736 181.856 68.976 182.496 68.976C182.987 68.976 183.387 68.88 183.696 68.688C184.016 68.4853 184.251 68.2773 184.4 68.064C184.496 67.936 184.565 67.8613 184.608 67.84C184.661 67.808 184.752 67.792 184.88 67.792H185.664C185.76 67.792 185.84 67.8187 185.904 67.872C185.968 67.9253 186 68 186 68.096C186 68.3307 185.851 68.6133 185.552 68.944C185.264 69.2747 184.853 69.5627 184.32 69.808C183.797 70.0427 183.195 70.16 182.512 70.16ZM184.704 65.232V65.184C184.704 64.448 184.501 63.8507 184.096 63.392C183.701 62.9227 183.168 62.688 182.496 62.688C181.824 62.688 181.291 62.9227 180.896 63.392C180.512 63.8507 180.32 64.448 180.32 65.184V65.232H184.704ZM192.427 70C192.32 70 192.23 69.968 192.155 69.904C192.091 69.8293 192.059 69.7387 192.059 69.632V62.048C192.059 61.9413 192.091 61.856 192.155 61.792C192.23 61.7173 192.32 61.68 192.427 61.68H193.195C193.302 61.68 193.387 61.7173 193.451 61.792C193.526 61.856 193.563 61.9413 193.563 62.048V65.12H197.915V62.048C197.915 61.9413 197.947 61.856 198.011 61.792C198.086 61.7173 198.176 61.68 198.283 61.68H199.035C199.142 61.68 199.227 61.7173 199.291 61.792C199.366 61.856 199.403 61.9413 199.403 62.048V69.632C199.403 69.7387 199.366 69.8293 199.291 69.904C199.227 69.968 199.142 70 199.035 70H198.283C198.176 70 198.086 69.968 198.011 69.904C197.947 69.8293 197.915 69.7387 197.915 69.632V66.4H193.563V69.632C193.563 69.7387 193.526 69.8293 193.451 69.904C193.387 69.968 193.302 70 193.195 70H192.427ZM204.129 70.16C203.606 70.16 203.121 70.0533 202.673 69.84C202.225 69.6267 201.868 69.3387 201.601 68.976C201.345 68.6027 201.217 68.192 201.217 67.744C201.217 67.04 201.505 66.464 202.081 66.016C202.668 65.5573 203.457 65.2587 204.449 65.12L206.833 64.784V64.32C206.833 63.232 206.209 62.688 204.961 62.688C204.492 62.688 204.108 62.7893 203.809 62.992C203.51 63.184 203.286 63.4133 203.137 63.68C203.105 63.776 203.062 63.8453 203.009 63.888C202.966 63.9307 202.902 63.952 202.817 63.952H202.129C202.033 63.952 201.948 63.92 201.873 63.856C201.809 63.7813 201.777 63.696 201.777 63.6C201.788 63.344 201.905 63.056 202.129 62.736C202.364 62.4053 202.721 62.1227 203.201 61.888C203.681 61.6427 204.273 61.52 204.977 61.52C206.172 61.52 207.03 61.8027 207.553 62.368C208.076 62.9227 208.337 63.616 208.337 64.448V69.632C208.337 69.7387 208.3 69.8293 208.225 69.904C208.161 69.968 208.076 70 207.969 70H207.233C207.126 70 207.036 69.968 206.961 69.904C206.897 69.8293 206.865 69.7387 206.865 69.632V68.944C206.63 69.2853 206.289 69.5733 205.841 69.808C205.393 70.0427 204.822 70.16 204.129 70.16ZM204.465 68.96C205.158 68.96 205.724 68.736 206.161 68.288C206.609 67.8293 206.833 67.1733 206.833 66.32V65.872L204.977 66.144C204.22 66.2507 203.649 66.432 203.265 66.688C202.881 66.9333 202.689 67.248 202.689 67.632C202.689 68.0587 202.865 68.3893 203.217 68.624C203.569 68.848 203.985 68.96 204.465 68.96ZM218.829 61.68C218.914 61.68 218.989 61.712 219.053 61.776C219.117 61.8293 219.149 61.8987 219.149 61.984V69.648C219.149 69.7547 219.117 69.84 219.053 69.904C218.989 69.968 218.909 70 218.813 70H218.029C217.922 70 217.837 69.968 217.773 69.904C217.709 69.84 217.677 69.7547 217.677 69.648V64.384L215.629 68.256C215.554 68.3947 215.48 68.5013 215.405 68.576C215.341 68.64 215.24 68.672 215.101 68.672H214.685C214.557 68.672 214.456 68.64 214.381 68.576C214.317 68.512 214.242 68.4053 214.157 68.256L212.125 64.48V69.648C212.125 69.7547 212.093 69.84 212.029 69.904C211.965 69.968 211.88 70 211.773 70H210.989C210.882 70 210.797 69.968 210.733 69.904C210.669 69.84 210.637 69.7547 210.637 69.648V61.984C210.637 61.9093 210.669 61.84 210.733 61.776C210.797 61.712 210.872 61.68 210.957 61.68H211.773C211.933 61.68 212.066 61.7653 212.173 61.936L214.893 67.024L217.629 61.936C217.714 61.7653 217.848 61.68 218.029 61.68H218.829Z" fill="#222528"/>
<circle cx="57.5" cy="50.5" r="35.5" fill="#90C1BF"/>
<path fill-rule="evenodd" clip-rule="evenodd" d="M78 49.4056C78 59.0185 69.045 66.8113 58 66.8113C56.0191 66.814 54.0465 66.5581 52.1325 66.0504C50.6725 66.7864 47.32 68.1988 41.68 69.1188C41.18 69.1984 40.8 68.6812 40.9975 68.2187C41.8825 66.1399 42.6825 63.37 42.9225 60.8436C39.86 57.7852 38 53.7819 38 49.4056C38 39.7928 46.955 32 58 32C69.045 32 78 39.7928 78 49.4056ZM55.985 46.3373C56.2025 46.6456 56.3925 46.9838 56.5525 47.3344C57.6225 49.6916 57.535 53.2448 54.1975 56.5494C53.9938 56.7469 53.7219 56.8595 53.4375 56.8641C53.153 56.8687 52.8776 56.765 52.6675 56.5743C52.5651 56.482 52.4827 56.3698 52.4255 56.2447C52.3683 56.1196 52.3375 55.9841 52.3349 55.8467C52.3323 55.7092 52.3581 55.5727 52.4105 55.4456C52.463 55.3184 52.5411 55.2033 52.64 55.1072C53.6875 54.0728 54.32 53.0409 54.6625 52.0737C53.99 52.484 53.1925 52.7202 52.3375 52.7202C49.9375 52.7202 48 50.8652 48 48.5776C48 46.29 49.94 44.4326 52.335 44.4326C53.0125 44.4326 53.655 44.5818 54.225 44.8454L54.245 44.8553C54.6675 45.0294 55.0625 45.3079 55.4175 45.6609C55.63 45.8673 55.82 46.0936 55.985 46.3373ZM65.5 52.0737C64.8275 52.484 64.03 52.7202 63.175 52.7202C60.78 52.7202 58.8375 50.8652 58.8375 48.5776C58.8375 46.29 60.78 44.4326 63.1725 44.4326C63.85 44.4326 64.4925 44.5818 65.0625 44.8454L65.0825 44.8553C65.5075 45.0294 65.9 45.3079 66.255 45.6609C66.4675 45.8673 66.6575 46.0936 66.8225 46.3373C67.04 46.6456 67.2325 46.9838 67.3925 47.3344C68.4625 49.6916 68.3725 53.2448 65.0375 56.5494C64.8337 56.7476 64.5612 56.8607 64.2762 56.8653C63.9912 56.8699 63.7152 56.7658 63.505 56.5743C63.4026 56.482 63.3202 56.3698 63.263 56.2447C63.2058 56.1196 63.175 55.9841 63.1724 55.8467C63.1698 55.7092 63.1956 55.5727 63.248 55.4456C63.3005 55.3184 63.3786 55.2033 63.4775 55.1072C64.5275 54.0728 65.1575 53.0409 65.5025 52.0737H65.5Z" fill="#222528"/>
<defs>
<filter id="filter0_d_15_775" x="0" y="0" width="294" height="110" filterUnits="userSpaceOnUse" color-interpolation-filters="sRGB">
<feFlood flood-opacity="0" result="BackgroundImageFix"/>
<feColorMatrix in="SourceAlpha" type="matrix" values="0 0 0 0 0 0 0 0 0 0 0 0 0 0 0 0 0 0 127 0" result="hardAlpha"/>
<feOffset dy="4"/>
<feGaussianBlur stdDeviation="4.5"/>
<feColorMatrix type="matrix" values="0 0 0 0 0.829167 0 0 0 0 0.829167 0 0 0 0 0.829167 0 0 0 1 0"/>
<feBlend mode="normal" in2="BackgroundImageFix" result="effect1_dropShadow_15_775"/>
<feBlend mode="normal" in="SourceGraphic" in2="effect1_dropShadow_15_775" result="shape"/>
</filter>
</defs>
</svg>
